STARTFONT 2.1
FONT -FontForge-Inconsolata LGC-Bold-R-Normal--48-460-75-75-P-287-ISO10646-1
SIZE 46 75 75
FONTBOUNDINGBOX 35 60 -5 -10
COMMENT "Generated by fontforge, http://fontforge.sourceforge.net"
COMMENT "Original Roman version created by Raph Levien using his own tools and FontForge. Copyright 2006 Raph Levien. Hellenisation of the Roman font, by Dimosthenis Kaponis, using FontForge. Hellenic glyphs Copyright 2010-2012 Dimosthenis Kaponis. Released under the SIL Open Font License, http://scripts.sil.org/OFL."
COMMENT ""
COMMENT "Cyrillic glyphs added by MihailJP, using FontForge. Cyrillic glyphs Copyright 2012 MihailJP. Released under the SIL Open Font License, http://scripts.sil.org/OFL."
COMMENT ""
COMMENT "Emboldened by MihailJP."
COMMENT ""
COMMENT "Some glyphs modified by Greg Omelaenko, using FontForge."
STARTPROPERTIES 40
FOUNDRY "FontForge"
FAMILY_NAME "Inconsolata LGC"
WEIGHT_NAME "Bold"
SLANT "R"
SETWIDTH_NAME "Normal"
ADD_STYLE_NAME ""
PIXEL_SIZE 48
POINT_SIZE 460
RESOLUTION_X 75
RESOLUTION_Y 75
SPACING "P"
AVERAGE_WIDTH 287
CHARSET_REGISTRY "ISO10646"
CHARSET_ENCODING "1"
FONTNAME_REGISTRY ""
CHARSET_COLLECTIONS "ASCII ISOLatin1Encoding ISO8859-2 ISO8859-5 ISO8859-7 ISO8859-9 ISO8859-4 ISO10646-1"
FONT_NAME "InconsolataLGC-Bold"
FACE_NAME "Inconsolata LGC Bold"
COPYRIGHT "Original Roman version created by Raph Levien using his own tools and FontForge. Copyright 2006 Raph Levien. Hellenisation of the Roman font, by Dimosthenis Kaponis, using FontForge. Hellenic glyphs Copyright 2010-2012 Dimosthenis Kaponis. Released under the SIL Open Font License, http://scripts.sil.org/OFL."
FONT_VERSION "1.2"
FONT_ASCENT 39
FONT_DESCENT 9
UNDERLINE_POSITION -7
UNDERLINE_THICKNESS 3
X_HEIGHT 24
CAP_HEIGHT 34
RAW_ASCENT 820
RAW_DESCENT 179
NORM_SPACE 29
RELATIVE_WEIGHT 70
RELATIVE_SETWIDTH 50
SUPERSCRIPT_X 0
SUPERSCRIPT_Y 23
SUPERSCRIPT_SIZE 33
SUBSCRIPT_X 0
SUBSCRIPT_Y 6
SUBSCRIPT_SIZE 33
FIGURE_WIDTH 29
AVG_LOWERCASE_WIDTH 287
AVG_UPPERCASE_WIDTH 287

STARTCHAR space
ENCODING 32
SWIDTH 598 0
DWIDTH 29 0
BBX 1 1 0 0
BITMAP
00
ENDCHAR
STARTCHAR exclam
ENCODING 33
SWIDTH 598 0
DWIDTH 29 0
BBX 8 38 10 -1
BITMAP
3C
7E
7E
FE
FE
FE
FE
7E
7E
7E
7E
7E
7E
7E
7E
7E
7E
7E
7C
7C
7C
7C
3C
3C
3C
3C
00
00
00
00
3C
7E
FE
FF
FF
FF
7E
3C
ENDCHAR
STARTCHAR quotedbl
ENCODING 34
SWIDTH 598 0
DWIDTH 29 0
BBX 15 15 8 22
BITMAP
701C
F03C
F87E
F87E
F87E
F87E
F87E
F87E
F87E
F87E
F87E
F87E
F87E
F87E
F87E
ENDCHAR
STARTCHAR numbersign
ENCODING 35
SWIDTH 598 0
DWIDTH 29 0
BBX 27 37 1 -1
BITMAP
00F83E00
00F83E00
00F83E00
00F83C00
00F87C00
00F87C00
00F87C00
00F07C00
00F07C00
01F07C00
7FFFFFE0
7FFFFFE0
7FFFFFC0
7FF0FFC0
01F0F800
01E0F800
01E0F800
01E0F800
03E0F800
03E0F800
03E1F000
03E3F000
03FFFFC0
FFFFFFC0
FFFFFF80
FFFFFF80
FFFFF000
07C1F000
07C1E000
07C1E000
07C3E000
07C3E000
07C3E000
0783E000
0783E000
0F83E000
0F83E000
ENDCHAR
STARTCHAR dollar
ENCODING 36
SWIDTH 598 0
DWIDTH 29 0
BBX 24 39 3 -2
BITMAP
003E00
003E00
003E00
00FF80
07FFE0
0FFFF8
1FFFFC
3FBFFE
3E3E7C
7E3E3C
7C3E18
7C3E00
7E3E00
7F3E00
3FBE00
3FFE00
1FFE00
0FFF00
07FFE0
01FFF0
007FF8
003FFC
003FFE
003E7E
003E3F
003E3F
003E1F
103E1F
303E3E
783E3E
FE3E7E
FFFFFC
7FFFF8
3FFFF0
0FFFE0
01FF00
003E00
003E00
003E00
ENDCHAR
STARTCHAR percent
ENCODING 37
SWIDTH 598 0
DWIDTH 29 0
BBX 27 36 1 -1
BITMAP
0FE007C0
1FF00F80
3FF81F80
7FF81F00
7CFC3F00
F87C3E00
F87C7C00
F87CFC00
F87CF800
7C7DF800
7EFDF000
7FFBF000
3FF3E000
1FE7C000
07CFC000
000F8000
001F8000
001F0000
003F0000
003E0000
007C0000
00FC7E00
00F8FF80
01F9FF80
01F3FFC0
03E3E7E0
03E7C3E0
07C7C3E0
0FC7C3E0
0F87C3E0
1F87C3E0
1F03E7C0
3E03FFC0
3E01FF80
7C00FF00
00007E00
ENDCHAR
STARTCHAR ampersand
ENCODING 38
SWIDTH 598 0
DWIDTH 29 0
BBX 26 37 2 -1
BITMAP
00FC0000
03FF0000
07FF8000
0FFFC000
0FFFE000
1F87E000
1F83E000
1F03E000
1F03E000
1F03E000
1F83E000
1F83E000
0FC7C000
0FCFC000
07FF8000
03FF0000
03FE0000
07FC0000
0FFC0000
1FFE0400
3F3F0700
3E1F0780
7E1F8FC0
7C0FCF80
FC07FF80
FC07FF00
F803FF00
F801FE00
FC00FC00
FC01FC00
FE03FE00
7F0FFF00
7FFFFF80
3FFFDF80
1FFF0F80
0FFE0F00
03F80600
ENDCHAR
STARTCHAR quotesingle
ENCODING 39
SWIDTH 598 0
DWIDTH 29 0
BBX 7 15 12 22
BITMAP
38
7C
FC
FE
FE
FE
FE
FE
FE
FE
FE
FE
FE
7E
7E
ENDCHAR
STARTCHAR parenleft
ENCODING 40
SWIDTH 598 0
DWIDTH 29 0
BBX 18 47 7 -10
BITMAP
000300
000F00
001F80
007F80
00FFC0
01FE00
03FC00
03F000
07E000
0FC000
0FC000
1F8000
1F0000
3F0000
3E0000
7E0000
7E0000
7C0000
7C0000
7C0000
7C0000
FC0000
FC0000
FC0000
FC0000
7C0000
7C0000
7C0000
7E0000
7E0000
3E0000
3F0000
3F0000
1F0000
1F8000
0FC000
0FC000
07E000
07F000
03F800
01FC00
00FE00
007F80
003FC0
001F80
000780
000300
ENDCHAR
STARTCHAR parenright
ENCODING 41
SWIDTH 598 0
DWIDTH 29 0
BBX 17 47 4 -10
BITMAP
600000
700000
7C0000
FF0000
FF8000
3FC000
1FE000
0FF000
03F000
01F800
01FC00
00FC00
007E00
007E00
003F00
003F00
001F00
001F80
001F80
000F80
000F80
000F80
000F80
000F80
000F80
000F80
000F80
000F80
001F80
001F80
001F00
003F00
003F00
007E00
007E00
00FC00
01FC00
03F800
03F000
0FF000
1FE000
3FC000
FF8000
FE0000
FC0000
780000
600000
ENDCHAR
STARTCHAR asterisk
ENCODING 42
SWIDTH 598 0
DWIDTH 29 0
BBX 25 23 2 6
BITMAP
003F0000
003E0000
003E0000
003E0000
003E0000
003E0000
703E0600
7C3E1F00
7F3E7F00
FFFFFF80
FFFFFF80
0FFFF800
00FF0000
00FF0000
01FF8000
01F7C000
03E7E000
07E3F000
0FC1F800
1F81F800
3F80FC00
1F007800
06007000
ENDCHAR
STARTCHAR plus
ENCODING 43
SWIDTH 598 0
DWIDTH 29 0
BBX 25 24 2 5
BITMAP
003E0000
003E0000
003E0000
003E0000
003E0000
003E0000
003E0000
003E0000
003E0000
FFFFFF80
FFFFFF80
FFFFFF80
FFFFFF80
FFFFFF80
003E0000
003E0000
003E0000
003E0000
003E0000
003E0000
003E0000
003E0000
003E0000
003E0000
ENDCHAR
STARTCHAR comma
ENCODING 44
SWIDTH 598 0
DWIDTH 29 0
BBX 9 15 9 -10
BITMAP
3E00
7F00
7F80
7F80
7F80
7F80
3F80
1F80
1F00
1F00
3E00
7C00
F800
7000
2000
ENDCHAR
STARTCHAR hyphen
ENCODING 45
SWIDTH 598 0
DWIDTH 29 0
BBX 21 5 4 16
BITMAP
FFFFF8
FFFFF8
FFFFF8
FFFFF8
FFFFF8
ENDCHAR
STARTCHAR period
ENCODING 46
SWIDTH 598 0
DWIDTH 29 0
BBX 8 8 10 -2
BITMAP
38
7E
FE
FF
FF
FF
7E
3C
ENDCHAR
STARTCHAR slash
ENCODING 47
SWIDTH 598 0
DWIDTH 29 0
BBX 23 40 3 -3
BITMAP
000020
000078
00007E
0000FC
0000FC
0001F8
0001F8
0003F0
0003F0
0003E0
0007E0
0007C0
000FC0
000F80
001F80
001F00
003F00
003E00
007E00
007C00
00FC00
00F800
01F800
01F800
03F000
03F000
07E000
07E000
0FC000
0FC000
1F8000
1F8000
1F0000
3F0000
3E0000
7E0000
7C0000
FC0000
380000
080000
ENDCHAR
STARTCHAR zero
ENCODING 48
SWIDTH 598 0
DWIDTH 29 0
BBX 23 37 3 -1
BITMAP
007C00
01FF00
07FF80
0FFFC0
1FFFE0
1F87F0
3F01F0
3E01F8
7E00F8
7C01FC
7C01FC
FC03FC
F807FE
F807BE
F80FBE
F81F3E
F83E3E
F83C3E
F87C3E
F8F83E
F9F03E
F9F03E
FBE03E
FFC03E
FF803E
FF807E
7F007C
7E007C
7E00FC
3F00F8
3F81F8
1FC7F0
0FFFF0
0FFFE0
07FFC0
01FF00
007C00
ENDCHAR
STARTCHAR one
ENCODING 49
SWIDTH 598 0
DWIDTH 29 0
BBX 13 35 5 0
BITMAP
00F8
03F8
0FF8
3FF8
FFF8
FFF8
FEF8
60F8
00F8
00F8
00F8
00F8
00F8
00F8
00F8
00F8
00F8
00F8
00F8
00F8
00F8
00F8
00F8
00F8
00F8
00F8
00F8
00F8
00F8
00F8
00F8
00F8
00F8
00F8
00F8
ENDCHAR
STARTCHAR two
ENCODING 50
SWIDTH 598 0
DWIDTH 29 0
BBX 22 36 4 0
BITMAP
01FC00
07FF00
1FFFC0
3FFFE0
7FFFE0
FE07F0
FC03F8
7801F8
3800F8
1000F8
0000F8
0000F8
0000F8
0001F8
0001F0
0003F0
0007E0
000FE0
001FC0
003F80
007F00
00FE00
01FC00
03F800
07F000
07E000
0FC000
1F8000
3F0000
3E0000
7E0000
7FFFFC
FFFFFC
FFFFFC
FFFFFC
FFFFFC
ENDCHAR
STARTCHAR three
ENCODING 51
SWIDTH 598 0
DWIDTH 29 0
BBX 22 37 3 -1
BITMAP
01FC00
07FF00
1FFFC0
3FFFE0
3FFFF0
3F07F0
1C01F8
0801F8
0000F8
0000F8
0000F8
0000F8
0001F8
0001F0
0007F0
001FE0
01FFC0
01FF80
01FFC0
01FFE0
000FF0
0001F8
0000F8
0000F8
0000FC
00007C
00007C
0000FC
1800FC
1801F8
3C01F8
7F07F8
FFFFF0
7FFFE0
1FFFC0
0FFF80
01FC00
ENDCHAR
STARTCHAR four
ENCODING 52
SWIDTH 598 0
DWIDTH 29 0
BBX 24 35 2 0
BITMAP
0001F0
0001F0
0003F0
0007F0
000FF0
000FF0
001FF0
003FF0
003FF0
007FF0
00FBF0
00FBF0
01F3F0
03E3F0
03E3F0
07C3F0
0F83F0
0F83F0
1F03F0
3E03F0
3E03F0
7FFFFF
FFFFFF
FFFFFF
FFFFFF
FFFFFF
0003F0
0003F0
0003F0
0003F0
0003F0
0003F0
0003F0
0003F0
0003F0
ENDCHAR
STARTCHAR five
ENCODING 53
SWIDTH 598 0
DWIDTH 29 0
BBX 23 36 3 -1
BITMAP
1FFFFC
1FFFFC
1FFFFC
3FFFFC
3FFFFC
3E0000
3E0000
3E0000
3E0000
3E0000
3E0000
3E3C00
3FFF80
3FFFC0
3FFFF0
3FFFF0
3F83F8
7E01FC
3C00FC
00007C
00007E
00007E
00007E
00003E
00007E
00007E
08007E
1C007E
3C00FC
FE01FC
7F03F8
7FFFF8
3FFFF0
1FFFE0
07FF80
01FE00
ENDCHAR
STARTCHAR six
ENCODING 54
SWIDTH 598 0
DWIDTH 29 0
BBX 22 37 4 -1
BITMAP
007F00
01FFC0
07FFE0
0FFFF8
1FFFF8
1FC1F0
3F00E0
7E0040
7E0000
7C0000
FC0000
F80000
F87C00
FBFF00
FFFFC0
FFFFE0
FFFFE0
FF87F0
FE03F0
FC01F8
F800F8
F800F8
F800FC
F800FC
F800FC
F800FC
F800FC
FC00F8
7C00F8
7E01F8
7F01F0
3F87F0
3FFFE0
1FFFE0
0FFFC0
03FF00
00FC00
ENDCHAR
STARTCHAR seven
ENCODING 55
SWIDTH 598 0
DWIDTH 29 0
BBX 21 35 4 0
BITMAP
FFFFF8
FFFFF8
FFFFF8
FFFFF8
FFFFF0
0003F0
0003F0
0003E0
0007E0
0007C0
000FC0
000F80
001F80
001F80
001F00
003F00
003E00
007E00
007E00
007C00
00FC00
00FC00
01F800
01F800
01F000
03F000
03F000
03E000
07E000
07E000
07C000
0FC000
0FC000
1F8000
1F8000
ENDCHAR
STARTCHAR eight
ENCODING 56
SWIDTH 598 0
DWIDTH 29 0
BBX 23 37 3 -1
BITMAP
00FE00
03FF80
07FFE0
0FFFF0
1FFFF0
1F83F8
3F01F8
3E00F8
3E00FC
3E00FC
3E00F8
3F00F8
3F01F8
1F81F0
1FC3F0
0FFFE0
07FFC0
03FF80
0FFFE0
1FCFF0
1F03F0
3E01F8
7E00FC
7C007C
FC007C
FC007E
FC007E
FC007E
FC007E
FE00FC
7E00FC
7F83FC
3FFFF8
1FFFF0
0FFFE0
07FF80
00FE00
ENDCHAR
STARTCHAR nine
ENCODING 57
SWIDTH 598 0
DWIDTH 29 0
BBX 22 37 4 -1
BITMAP
01F800
07FE00
1FFF80
1FFFC0
3FFFE0
7F0FE0
7E03F0
FC03F0
F801F0
F801F8
F800F8
F800F8
F800F8
F800F8
F800F8
F800F8
FC01FC
7C03FC
7F07FC
3FFFFC
3FFFF8
1FFFF8
07FEF8
01F8F8
0000F8
0000F8
0001F8
0001F0
0003F0
1003F0
3807E0
7C1FE0
FFFFC0
FFFF80
7FFF00
1FFC00
07F000
ENDCHAR
STARTCHAR colon
ENCODING 58
SWIDTH 598 0
DWIDTH 29 0
BBX 8 26 10 -2
BITMAP
38
7E
FE
FF
FF
FF
7E
3C
00
00
00
00
00
00
00
00
00
00
38
7E
FE
FF
FF
FF
7E
3C
ENDCHAR
STARTCHAR semicolon
ENCODING 59
SWIDTH 598 0
DWIDTH 29 0
BBX 9 33 9 -10
BITMAP
1E00
3F00
7F00
7F80
7F80
7F00
3F00
1C00
0000
0000
0000
0000
0000
0000
0000
0000
0000
0000
3E00
7F00
7F80
7F80
7F80
7F80
3F80
1F80
1F00
1F00
3E00
7C00
F800
7000
2000
ENDCHAR
STARTCHAR less
ENCODING 60
SWIDTH 598 0
DWIDTH 29 0
BBX 25 30 2 2
BITMAP
00000180
00000780
00001F80
00007F80
0001FF80
0007FF80
001FFE00
007FF000
01FFC000
07FF0000
1FFC0000
7FF00000
FFC00000
FF000000
FE000000
FF800000
7FC00000
3FF00000
0FFC0000
03FF0000
00FFC000
003FF000
001FFC00
0007FF00
0001FF80
00007F80
00001F80
00000F80
00000380
00000080
ENDCHAR
STARTCHAR equal
ENCODING 61
SWIDTH 598 0
DWIDTH 29 0
BBX 25 17 2 9
BITMAP
FFFFFF80
FFFFFF80
FFFFFF80
FFFFFF80
FFFFFF80
00000000
00000000
00000000
00000000
00000000
00000000
00000000
FFFFFF80
FFFFFF80
FFFFFF80
FFFFFF80
FFFFFF80
ENDCHAR
STARTCHAR greater
ENCODING 62
SWIDTH 598 0
DWIDTH 29 0
BBX 25 30 2 2
BITMAP
80000000
E0000000
F8000000
FE000000
FF800000
FFE00000
3FF80000
0FFE0000
03FF8000
007FE000
001FF800
0007FE00
0001FF80
00007F80
00003F80
0000FF80
0003FF00
000FFC00
001FF800
007FE000
01FF8000
07FE0000
1FF80000
7FF00000
FFC00000
FF000000
FC000000
F0000000
E0000000
80000000
ENDCHAR
STARTCHAR question
ENCODING 63
SWIDTH 598 0
DWIDTH 29 0
BBX 22 38 3 -1
BITMAP
00FE00
03FF80
0FFFE0
1FFFF0
3FFFF8
7F87F8
FE01FC
7C00FC
3800FC
1800FC
0000FC
0000FC
0000FC
0000FC
0001FC
0003F8
0007F0
000FF0
001FE0
001F80
003F00
003E00
003E00
007E00
007C00
007C00
000000
000000
000000
000000
003C00
007E00
00FF00
00FF00
00FF00
00FF00
007E00
003C00
ENDCHAR
STARTCHAR at
ENCODING 64
SWIDTH 598 0
DWIDTH 29 0
BBX 26 36 1 -1
BITMAP
001FC000
007FF000
01FFFC00
03FFFE00
07FDFF00
0FE03F00
1F801F80
1F000F80
3F000780
3E0007C0
3C01FFC0
7C07FFC0
7C0FFFC0
7C1FFFC0
783FC7C0
787E07C0
787C07C0
F87C07C0
F87807C0
787807C0
787C0FC0
787E0FC0
7C7FFFC0
7C3FFFC0
7C1FFFC0
3E0FFFC0
3E03E7C0
3F000000
1F800000
0FC00200
0FF00E00
07FFFF00
03FFFF00
00FFFF00
007FFC00
000FF000
ENDCHAR
STARTCHAR A
ENCODING 65
SWIDTH 598 0
DWIDTH 29 0
BBX 28 35 0 0
BITMAP
00060000
000E0000
000F0000
000F0000
001F0000
001F8000
001F8000
003FC000
003FC000
007FC000
007FE000
007FE000
00FBF000
00F9F000
00F1F000
01F0F800
01F0F800
01E0FC00
03E07C00
03E07C00
07C07E00
07FFFE00
07FFFF00
0FFFFF00
0FFFFF00
0F801F80
1F801F80
1F000F80
1F000FC0
3F0007C0
3E0007E0
3E0007E0
7E0003E0
7C0003F0
FC0001F0
ENDCHAR
STARTCHAR B
ENCODING 66
SWIDTH 598 0
DWIDTH 29 0
BBX 25 35 2 0
BITMAP
FFFF0000
FFFFE000
FFFFF000
FFFFF800
FFFFFC00
FC01FC00
FC007E00
FC007E00
FC003E00
FC003E00
FC003E00
FC007E00
FC00FE00
FC01FC00
FFFFF800
FFFFF000
FFFFE000
FFFFF800
FFFFFC00
FC00FE00
FC007E00
FC003F00
FC001F00
FC001F00
FC001F80
FC001F80
FC001F00
FC003F00
FC007F00
FC00FE00
FFFFFE00
FFFFFC00
FFFFF800
FFFFE000
FFFF8000
ENDCHAR
STARTCHAR C
ENCODING 67
SWIDTH 598 0
DWIDTH 29 0
BBX 25 37 2 -1
BITMAP
003F8000
00FFF000
03FFF800
07FFFC00
0FFFFE00
1FE07F00
1F803F80
3F001F80
3F000F80
7E000E00
7E000000
7C000000
7C000000
FC000000
FC000000
F8000000
F8000000
F8000000
F8000000
F8000000
F8000000
F8000000
FC000000
FC000000
7C000000
7C000000
7E000000
7E000000
3F000C00
3F800F00
1FC03F80
1FE07F00
0FFFFF00
07FFFE00
03FFF800
00FFF000
003F8000
ENDCHAR
STARTCHAR D
ENCODING 68
SWIDTH 598 0
DWIDTH 29 0
BBX 24 35 3 0
BITMAP
FFFC00
FFFF00
FFFFC0
FFFFE0
FFFFF0
F807F8
F801F8
F800FC
F800FC
F8007E
F8007E
F8003E
F8003E
F8003F
F8003F
F8003F
F8003F
F8003F
F8003F
F8003F
F8003F
F8003F
F8003E
F8003E
F8007E
F8007E
F800FC
F800FC
F801F8
F807F0
FFFFF0
FFFFE0
FFFFC0
FFFF00
FFF800
ENDCHAR
STARTCHAR E
ENCODING 69
SWIDTH 598 0
DWIDTH 29 0
BBX 23 35 3 0
BITMAP
FFFFFE
FFFFFE
FFFFFE
FFFFFE
FFFFFE
F80000
F80000
F80000
F80000
F80000
F80000
F80000
F80000
F80000
FFFFF0
FFFFF0
FFFFF0
FFFFF0
FFFFF0
F80000
F80000
F80000
F80000
F80000
F80000
F80000
F80000
F80000
F80000
F80000
FFFFFE
FFFFFE
FFFFFE
FFFFFE
FFFFFE
ENDCHAR
STARTCHAR F
ENCODING 70
SWIDTH 598 0
DWIDTH 29 0
BBX 22 35 4 0
BITMAP
FFFFFC
FFFFFC
FFFFFC
FFFFFC
FFFFFC
F80000
F80000
F80000
F80000
F80000
F80000
F80000
F80000
F80000
FFFFC0
FFFFC0
FFFFC0
FFFFC0
FFFFC0
F80000
F80000
F80000
F80000
F80000
F80000
F80000
F80000
F80000
F80000
F80000
F80000
F80000
F80000
F80000
F80000
ENDCHAR
STARTCHAR G
ENCODING 71
SWIDTH 598 0
DWIDTH 29 0
BBX 25 37 2 -1
BITMAP
003F8000
00FFF000
03FFF800
07FFFC00
0FFFFE00
1FE07F00
1F803F80
3F001F00
3E000E00
7E000C00
7C000000
7C000000
FC000000
F8000000
F8000000
F8000000
F8000000
F8000000
F807FF80
F807FF80
F807FF80
F807FF80
F807FF80
FC000F80
FC000F80
7C000F80
7E000F80
7E000F80
3F000F80
3F000F80
3F801F80
1FE07F80
0FFFFF80
07FFFF00
03FFFE00
00FFF800
003FC000
ENDCHAR
STARTCHAR H
ENCODING 72
SWIDTH 598 0
DWIDTH 29 0
BBX 23 35 3 0
BITMAP
FC007E
FC007E
F8007E
F8007E
F8007E
F8007E
F8007E
F8007E
F8007E
F8007E
F8007E
F8007E
F8007E
F8007E
FFFFFE
FFFFFE
FFFFFE
FFFFFE
FFFFFE
F8007E
F8007E
F8007E
F8007E
F8007E
F8007E
F8007E
F8007E
F8007E
F8007E
F8007E
F8007E
F8007E
F8007E
F8007E
F8007E
ENDCHAR
STARTCHAR I
ENCODING 73
SWIDTH 598 0
DWIDTH 29 0
BBX 20 35 4 0
BITMAP
7FFFE0
7FFFE0
7FFFE0
7FFFE0
7FFFE0
01F000
01F000
01F000
01F000
01F000
01F000
01F000
01F000
01F000
01F000
01F000
01F000
01F000
01F000
01F000
01F000
01F000
01F000
01F000
01F000
01F000
01F000
01F000
01F000
01F000
FFFFF0
FFFFF0
FFFFF0
FFFFF0
FFFFF0
ENDCHAR
STARTCHAR J
ENCODING 74
SWIDTH 598 0
DWIDTH 29 0
BBX 25 36 2 -1
BITMAP
01FFFF80
01FFFF80
01FFFF80
01FFFF80
01FFFF80
0003E000
0003E000
0003E000
0003E000
0003E000
0003E000
0003E000
0003E000
0003E000
0003E000
0003E000
0003E000
0003E000
0003E000
0003E000
0003E000
0003E000
0003E000
0003E000
0003E000
0003E000
0003E000
1003E000
1807E000
3807E000
7E0FC000
FFFFC000
7FFF8000
3FFF0000
0FFE0000
03F80000
ENDCHAR
STARTCHAR K
ENCODING 75
SWIDTH 598 0
DWIDTH 29 0
BBX 26 35 2 0
BITMAP
FC003F80
FC003F00
FC007E00
FC00FC00
FC01F800
FC03F000
FC07F000
FC0FE000
FC1FC000
FC1F8000
FC3F0000
FC7E0000
FCFC0000
FDF80000
FFF00000
FFF00000
FFF80000
FFF80000
FEFC0000
FC7E0000
FC7E0000
FC3F0000
FC1F8000
FC1FC000
FC0FC000
FC07E000
FC07F000
FC03F800
FC01F800
FC01FC00
FC00FE00
FC007E00
FC007F00
FC003F80
FC001FC0
ENDCHAR
STARTCHAR L
ENCODING 76
SWIDTH 598 0
DWIDTH 29 0
BBX 23 35 3 0
BITMAP
FC0000
FC0000
FC0000
FC0000
FC0000
FC0000
FC0000
FC0000
FC0000
FC0000
FC0000
FC0000
FC0000
FC0000
FC0000
FC0000
FC0000
FC0000
FC0000
FC0000
FC0000
FC0000
FC0000
FC0000
FC0000
FC0000
FC0000
FC0000
FC0000
FC0000
FFFFFE
FFFFFE
FFFFFE
FFFFFE
FFFFFE
ENDCHAR
STARTCHAR M
ENCODING 77
SWIDTH 598 0
DWIDTH 29 0
BBX 25 35 2 0
BITMAP
F8000F80
F8000F80
FC001F80
FC001F80
FE003F80
FE003F80
FF007F80
FF007F80
FF80FF80
FF80FF80
FFC1FF80
FFC1EF80
FBE3EF80
FBE3CF80
F9F7CF80
F9F78F80
F8FF8F80
F8FF0F80
F87F0F80
F87E0F80
F83C0F80
F83C0F80
F8180F80
F8000F80
F8000F80
F8000F80
F8000F80
F8000F80
F8000F80
F8000F80
F8000F80
F8000F80
F8000F80
F8000F80
F8000F80
ENDCHAR
STARTCHAR N
ENCODING 78
SWIDTH 598 0
DWIDTH 29 0
BBX 23 35 3 0
BITMAP
F8003E
F8003E
FC003E
FC003E
FE003E
FF003E
FF003E
FF803E
FF803E
FFC03E
FFC03E
FBE03E
FBE03E
F9F03E
F9F83E
F8F83E
F87C3E
F87C3E
F83E3E
F83E3E
F81F3E
F81FBE
F80FBE
F80FFE
F807FE
F803FE
F803FE
F801FE
F801FE
F800FE
F800FE
F8007E
F8007E
F8003E
F8001E
ENDCHAR
STARTCHAR O
ENCODING 79
SWIDTH 598 0
DWIDTH 29 0
BBX 26 37 1 -1
BITMAP
003F8000
00FFE000
03FFF800
07FFFC00
0FFFFE00
0FE0FF00
1FC07F00
3F803F80
3F001F80
3E001F80
7E000FC0
7C000FC0
7C000FC0
7C0007C0
7C0007C0
FC0007C0
FC0007C0
FC0007C0
FC0007C0
FC0007C0
FC0007C0
7C0007C0
7C0007C0
7C0007C0
7C0007C0
7E000FC0
7E000FC0
3E000F80
3F001F80
1F803F80
1FC07F00
0FF1FE00
0FFFFE00
07FFFC00
03FFF800
00FFE000
003F8000
ENDCHAR
STARTCHAR P
ENCODING 80
SWIDTH 598 0
DWIDTH 29 0
BBX 24 35 3 0
BITMAP
FFFF00
FFFFE0
FFFFF0
FFFFF8
FFFFFC
F801FC
F800FE
F8007E
F8003E
F8003F
F8003F
F8003E
F8003E
F8007E
F800FE
FFFFFC
FFFFF8
FFFFF0
FFFFE0
FFFF80
F80000
F80000
F80000
F80000
F80000
F80000
F80000
F80000
F80000
F80000
F80000
F80000
F80000
F80000
F80000
ENDCHAR
STARTCHAR Q
ENCODING 81
SWIDTH 598 0
DWIDTH 29 0
BBX 26 44 1 -8
BITMAP
003F8000
00FFE000
03FFF800
07FFFC00
0FFFFE00
0FE0FE00
1F807F00
3F003F80
3F001F80
3E000F80
7E000FC0
7C000FC0
7C0007C0
7C0007C0
7C0007C0
FC0007C0
FC0007C0
FC0007C0
FC0007C0
FC0007C0
FC0007C0
7C0007C0
7C0007C0
7C0007C0
7C0007C0
7E000FC0
3E000F80
3F001F80
3F001F80
1F803F00
1FE0FF00
0FFFFE00
07FFFC00
03FFF800
01FFF000
007FC000
001F0000
001F0000
000F8000
000FFF80
000FFF80
0007FF80
0003FF80
0000FF80
ENDCHAR
STARTCHAR R
ENCODING 82
SWIDTH 598 0
DWIDTH 29 0
BBX 24 35 3 0
BITMAP
FFFF00
FFFFC0
FFFFF0
FFFFF8
FFFFFC
F803FC
F800FC
F8007E
F8007E
F8003E
F8003E
F8007E
F8007E
F800FC
F801FC
FFFFF8
FFFFF8
FFFFF0
FFFFC0
FFFF00
F81F80
F80F80
F80FC0
F807C0
F807E0
F803F0
F803F0
F801F8
F801F8
F800FC
F800FC
F8007E
F8007E
F8003F
F8003F
ENDCHAR
STARTCHAR S
ENCODING 83
SWIDTH 598 0
DWIDTH 29 0
BBX 24 37 3 -1
BITMAP
00FF00
03FFC0
0FFFF0
1FFFF8
3FFFFC
3F00FC
7E0078
7C0038
7C0010
7C0000
7E0000
7E0000
7F0000
3FC000
1FF000
0FFC00
07FF00
03FFC0
00FFF0
003FF8
0007FC
0001FC
0000FE
00007E
00003E
00003E
20003F
30003E
70003E
78007E
FC00FE
FF03FC
FFFFFC
7FFFF8
3FFFF0
0FFFC0
01FE00
ENDCHAR
STARTCHAR T
ENCODING 84
SWIDTH 598 0
DWIDTH 29 0
BBX 26 35 1 0
BITMAP
FFFFFFC0
FFFFFFC0
FFFFFFC0
FFFFFFC0
FFFFFFC0
003F0000
003F0000
003F0000
003F0000
003F0000
003F0000
003F0000
003F0000
003F0000
003F0000
003F0000
003F0000
003F0000
003F0000
003F0000
003F0000
003F0000
003F0000
003F0000
003F0000
003F0000
003F0000
003F0000
003F0000
003F0000
003F0000
003F0000
003F0000
003F0000
003F0000
ENDCHAR
STARTCHAR U
ENCODING 85
SWIDTH 598 0
DWIDTH 29 0
BBX 23 36 3 -1
BITMAP
F8003E
F8003E
F8003E
F8003E
F8003E
F8003E
F8003E
F8003E
F8003E
F8003E
F8003E
F8003E
F8003E
F8003E
F8003E
F8003E
F8003E
F8003E
F8003E
F8003E
F8003E
F8003E
F8003E
F8003E
F8003E
F8003E
F8003E
F8003E
FC007E
FE00FC
7F01FC
3FFFF8
3FFFF0
0FFFE0
07FFC0
00FE00
ENDCHAR
STARTCHAR V
ENCODING 86
SWIDTH 598 0
DWIDTH 29 0
BBX 27 36 1 -1
BITMAP
FC0003E0
FC0007E0
7C0007C0
7E0007C0
7E000FC0
3E000F80
3F000F80
3F001F80
1F001F00
1F801F00
1F803F00
0F803E00
0FC03E00
0FC03E00
07C07C00
07C07C00
03E07C00
03E0F800
03E0F800
01F0F800
01F1F000
01F1F000
00F9F000
00F9E000
00FBE000
007FE000
007FC000
007FC000
003FC000
003F8000
003F8000
001F8000
001F0000
001F0000
000E0000
000E0000
ENDCHAR
STARTCHAR W
ENCODING 87
SWIDTH 598 0
DWIDTH 29 0
BBX 27 36 1 -1
BITMAP
F80001E0
F80001E0
F80003E0
F80603E0
F80F03E0
FC0F03E0
7C0F03C0
7C0F03C0
7C1F83C0
7C1F87C0
7C1F87C0
7C3F87C0
3E3FC780
3E3FC780
3E3FC780
3E7BC780
3E7BE780
3E7BEF80
1F79EF80
1FF1FF00
1FF1FF00
1FF1FF00
1FF0FF00
1FE0FF00
0FE0FF00
0FE0FE00
0FE07E00
0FC07E00
0FC07E00
0FC07E00
0FC03E00
07803C00
07803C00
07803C00
07801C00
07001C00
ENDCHAR
STARTCHAR X
ENCODING 88
SWIDTH 598 0
DWIDTH 29 0
BBX 25 35 2 0
BITMAP
FC001F00
7C003F00
7E003E00
3E007E00
3F007C00
1F80FC00
1F80F800
0FC1F800
0FC1F000
07E3F000
03E7E000
03F7C000
01FFC000
01FF8000
00FF8000
00FF0000
007F0000
007F0000
007F0000
00FF8000
00FF8000
01FFC000
03F7E000
03F7E000
07E3F000
07E3F000
0FC1F800
0F80F800
1F80FC00
1F007E00
3F007E00
7E003F00
7E003F00
FC001F80
FC001F80
ENDCHAR
STARTCHAR Y
ENCODING 89
SWIDTH 598 0
DWIDTH 29 0
BBX 27 35 1 0
BITMAP
FC0007E0
7E0007C0
7E000FC0
3F000F80
3F001F80
1F801F00
1F803F00
0FC03E00
0FC07E00
07E07C00
07E0FC00
03F0F800
03F0F800
01F9F000
01F9F000
00FFE000
007FE000
007FC000
003FC000
003FC000
001F8000
001F8000
001F8000
001F8000
001F8000
001F8000
001F8000
001F8000
001F8000
001F8000
001F8000
001F8000
001F8000
001F8000
001F8000
ENDCHAR
STARTCHAR Z
ENCODING 90
SWIDTH 598 0
DWIDTH 29 0
BBX 24 35 3 0
BITMAP
FFFFFE
FFFFFE
FFFFFE
FFFFFE
FFFFFC
0000FC
0001F8
0001F8
0003F0
0003E0
0007E0
000FC0
000F80
001F80
003F00
003F00
007E00
00FC00
00FC00
01F800
01F000
03F000
07E000
07E000
0FC000
1F8000
1F8000
3F0000
7E0000
7E0000
FFFFFF
FFFFFF
FFFFFF
FFFFFF
FFFFFF
ENDCHAR
STARTCHAR bracketleft
ENCODING 91
SWIDTH 598 0
DWIDTH 29 0
BBX 17 42 7 -5
BITMAP
FFFF80
FFFF80
FFFF80
FFFF80
FFFF80
F80000
F80000
F80000
F80000
F80000
F80000
F80000
F80000
F80000
F80000
F80000
F80000
F80000
F80000
F80000
F80000
F80000
F80000
F80000
F80000
F80000
F80000
F80000
F80000
F80000
F80000
F80000
F80000
F80000
F80000
F80000
F80000
FFFF80
FFFF80
FFFF80
FFFF80
FFFF80
ENDCHAR
STARTCHAR backslash
ENCODING 92
SWIDTH 598 0
DWIDTH 29 0
BBX 23 40 3 -3
BITMAP
080000
380000
FC0000
7C0000
7E0000
3E0000
3F0000
1F0000
1F8000
0F8000
0FC000
07C000
07E000
07E000
03F000
03F000
01F800
01F800
00FC00
00FC00
007E00
007E00
003F00
003F00
001F00
001F80
000F80
000FC0
0007C0
0007E0
0003E0
0003F0
0001F0
0001F8
0000F8
0000FC
00007C
00007E
000078
000020
ENDCHAR
STARTCHAR bracketright
ENCODING 93
SWIDTH 598 0
DWIDTH 29 0
BBX 18 42 4 -5
BITMAP
FFFFC0
FFFFC0
FFFFC0
FFFFC0
FFFFC0
0007C0
0007C0
0007C0
0007C0
0007C0
0007C0
0007C0
0007C0
0007C0
0007C0
0007C0
0007C0
0007C0
0007C0
0007C0
0007C0
0007C0
0007C0
0007C0
0007C0
0007C0
0007C0
0007C0
0007C0
0007C0
0007C0
0007C0
0007C0
0007C0
0007C0
0007C0
0007C0
FFFFC0
FFFFC0
FFFFC0
FFFFC0
FFFFC0
ENDCHAR
STARTCHAR asciicircum
ENCODING 94
SWIDTH 598 0
DWIDTH 29 0
BBX 19 16 5 19
BITMAP
00E000
00F000
01F000
03F800
03F800
07FC00
0FFE00
0FBE00
1F1F00
3F1F00
3E0F80
7C0FC0
7C07C0
F807E0
780380
100200
ENDCHAR
STARTCHAR underscore
ENCODING 95
SWIDTH 598 0
DWIDTH 29 0
BBX 25 5 2 -6
BITMAP
FFFFFF80
FFFFFF80
FFFFFF80
FFFFFF80
FFFFFF80
ENDCHAR
STARTCHAR grave
ENCODING 96
SWIDTH 598 0
DWIDTH 29 0
BBX 10 22 7 15
BITMAP
8000
C000
E000
E000
F000
F000
F800
FC00
FC00
FE00
7F00
7F00
3F00
1F80
1F80
0F80
0F80
0780
0380
03C0
01C0
0080
ENDCHAR
STARTCHAR a
ENCODING 97
SWIDTH 598 0
DWIDTH 29 0
BBX 23 27 2 -1
BITMAP
007F00
03FFE0
0FFFF0
1FFFF8
1FFFFC
0F80FE
0E007E
04003E
00003E
00003E
00007E
01FFFE
07FFFE
1FFFFE
3FFFFE
3F803E
7E003E
7C003E
7C003E
FC007E
7C00FE
7E03FE
7FFFFE
3FFFFE
1FFFFE
0FFF3E
03FC00
ENDCHAR
STARTCHAR b
ENCODING 98
SWIDTH 598 0
DWIDTH 29 0
BBX 24 38 3 -1
BITMAP
FC0000
FC0000
FC0000
FC0000
FC0000
FC0000
FC0000
FC0000
FC0000
FC0000
FC0000
FC3F00
FDFFC0
FFFFE0
FFFFF0
FFFFF8
FF83FC
FE00FC
FC00FE
FC007E
FC007E
FC003E
FC003F
FC003F
FC003F
FC003F
FC003E
FC003E
FC007E
FC007E
FC00FE
FE00FC
FF83FC
FFFFF8
FFFFF0
F3FFE0
F1FFC0
007F00
ENDCHAR
STARTCHAR c
ENCODING 99
SWIDTH 598 0
DWIDTH 29 0
BBX 24 27 3 -1
BITMAP
007F80
01FFE0
07FFF8
0FFFFC
1FFFFE
3FC0FF
3F003E
7E001C
7E0018
FC0000
FC0000
FC0000
F80000
F80000
FC0000
FC0000
FC0000
FC0000
7E0000
7F0018
3F803C
3FE0FE
1FFFFE
0FFFFC
07FFF8
01FFE0
007F80
ENDCHAR
STARTCHAR d
ENCODING 100
SWIDTH 598 0
DWIDTH 29 0
BBX 24 38 2 -1
BITMAP
00003F
00003F
00003F
00003F
00003F
00003F
00003F
00003F
00003F
00003F
00003F
00FE3F
03FFBF
07FFFF
0FFFFF
1FFFFF
3F81FF
3F00FF
7E007F
7C003F
7C003F
FC003F
FC003F
FC003F
FC003F
FC003F
FC003F
FC003F
7C003F
7E007F
7E007F
3F00FF
3FC3FF
1FFFFF
1FFFFF
0FFFFF
03FF3F
00FC00
ENDCHAR
STARTCHAR e
ENCODING 101
SWIDTH 598 0
DWIDTH 29 0
BBX 24 27 2 -1
BITMAP
007F00
01FFE0
07FFF0
0FFFF8
1FFFFC
1F80FC
3F007E
3E003E
7E003E
7C003F
7FFFFF
7FFFFF
FFFFFF
FFFFFF
FFFFFF
FC0000
7C0000
7C0000
7E0000
7E0008
3F001C
3FC07E
1FFFFE
0FFFFC
07FFF8
01FFF0
003F80
ENDCHAR
STARTCHAR f
ENCODING 102
SWIDTH 598 0
DWIDTH 29 0
BBX 25 37 3 0
BITMAP
0007F000
001FFC00
007FFF00
00FFFF80
01FFFF80
01F80F00
03F00700
03F00600
03E00000
03E00000
03E00000
03E00000
03E00000
FFFFE000
FFFFE000
FFFFE000
FFFFE000
03E00000
03E00000
03E00000
03E00000
03E00000
03E00000
03E00000
03E00000
03E00000
03E00000
03E00000
03E00000
03E00000
03E00000
03E00000
03E00000
03E00000
03E00000
03E00000
03E00000
ENDCHAR
STARTCHAR g
ENCODING 103
SWIDTH 598 0
DWIDTH 29 0
BBX 26 36 2 -10
BITMAP
00FC0F80
03FFBF80
0FFFFF80
1FFFFFC0
1F87FFC0
3E01F000
3E01F800
7C00F800
7C00F800
7C00F800
7E00F800
7E01F800
3F03F000
3FFFF000
1FFFE000
0FFFC000
0FFF8000
1FFC0000
3E000000
3E000000
3F000000
3FFFF000
1FFFFC00
1FFFFE00
3FFFFF00
7E003F00
7C001F00
F8001F00
F8001F00
F8001F00
FE007F00
FFE7FE00
7FFFFC00
3FFFF800
0FFFF000
01FF8000
ENDCHAR
STARTCHAR h
ENCODING 104
SWIDTH 598 0
DWIDTH 29 0
BBX 21 37 4 0
BITMAP
FC0000
FC0000
F80000
F80000
F80000
F80000
F80000
F80000
F80000
F80000
F80000
F83F00
F8FFC0
FBFFE0
FFFFF0
FFFFF0
FFC3F8
FF01F8
FE01F8
FC00F8
F800F8
F800F8
F800F8
F800F8
F800F8
F800F8
F800F8
F800F8
F800F8
F800F8
F800F8
F800F8
F800F8
F800F8
F800F8
F800F8
F800F8
ENDCHAR
STARTCHAR i
ENCODING 105
SWIDTH 598 0
DWIDTH 29 0
BBX 18 37 5 0
BITMAP
00E000
01F800
03F800
03F800
03F800
01F800
00F000
000000
000000
000000
000000
000000
7FF000
7FF000
7FF000
7FF000
7FF000
01F000
01F000
01F000
01F000
01F000
01F000
01F000
01F000
01F000
01F000
01F000
01F000
01F000
01F000
01F000
FFFFC0
FFFFC0
FFFFC0
FFFFC0
FFFFC0
ENDCHAR
STARTCHAR j
ENCODING 106
SWIDTH 598 0
DWIDTH 29 0
BBX 21 47 2 -10
BITMAP
0001E0
0003F0
0003F0
0007F8
0003F0
0003F0
0001E0
000000
000000
000000
000000
000000
07FFF0
07FFF0
07FFF0
07FFF0
07FFF0
0003F0
0003F0
0003F0
0003F0
0003F0
0003F0
0003F0
0003F0
0003F0
0003F0
0003F0
0003F0
0003F0
0003F0
0003F0
0003F0
0003F0
0003F0
0003F0
0003F0
0003F0
1003F0
1803E0
3807E0
7E0FE0
FFFFC0
7FFF80
3FFF00
1FFE00
07F000
ENDCHAR
STARTCHAR k
ENCODING 107
SWIDTH 598 0
DWIDTH 29 0
BBX 25 37 3 0
BITMAP
FC000000
FC000000
FC000000
FC000000
FC000000
FC000000
FC000000
FC000000
FC000000
FC000000
FC000000
FC007F00
FC00FE00
FC01FC00
FC03F800
FC07F000
FC0FC000
FC1F8000
FC3F0000
FC7E0000
FCFC0000
FDF80000
FFF80000
FFFC0000
FF7E0000
FE7F0000
FC3F8000
FC1FC000
FC0FC000
FC0FE000
FC07F000
FC03F800
FC01FC00
FC00FE00
FC00FF00
FC007F00
FC003F80
ENDCHAR
STARTCHAR l
ENCODING 108
SWIDTH 598 0
DWIDTH 29 0
BBX 21 37 4 0
BITMAP
FFF800
FFF800
FFF800
FFF800
FFF800
00F800
00F800
00F800
00F800
00F800
00F800
00F800
00F800
00F800
00F800
00F800
00F800
00F800
00F800
00F800
00F800
00F800
00F800
00F800
00F800
00F800
00F800
00F800
00F800
00F800
00F800
00F800
FFFFF8
FFFFF8
FFFFF8
FFFFF8
FFFFF8
ENDCHAR
STARTCHAR m
ENCODING 109
SWIDTH 598 0
DWIDTH 29 0
BBX 25 26 2 0
BITMAP
01F07C00
FFF9FF00
FFFFFF00
FFFFFF80
FFFF9F80
FC3F0F80
FC3F0F80
F83E0F80
F83E0F80
F83E0F80
F83E0F80
F83E0F80
F83E0F80
F83E0F80
F83E0F80
F83E0F80
F83E0F80
F83E0F80
F83E0F80
F83E0F80
F83E0F80
F83E0F80
F83E0F80
F83E0F80
F83E0F80
F83E0F80
ENDCHAR
STARTCHAR n
ENCODING 110
SWIDTH 598 0
DWIDTH 29 0
BBX 21 26 4 0
BITMAP
003F00
F8FFC0
FBFFE0
FFFFF0
FFFFF0
FF83F8
FF01F8
FE01F8
FC00F8
F800F8
F800F8
F800F8
F800F8
F800F8
F800F8
F800F8
F800F8
F800F8
F800F8
F800F8
F800F8
F800F8
F800F8
F800F8
F800F8
F800F8
ENDCHAR
STARTCHAR o
ENCODING 111
SWIDTH 598 0
DWIDTH 29 0
BBX 25 27 2 -1
BITMAP
007F0000
01FFC000
07FFF000
0FFFF800
1FFFFC00
3FC1FE00
3F007E00
7E003F00
7E003F00
7C001F00
FC001F80
FC001F80
FC001F80
FC001F80
FC001F80
FC001F80
FC001F80
FC001F00
7E003F00
7F003F00
3F807E00
3FC1FE00
1FFFFC00
0FFFF800
07FFF000
01FFE000
007F0000
ENDCHAR
STARTCHAR p
ENCODING 112
SWIDTH 598 0
DWIDTH 29 0
BBX 24 35 3 -9
BITMAP
003F00
FDFFC0
FFFFF0
FFFFF8
FFFFFC
FF83FC
FE00FE
FE007E
FC007E
FC003F
FC003F
FC003F
FC003F
FC003F
FC003F
FC003F
FC003F
FC003E
FC007E
FC007E
FE00FC
FF83FC
FFFFF8
FFFFF0
FFFFE0
FDFFC0
FC7F00
FC0000
FC0000
FC0000
FC0000
FC0000
FC0000
FC0000
FC0000
ENDCHAR
STARTCHAR q
ENCODING 113
SWIDTH 598 0
DWIDTH 29 0
BBX 24 35 2 -9
BITMAP
00FC00
03FF1F
07FFDF
0FFFFF
1FFFFF
3F81FF
3F00FF
7E007F
7C003F
FC003F
FC003F
FC003F
FC003F
FC003F
FC003F
FC003F
FC003F
7C003F
7E003F
7E007F
3F00FF
3FC3FF
1FFFFF
0FFFFF
07FFFF
03FF3F
00FC3F
00003F
00003F
00003F
00003F
00003F
00003F
00003F
00003F
ENDCHAR
STARTCHAR r
ENCODING 114
SWIDTH 598 0
DWIDTH 29 0
BBX 22 26 5 0
BITMAP
001F80
FCFFF0
FDFFF8
FFFFFC
FFFFF8
FFE0F8
FF8030
FF0030
FE0000
FE0000
FC0000
FC0000
FC0000
FC0000
FC0000
FC0000
FC0000
FC0000
FC0000
FC0000
FC0000
FC0000
FC0000
FC0000
FC0000
FC0000
ENDCHAR
STARTCHAR s
ENCODING 115
SWIDTH 598 0
DWIDTH 29 0
BBX 23 27 3 -1
BITMAP
00FF00
07FFC0
0FFFF0
1FFFF8
3FE7FC
3F00FC
3E0078
3E0038
3F0030
3F8000
3FF000
1FFF00
0FFFC0
03FFF0
007FF8
000FFC
0001FC
0000FE
30007E
70007E
7C00FC
FF01FC
FFFFFC
7FFFF8
3FFFF0
0FFFC0
01FF00
ENDCHAR
STARTCHAR t
ENCODING 116
SWIDTH 598 0
DWIDTH 29 0
BBX 22 34 4 -1
BITMAP
001000
03F000
03F000
03F000
03E000
03E000
03E000
03E000
FFFFE0
FFFFE0
FFFFE0
FFFFE0
FFFFE0
07E000
07E000
07E000
07E000
07E000
07E000
07E000
07E000
07E000
07E000
07E000
07E000
07E000
07E000
07E038
07F0F8
03FFFC
03FFFC
01FFF8
00FFE0
003F80
ENDCHAR
STARTCHAR u
ENCODING 117
SWIDTH 598 0
DWIDTH 29 0
BBX 23 26 3 -1
BITMAP
FC007C
FC007C
FC007C
FC007C
FC007C
FC007C
FC007C
FC007C
FC007C
FC007C
FC007C
FC007C
FC007C
FC007C
FC007C
FC007C
FC007C
FC00FC
7C00FC
7E01FC
7F03FC
3FFFFC
3FFFFC
1FFF7C
07FE7E
01F800
ENDCHAR
STARTCHAR v
ENCODING 118
SWIDTH 598 0
DWIDTH 29 0
BBX 25 26 2 -1
BITMAP
FC000F80
FC001F00
7C001F00
7E001F00
7E001F00
3E003E00
3F003E00
1F003E00
1F807C00
0F807C00
0F80F800
0FC0F800
07C0F000
07E1F000
03E1E000
03E3E000
03F3E000
01F7C000
01FFC000
00FF8000
00FF8000
00FF0000
007F0000
007E0000
003E0000
003E0000
ENDCHAR
STARTCHAR w
ENCODING 119
SWIDTH 598 0
DWIDTH 29 0
BBX 27 25 1 0
BITMAP
F80003E0
F80003E0
F80E03E0
F80F03E0
F81F03C0
7C1F03C0
7C1F87C0
7C1F87C0
7C3F87C0
3C3FC7C0
3E3FC780
3E3BC780
3E7BC780
3E7BE780
1E79EF80
1F71EF80
1FF1FF00
1FF0FF00
1FE0FF00
0FE0FF00
0FE0FF00
0FE07E00
0FC07E00
07C07E00
07C03E00
ENDCHAR
STARTCHAR x
ENCODING 120
SWIDTH 598 0
DWIDTH 29 0
BBX 25 25 2 0
BITMAP
FC003F00
7E007E00
3F007C00
3F80FC00
1F81F800
0FC3F000
07E3E000
07E7E000
03FFC000
01FF8000
00FF8000
007F0000
007F0000
00FF0000
00FF8000
01FFC000
03F7E000
07E7E000
07C3F000
0FC1F800
1F80FC00
3F00FE00
3F007E00
7E003F00
FC001F80
ENDCHAR
STARTCHAR y
ENCODING 121
SWIDTH 598 0
DWIDTH 29 0
BBX 26 35 1 -10
BITMAP
7F000FC0
3F000FC0
3F000F80
3F000F80
1F801F80
1F801F00
0F801F00
0FC03F00
07C03E00
07E03E00
07E07C00
03E07C00
03F07C00
01F0F800
01F0F800
00F8F000
00F9F000
00FDF000
007FE000
007FE000
003FC000
003FC000
001FC000
001F8000
001F8000
001F0000
001F0000
003F0000
303E0000
707E0000
7FFC0000
FFFC0000
FFF80000
7FE00000
1F800000
ENDCHAR
STARTCHAR z
ENCODING 122
SWIDTH 598 0
DWIDTH 29 0
BBX 23 25 3 0
BITMAP
7FFFFC
7FFFFC
7FFFFC
7FFFFC
7FFFF8
0003F0
0007E0
000FC0
001F80
003F80
007F00
007E00
00FC00
01F800
03F000
07E000
0FC000
1FC000
3F8000
7F0000
FFFFFE
FFFFFE
FFFFFE
FFFFFE
FFFFFE
ENDCHAR
STARTCHAR braceleft
ENCODING 123
SWIDTH 598 0
DWIDTH 29 0
BBX 21 46 3 -10
BITMAP
0003F8
001FF8
007FF8
00FFF8
01FFF8
01F800
03F000
03E000
03E000
03E000
03E000
03E000
03E000
03E000
03E000
03E000
03E000
07E000
07C000
FFC000
FF8000
FF0000
FF0000
FF8000
0FC000
07C000
07E000
03E000
03E000
03E000
03E000
03E000
03E000
03E000
03E000
03E000
03E000
03E000
03E000
03F000
03F800
01FFF8
01FFF8
00FFF8
007FF8
001FF8
ENDCHAR
STARTCHAR bar
ENCODING 124
SWIDTH 598 0
DWIDTH 29 0
BBX 5 46 12 -9
BITMAP
F8
F8
F8
F8
F8
F8
F8
F8
F8
F8
F8
F8
F8
F8
F8
F8
F8
F8
F8
F8
F8
F8
F8
F8
F8
F8
F8
F8
F8
F8
F8
F8
F8
F8
F8
F8
F8
F8
F8
F8
F8
F8
F8
F8
F8
F8
ENDCHAR
STARTCHAR braceright
ENCODING 125
SWIDTH 598 0
DWIDTH 29 0
BBX 21 46 5 -10
BITMAP
FC0000
FFC000
FFF000
FFF800
FFF800
00FC00
007C00
007E00
003E00
003E00
003E00
003E00
003E00
007E00
007E00
003E00
003E00
003E00
003F00
001FF8
000FF8
0007F8
000FF8
001FF8
001F80
003F00
003E00
003E00
003E00
003E00
003E00
003E00
003E00
003E00
003E00
003E00
003E00
003E00
007E00
007E00
00FC00
FFFC00
FFF800
FFF800
FFE000
FF8000
ENDCHAR
STARTCHAR asciitilde
ENCODING 126
SWIDTH 598 0
DWIDTH 29 0
BBX 26 8 2 18
BITMAP
07F00000
1FFC0780
7FFF1FC0
FFFFFF80
FFFFFF00
7C3FFE00
100FFC00
0003F000
ENDCHAR
STARTCHAR uni0080
ENCODING 128
SWIDTH 598 0
DWIDTH 29 0
BBX 5 32 12 -2
BITMAP
20
20
20
20
20
20
20
20
20
70
F8
F8
F0
F0
F0
F0
F0
F8
F8
F8
F8
F0
F0
F0
F0
F0
20
20
20
20
20
20
ENDCHAR
STARTCHAR uni0081
ENCODING 129
SWIDTH 598 0
DWIDTH 29 0
BBX 6 44 11 -7
BITMAP
10
10
38
38
38
38
38
38
38
38
30
30
30
30
30
30
30
7C
FC
7C
7C
7C
7C
7C
7C
7C
7C
7C
7C
7C
7C
78
78
78
78
78
78
78
38
30
30
10
10
10
ENDCHAR
STARTCHAR uni0082
ENCODING 130
SWIDTH 598 0
DWIDTH 29 0
BBX 21 46 4 -7
BITMAP
080100
0C0100
0C0300
0C0300
0C0300
0C0300
0C0300
0C0300
0C0300
0C0300
0C0300
0C0300
0C0300
0C0300
FFFFF8
FFFFF8
FFFFF8
FE03F8
FE03F8
FE03F0
FE03F0
7E03F0
7E03F0
7E03F0
7E03F0
7E03F0
7E03F0
7E03F0
7E03F0
FE03F0
FE03F8
FE03F8
3FFFE0
3FFFE0
3FFFE0
3FFFE0
3FFFE0
3FFFE0
3FFFE0
3FFFE0
3FFFC0
3FFFC0
3FFFC0
1FFFC0
00F800
00F800
ENDCHAR
STARTCHAR uni0083
ENCODING 131
SWIDTH 598 0
DWIDTH 29 0
BBX 24 24 3 1
BITMAP
180018
3C003C
7E007E
FF00FF
FF81FF
7FC3FF
3FE7FE
1FFFFC
0FFFF8
07FFF0
03FFE0
01FFC0
01FF80
03FFC0
07FFE0
0FFFF0
1FFFF8
3FF7FC
7FE3FE
FFC1FF
FF80FF
7F007F
3E003E
1C001C
ENDCHAR
STARTCHAR uni008C
ENCODING 140
SWIDTH 598 0
DWIDTH 29 0
BBX 20 27 4 -1
BITMAP
FFFFF0
FFFFF0
FFFFF0
FFFFF0
3FFFE0
3FFFE0
3FFFE0
3FFFE0
1FFFC0
0FFF80
07FF00
07FE00
03FC00
01F800
01FC00
03FE00
07FF00
0FFF80
1FFFC0
3FFFE0
3FFFE0
3FFFE0
3FFFE0
FFFFF0
FFFFF0
FFFFF0
FFFFF0
ENDCHAR
STARTCHAR uni008D
ENCODING 141
SWIDTH 598 0
DWIDTH 29 0
BBX 26 28 1 0
BITMAP
FFFC0000
FFFC0000
001C0000
00380000
00700000
00E00000
01C00000
0380FFC0
0700FFC0
0E000180
1C000380
38000700
70000E00
FFFE1C00
FFFE3800
00007000
0000FFC0
0000FFC0
00000000
03FC0000
03FC0000
00180000
00380000
00700000
00E00000
01C00000
03FE0000
03FE0000
ENDCHAR
STARTCHAR uni008E
ENCODING 142
SWIDTH 598 0
DWIDTH 29 0
BBX 25 36 2 -6
BITMAP
003C0000
003C0000
003C0000
003C0000
003C0000
003C0000
003C0000
003C0000
003C0000
003C0000
003C0000
003C0000
003C0000
003C0000
003C0000
003C0000
303C0600
783C0F00
FC3C1F80
7E3C3F00
3F3C7E00
1FBCFC00
0FFDF800
07FFF000
03FFE000
01FFC000
00FF8000
007F0000
003E0000
001C0000
00080000
00000000
7FFFFE00
7FFFFE00
7FFFFE00
7FFFFE00
ENDCHAR
STARTCHAR uni008F
ENCODING 143
SWIDTH 598 0
DWIDTH 29 0
BBX 27 27 1 0
BITMAP
007F8000
01FFF000
07FFF800
0FFFFE00
1FF1FF00
3F803F00
3F001F80
7E000FC0
7C0007C0
F81E03C0
F83F83E0
F87F83E0
F07FC3E0
F07FC3E0
F07FC3E0
F07FC3E0
F83F83E0
F81F03C0
7C0007C0
7E000FC0
3E001F80
3F803F80
1FF1FF00
0FFFFE00
07FFFC00
01FFF000
007FC000
ENDCHAR
STARTCHAR uni0090
ENCODING 144
SWIDTH 598 0
DWIDTH 29 0
BBX 21 41 4 -4
BITMAP
003FE0
007FE0
007FC0
00FFC0
00FF80
01FF80
01FF00
03FF00
03FE00
07FE00
07FC00
0FFC00
0FF800
1FFFF0
1FFFF8
3FFFF0
3FFFE0
7FFFE0
7FFFC0
FFFF80
007F80
00FF00
00FE00
00FE00
00FC00
01FC00
01F800
01F000
03F000
03E000
03C000
03C000
078000
070000
070000
0E0000
0C0000
0C0000
080000
100000
100000
ENDCHAR
STARTCHAR uni0091
ENCODING 145
SWIDTH 598 0
DWIDTH 29 0
BBX 18 43 5 -6
BITMAP
00E000
03F800
07B800
060C00
0E0C00
0E0C00
0E0C00
0E0C00
0E0C00
0E0C00
0CEC00
0CEC00
0CEC00
0CEC00
0CEC00
0CEC00
0CEC00
0CEC00
0CEC00
0CEC00
0CEC00
0CEC00
0CEC00
0CEC00
0CEC00
0CEC00
0CEE00
1CEF00
38E780
73F180
67F9C0
67FCC0
EFFCC0
CFFEC0
CFFEC0
EFFEC0
6FFCC0
67FDC0
73F980
38E380
1E0F00
0FFC00
03F800
ENDCHAR
STARTCHAR uni0092
ENCODING 146
SWIDTH 598 0
DWIDTH 29 0
BBX 27 25 1 1
BITMAP
001F0000
003F8000
00738000
0071C000
00E0C000
00E0E000
01C06000
018C7000
038C3800
070C3800
070C1C00
0E0C1C00
0E0C0E00
1C0C0600
1C000700
38000300
30000380
700C0180
E00C01C0
E00000C0
C00000E0
C00000E0
FFFFFFE0
7FFFFFC0
047FF800
ENDCHAR
STARTCHAR uni0096
ENCODING 150
SWIDTH 598 0
DWIDTH 29 0
BBX 29 9 0 -9
BITMAP
FFFFFFF8
FFFFFFF8
FFFFFFF8
FFFFFFF8
FFFFFFF8
FFFFFFF8
FFFFFFF8
FFFFFFF8
FFFFFFF8
ENDCHAR
STARTCHAR uni0097
ENCODING 151
SWIDTH 598 0
DWIDTH 29 0
BBX 29 18 0 -9
BITMAP
FFFFFFF8
FFFFFFF8
FFFFFFF8
FFFFFFF8
FFFFFFF8
FFFFFFF8
FFFFFFF8
FFFFFFF8
FFFFFFF8
FFFFFFF8
FFFFFFF8
FFFFFFF8
FFFFFFF8
FFFFFFF8
FFFFFFF8
FFFFFFF8
FFFFFFF8
FFFFFFF8
ENDCHAR
STARTCHAR uni0098
ENCODING 152
SWIDTH 598 0
DWIDTH 29 0
BBX 29 27 0 -8
BITMAP
FFFFFFF8
FFFFFFF8
FFFFFFF8
FFFFFFF8
FFFFFFF8
FFFFFFF8
FFFFFFF8
FFFFFFF8
FFFFFFF8
FFFFFFF8
FFFFFFF8
FFFFFFF8
FFFFFFF8
FFFFFFF8
FFFFFFF8
FFFFFFF8
FFFFFFF8
FFFFFFF8
FFFFFFF8
FFFFFFF8
FFFFFFF8
FFFFFFF8
FFFFFFF8
FFFFFFF8
FFFFFFF8
FFFFFFF8
FFFFFFF8
ENDCHAR
STARTCHAR uni0099
ENCODING 153
SWIDTH 598 0
DWIDTH 29 0
BBX 29 37 0 -9
BITMAP
FFFFFFF8
FFFFFFF8
FFFFFFF8
FFFFFFF8
FFFFFFF8
FFFFFFF8
FFFFFFF8
FFFFFFF8
FFFFFFF8
FFFFFFF8
FFFFFFF8
FFFFFFF8
FFFFFFF8
FFFFFFF8
FFFFFFF8
FFFFFFF8
FFFFFFF8
FFFFFFF8
FFFFFFF8
FFFFFFF8
FFFFFFF8
FFFFFFF8
FFFFFFF8
FFFFFFF8
FFFFFFF8
FFFFFFF8
FFFFFFF8
FFFFFFF8
FFFFFFF8
FFFFFFF8
FFFFFFF8
FFFFFFF8
FFFFFFF8
FFFFFFF8
FFFFFFF8
FFFFFFF8
FFFFFFF8
ENDCHAR
STARTCHAR uni009A
ENCODING 154
SWIDTH 598 0
DWIDTH 29 0
BBX 29 47 0 -9
BITMAP
FFFFFFF8
FFFFFFF8
FFFFFFF8
FFFFFFF8
FFFFFFF8
FFFFFFF8
FFFFFFF8
FFFFFFF8
FFFFFFF8
FFFFFFF8
FFFFFFF8
FFFFFFF8
FFFFFFF8
FFFFFFF8
FFFFFFF8
FFFFFFF8
FFFFFFF8
FFFFFFF8
FFFFFFF8
FFFFFFF8
FFFFFFF8
FFFFFFF8
FFFFFFF8
FFFFFFF8
FFFFFFF8
FFFFFFF8
FFFFFFF8
FFFFFFF8
FFFFFFF8
FFFFFFF8
FFFFFFF8
FFFFFFF8
FFFFFFF8
FFFFFFF8
FFFFFFF8
FFFFFFF8
FFFFFFF8
FFFFFFF8
FFFFFFF8
FFFFFFF8
FFFFFFF8
FFFFFFF8
FFFFFFF8
FFFFFFF8
FFFFFFF8
FFFFFFF8
FFFFFFF8
ENDCHAR
STARTCHAR nonbreakingspace
ENCODING 160
SWIDTH 598 0
DWIDTH 29 0
BBX 1 1 0 0
BITMAP
00
ENDCHAR
STARTCHAR exclamdown
ENCODING 161
SWIDTH 598 0
DWIDTH 29 0
BBX 8 38 10 -1
BITMAP
3C
7E
FF
FF
FF
FE
7E
3C
00
00
00
00
3C
3C
3C
7C
7C
7C
7C
7C
7C
7C
7E
7E
7E
7E
7E
7E
FE
FE
FE
FE
FE
FE
FE
7E
7C
18
ENDCHAR
STARTCHAR cent
ENCODING 162
SWIDTH 598 0
DWIDTH 29 0
BBX 24 40 2 -4
BITMAP
0003C0
0003E0
0007C0
0007C0
0007C0
0007C0
0007C0
007FE0
01FFF8
07FFFC
0FFFFE
1FEFFF
1F8FBF
3F0F8E
3E0F8C
7E0F84
7C0F80
7C1F00
7C1F00
FC1F00
FC1F00
FC1F00
7C1F00
7C1F00
7E1E00
7E1E00
3F3E04
3FBE1E
1FFE7E
0FFFFF
07FFFE
03FFFC
00FFF0
007FC0
007C00
007C00
007C00
007C00
007C00
007800
ENDCHAR
STARTCHAR sterling
ENCODING 163
SWIDTH 598 0
DWIDTH 29 0
BBX 25 36 2 -1
BITMAP
001FC000
007FF000
01FFFC00
03FFFE00
03FFFC00
07E07800
07C03000
0FC00000
0F800000
0F800000
0F800000
0F800000
0F800000
3FFE0000
3FFE0000
3FFE0000
3FFE0000
3FFE0000
07E00000
03E00000
03E00000
03E00000
03E00000
03E00000
03E00000
03E00000
07E00000
07C00000
0FC00000
0FF80100
3FFF0700
FFFFFF80
FFFFFF80
7FFFFF80
7807FF00
6001FC00
ENDCHAR
STARTCHAR currency
ENCODING 164
SWIDTH 598 0
DWIDTH 29 0
BBX 21 22 4 8
BITMAP
200020
700070
F9F8F8
FFFFF8
7FFFF0
3FFFE0
3FFFE0
3E07E0
7C03E0
7C01F0
7C01F0
7C01F0
7C01F0
7C03E0
3E07E0
3FFFE0
3FFFE0
7FFFF0
FFFFF8
F9FCF8
700070
000020
ENDCHAR
STARTCHAR yen
ENCODING 165
SWIDTH 598 0
DWIDTH 29 0
BBX 25 35 2 0
BITMAP
FC000F80
FC001F80
7E001F00
7E003F00
3F003E00
3F007E00
1F807C00
0F80FC00
0FC0F800
07C1F000
07E1F000
03F3E000
01F3E000
01FFC000
00FFC000
00FF8000
007F8000
007F0000
003F0000
3FFFFE00
3FFFFE00
3FFFFE00
3FFFFE00
3FFFFE00
003E0000
3FFFFE00
3FFFFE00
3FFFFE00
3FFFFE00
3FFFFE00
003E0000
003E0000
003E0000
003E0000
003E0000
ENDCHAR
STARTCHAR brokenbar
ENCODING 166
SWIDTH 598 0
DWIDTH 29 0
BBX 5 45 12 -8
BITMAP
F8
F8
F8
F8
F8
F8
F8
F8
F8
F8
F8
F8
F8
F8
F8
F8
F8
F8
F8
F8
F8
00
00
00
00
F8
F8
F8
F8
F8
F8
F8
F8
F8
F8
F8
F8
F8
F8
F8
F8
F8
F8
F8
F8
ENDCHAR
STARTCHAR section
ENCODING 167
SWIDTH 598 0
DWIDTH 29 0
BBX 21 40 3 -3
BITMAP
00FE00
03FF80
07FFE0
0FFFF0
1FFFF8
3F81F8
3F00F8
3F00E0
3E00C0
3F0000
3F8000
1FC000
1FF800
0FFE00
0FFFC0
1FFFE0
3E3FF0
3E07F8
7E01F8
7E01F8
7E00F8
3F80F8
3FE1F8
1FFDF0
0FFFE0
03FFC0
00FFE0
000FF0
0003F0
0001F8
0001F8
1801F8
3C01F8
7E03F8
FF07F0
7FFFF0
3FFFE0
1FFFC0
07FF80
01FC00
ENDCHAR
STARTCHAR dieresis
ENCODING 168
SWIDTH 598 0
DWIDTH 29 0
BBX 18 7 5 30
BITMAP
3C0780
7E0FC0
7E1FC0
FF1FC0
7E1FC0
7E0FC0
3C0780
ENDCHAR
STARTCHAR copyright
ENCODING 169
SWIDTH 598 0
DWIDTH 29 0
BBX 28 30 1 -1
BITMAP
001F8000
00FFF000
03FFF800
07FFFE00
0FE07F00
1F9F9F80
3E7FEF80
7CFFF7C0
79FFFBE0
FBF0F9E0
F3E07DE0
F7C078F0
F7C020F0
F7C000F0
F7C000F0
F7C000F0
F7C020F0
F3E070F0
F3F0FDE0
F1FFF9E0
78FFF1E0
787FE3C0
7C3FC7C0
3E000F80
1F001F80
0FC07F00
07FFFE00
03FFFC00
00FFF000
003F8000
ENDCHAR
STARTCHAR ordfeminine
ENCODING 170
SWIDTH 598 0
DWIDTH 29 0
BBX 21 27 4 8
BITMAP
01FC00
07FF00
0FFF80
1FFFC0
1F8FC0
0E07E0
0403E0
0003E0
01FFE0
07FFE0
1FFFE0
3FFFE0
3F83E0
3E03E0
7C03E0
7E07E0
3FBFE0
3FFFE0
1FFFE0
0FFFE0
03F3E0
000000
000000
FFFFF8
FFFFF8
FFFFF8
FFFFF8
ENDCHAR
STARTCHAR guillemotleft
ENCODING 171
SWIDTH 598 0
DWIDTH 29 0
BBX 22 20 4 3
BITMAP
008020
01C070
03E0F8
07F1FC
0FE3F8
1FC7F0
3F8FE0
7F1FC0
FC3F00
F83E00
FC3F00
FE1F80
7F0FC0
3F87E0
1FC7F0
0FE3F8
07F1FC
03F0FC
01E078
00C030
ENDCHAR
STARTCHAR logicalnot
ENCODING 172
SWIDTH 598 0
DWIDTH 29 0
BBX 19 12 5 8
BITMAP
FFFFE0
FFFFE0
FFFFE0
FFFFE0
FFFFE0
0003E0
0003E0
0003E0
0003E0
0003E0
0003E0
0003E0
ENDCHAR
STARTCHAR softhyphen
ENCODING 173
SWIDTH 598 0
DWIDTH 29 0
BBX 21 5 4 16
BITMAP
FFFFF8
FFFFF8
FFFFF8
FFFFF8
FFFFF8
ENDCHAR
STARTCHAR registered
ENCODING 174
SWIDTH 598 0
DWIDTH 29 0
BBX 28 30 1 -1
BITMAP
001F8000
00FFE000
03FFF800
07FFFE00
0FE07F00
1F801F80
3FFF8F80
7DFFE7C0
79FFF3C0
F9E0F1E0
F1E079E0
F1E078E0
F1FFF8F0
F1FFF0F0
F1FFF0F0
F1FFE0F0
F1E3C0F0
F1E1E0F0
F1E1E0E0
F9E0F1E0
F9E0F1E0
7DE07BC0
7FE07FC0
3F000F80
1FC03F80
1FFFFF00
07FFFE00
03FFFC00
00FFF000
003F8000
ENDCHAR
STARTCHAR macron
ENCODING 175
SWIDTH 598 0
DWIDTH 29 0
BBX 15 5 7 30
BITMAP
FFFE
FFFE
FFFE
FFFE
FFFE
ENDCHAR
STARTCHAR degree
ENCODING 176
SWIDTH 598 0
DWIDTH 29 0
BBX 17 15 6 20
BITMAP
07F000
1FFC00
3FFE00
7FFF00
7E1F00
7C0F80
F80F80
F80F80
7C0F80
7E1F00
7FFF00
3FFE00
1FFC00
07F800
008000
ENDCHAR
STARTCHAR plusminus
ENCODING 177
SWIDTH 598 0
DWIDTH 29 0
BBX 25 32 2 0
BITMAP
003E0000
003E0000
003E0000
003E0000
003E0000
003E0000
003E0000
003E0000
003E0000
FFFFFF80
FFFFFF80
FFFFFF80
FFFFFF80
FFFFFF80
003E0000
003E0000
003E0000
003E0000
003E0000
003E0000
003E0000
003E0000
003E0000
003E0000
00000000
00000000
00000000
FFFFFF80
FFFFFF80
FFFFFF80
FFFFFF80
FFFFFF80
ENDCHAR
STARTCHAR uni00B2
ENCODING 178
SWIDTH 598 0
DWIDTH 29 0
BBX 17 21 6 14
BITMAP
07F800
1FFE00
3FFF00
7FFF00
FC1F80
F80F80
300F80
100F80
001F00
003F00
007E00
01F800
03F000
0FE000
1F8000
3F0000
7E0080
7FFF80
FFFF80
FFFF80
FFFF80
ENDCHAR
STARTCHAR uni00B3
ENCODING 179
SWIDTH 598 0
DWIDTH 29 0
BBX 18 21 6 14
BITMAP
07F800
1FFE00
3FFF00
7FFF00
7C1F80
380F80
101F80
03FF00
03FE00
03FF00
03FF80
001F80
0007C0
1007C0
3807C0
7C0FC0
FFFF80
7FFF00
3FFF00
1FFC00
07F000
ENDCHAR
STARTCHAR acute
ENCODING 180
SWIDTH 598 0
DWIDTH 29 0
BBX 10 12 11 27
BITMAP
0400
0700
0F80
1FC0
1F80
3F80
3F00
7E00
FC00
FC00
3800
1000
ENDCHAR
STARTCHAR micro
ENCODING 181
SWIDTH 598 0
DWIDTH 29 0
BBX 28 34 1 -9
BITMAP
7C00F800
7C00F800
7C00F800
7C00F800
7C00F800
7C00F800
7C00F800
7C00F800
7C00F800
7C00F800
7C00F800
7C00F800
7C00F800
7C00F800
7C00F800
7C00F800
7C00F800
7C00F800
7E01F840
7E01F840
7F03F8E0
7FDFFDE0
7FFFFFF0
7FFFBFE0
7BFE3FC0
78F80F00
F8000000
F8000000
F8000000
F8000000
F8000000
F8000000
F8000000
F8000000
ENDCHAR
STARTCHAR paragraph
ENCODING 182
SWIDTH 598 0
DWIDTH 29 0
BBX 23 41 3 -4
BITMAP
00FFFE
07FFFE
0FFFFE
3FFFFE
3FFFFE
7FFE3E
FFFE3E
FFFE3E
FFFE3E
FFFE3E
FFFE3E
FFFE3E
FFFE3E
7FFE3E
7FFE3E
3FFE3E
1FFE3E
0FFE3E
07FE3E
00FE3E
003E3E
003E3E
003E3E
003E3E
003E3E
003E3E
003E3E
003E3E
003E3E
003E3E
003E3E
003E3E
003E3E
003E3E
003E3E
003E3E
003E3E
003E3E
003E3E
003E3E
003E3E
ENDCHAR
STARTCHAR periodcentered
ENCODING 183
SWIDTH 598 0
DWIDTH 29 0
BBX 8 8 10 14
BITMAP
38
7E
FE
FF
FF
FF
7E
3C
ENDCHAR
STARTCHAR cedilla
ENCODING 184
SWIDTH 598 0
DWIDTH 29 0
BBX 13 10 9 -10
BITMAP
0380
0380
07E0
07F0
07F8
4078
7078
FFF8
7FF0
1FC0
ENDCHAR
STARTCHAR uni00B9
ENCODING 185
SWIDTH 598 0
DWIDTH 29 0
BBX 12 21 6 14
BITMAP
01F0
07F0
1FF0
FFF0
7FF0
79F0
01F0
01F0
01F0
01F0
01F0
01F0
01F0
01F0
01F0
01F0
01F0
01F0
01F0
01F0
01F0
ENDCHAR
STARTCHAR ordmasculine
ENCODING 186
SWIDTH 598 0
DWIDTH 29 0
BBX 21 27 4 8
BITMAP
01F800
03FE00
0FFF00
1FFF80
1FFFC0
3F07C0
3E07E0
7C03E0
7C03E0
7C03E0
7C01E0
7C03E0
7C03E0
7C03E0
3E07E0
3F07C0
3FFFC0
1FFF80
0FFF00
07FE00
01F800
000000
000000
FFFFF8
FFFFF8
FFFFF8
FFFFF8
ENDCHAR
STARTCHAR guillemotright
ENCODING 187
SWIDTH 598 0
DWIDTH 29 0
BBX 22 20 4 3
BITMAP
200000
300C00
781E00
FC3F00
7E1FC0
3F8FE0
1FC7F0
0FE3F8
07F1FC
03F0FC
07F0FC
0FE1F8
0FC3F0
1F87E0
3F0FC0
7E1F80
FC3F00
F83E00
701C00
200800
ENDCHAR
STARTCHAR onequarter
ENCODING 188
SWIDTH 598 0
DWIDTH 29 0
BBX 28 41 0 -4
BITMAP
0F800200
3F800780
FF8007C0
FF800F80
47800F80
07801F00
07801F00
07803E00
07803E00
07807C00
07807C00
0780F800
0780F800
0781F000
0781F000
0783E000
0003E000
0007C000
0007C000
000F8000
000F8000
001F0000
001F0000
003E0380
003E0780
007C0F80
007C1F80
00F81F80
00F83F80
01F07780
01F0F780
01E1E780
03E3C780
03C7FFF0
07C7FFF0
07C7FFF0
0F800780
0F800780
03000780
00000780
00000780
ENDCHAR
STARTCHAR onehalf
ENCODING 189
SWIDTH 598 0
DWIDTH 29 0
BBX 28 41 0 -4
BITMAP
0F800200
3F800780
FF8007C0
FF800F80
67800F80
07801F00
07801F00
07803E00
07803E00
07807C00
07807C00
0780F800
0780F800
0781F000
0781F000
0783E000
0003E000
0007C000
0007C000
000F8000
000F8000
001F0000
001F0000
003E0000
003E1F00
007C7FC0
007CFFE0
0079FBF0
00FBE0F0
00F0C0F0
01F000F0
01F001E0
03E007C0
03E00F80
07C01F00
07C07C00
0F80F800
0F81FFF0
0301FFF0
0001FFF0
0001FFF0
ENDCHAR
STARTCHAR threequarters
ENCODING 190
SWIDTH 598 0
DWIDTH 29 0
BBX 28 42 0 -4
BITMAP
07C00000
1FF00200
3FF80780
7FFC07C0
383C0F80
103C0F80
07F81F00
07F01F00
07FC3E00
007C3E00
001C3C00
301E7C00
303E7C00
787CF800
FFFCF800
3FF9F000
1FF1F000
0383E000
0003E000
0007C000
0007C000
000F8000
000F8000
001F0000
001F0380
003E0780
003E0F80
007C1F80
007C3F80
00F83F80
00F87780
00F0F780
01F1E780
01E3C780
03E7FFF0
03E7FFF0
07C7FFF0
07C00780
0F800780
07800780
01000780
00000780
ENDCHAR
STARTCHAR questiondown
ENCODING 191
SWIDTH 598 0
DWIDTH 29 0
BBX 22 38 4 -1
BITMAP
00F000
01F800
03FC00
03FC00
03FC00
03FC00
01F800
00F000
000000
000000
000000
000000
01F800
01F800
01F000
01F000
03F000
07F000
0FE000
1FC000
3F8000
7F8000
7F0000
FE0000
FC0000
FC0000
F80000
F80000
F80060
FC00F0
FC01F8
FE03FC
7F8FF8
7FFFF0
3FFFE0
1FFFC0
07FF00
01F800
ENDCHAR
STARTCHAR Agrave
ENCODING 192
SWIDTH 598 0
DWIDTH 29 0
BBX 28 44 0 0
BITMAP
00200000
007C0000
00FF0000
00FFC000
007FF000
000FE000
0001E000
00000000
00000000
00060000
000E0000
000F0000
000F0000
001F0000
001F8000
001F8000
003FC000
003FC000
003FC000
007FE000
007FE000
00FBE000
00F9F000
00F9F000
01F0F800
01F0F800
01E0F800
03E07C00
03E07C00
03C07E00
07FFFE00
07FFFE00
0FFFFF00
0FFFFF00
0F801F80
1F801F80
1F000F80
1F000FC0
3F0007C0
3E0007E0
3E0007E0
7E0003E0
7C0003F0
FC0001F0
ENDCHAR
STARTCHAR Aacute
ENCODING 193
SWIDTH 598 0
DWIDTH 29 0
BBX 28 44 0 0
BITMAP
00004000
0003E000
000FF000
003FF800
00FFE000
007F0000
00780000
00200000
00000000
00060000
000E0000
000F0000
000F0000
001F0000
001F8000
001F8000
003FC000
003FC000
003FC000
007FE000
007FE000
00FBE000
00F9F000
00F9F000
01F0F800
01F0F800
01E0F800
03E07C00
03E07C00
03C07E00
07FFFE00
07FFFE00
0FFFFF00
0FFFFF00
0F801F80
1F801F80
1F000F80
1F000FC0
3F0007C0
3E0007E0
3E0007E0
7E0003E0
7C0003F0
FC0001F0
ENDCHAR
STARTCHAR Acircumflex
ENCODING 194
SWIDTH 598 0
DWIDTH 29 0
BBX 28 44 0 0
BITMAP
00070000
001F8000
003FC000
007FE000
01FFF800
03FBFC00
07F0FC00
03C07800
01801000
00060000
000E0000
000F0000
000F0000
001F0000
001F8000
001F8000
003FC000
003FC000
007FC000
007FE000
007FE000
00FBF000
00F9F000
00F9F000
01F0F800
01F0F800
01E0FC00
03E07C00
03E07C00
03C07E00
07FFFE00
07FFFF00
0FFFFF00
0FFFFF00
0F801F80
1F801F80
1F000F80
1F000FC0
3F0007C0
3E0007E0
3E0007E0
7E0003E0
7C0003F0
FC0001F0
ENDCHAR
STARTCHAR Atilde
ENCODING 195
SWIDTH 598 0
DWIDTH 29 0
BBX 28 45 0 0
BITMAP
00380000
00FF0200
03FF8F00
07FFFF80
0FFFFF00
07C7FE00
0181FC00
00007000
00000000
00000000
00060000
000E0000
000F0000
000F0000
001F0000
001F8000
001F8000
003FC000
003FC000
007FC000
007FE000
007FE000
00FBF000
00F9F000
00F1F000
01F0F800
01F0F800
01E0FC00
03E07C00
03E07C00
07C07E00
07FFFE00
07FFFF00
0FFFFF00
0FFFFF00
0F801F80
1F801F80
1F000F80
1F000FC0
3F0007C0
3E0007E0
3E0007E0
7E0003E0
7C0003F0
FC0001F0
ENDCHAR
STARTCHAR Adieresis
ENCODING 196
SWIDTH 598 0
DWIDTH 29 0
BBX 28 44 0 0
BITMAP
03C07800
07E0FC00
07F0FE00
07F0FE00
07F0FE00
07E0FC00
03C07800
00000000
00000000
00060000
000E0000
000F0000
000F0000
001F0000
001F8000
001F8000
003FC000
003FC000
007FC000
007FE000
007FE000
00FBF000
00F9F000
00F1F000
01F0F800
01F0F800
01E0FC00
03E07C00
03E07C00
07C07E00
07FFFE00
07FFFF00
0FFFFF00
0FFFFF00
0F801F80
1F801F80
1F000F80
1F000FC0
3F0007C0
3E0007E0
3E0007E0
7E0003E0
7C0003F0
FC0001F0
ENDCHAR
STARTCHAR Aring
ENCODING 197
SWIDTH 598 0
DWIDTH 29 0
BBX 28 44 0 0
BITMAP
001F0000
003FC000
007FE000
0071E000
00F0E000
00F0E000
0079E000
007FC000
003FC000
000F0000
000E0000
000F0000
000F0000
001F0000
001F8000
001F8000
003FC000
003FC000
003FC000
007FE000
007FE000
00FBF000
00F9F000
00F9F000
01F0F800
01F0F800
01E0FC00
03E07C00
03E07C00
03C07E00
07FFFE00
07FFFE00
0FFFFF00
0FFFFF00
0F801F80
1F801F80
1F000F80
1F000FC0
3F0007C0
3E0007E0
3E0007E0
7E0003E0
7C0003F0
FC0001F0
ENDCHAR
STARTCHAR AE
ENCODING 198
SWIDTH 598 0
DWIDTH 29 0
BBX 28 35 0 0
BITMAP
001FFFF0
001FFFF0
003FFFF0
003FFFF0
003FFFF0
007FC000
007FE000
007BE000
00FBE000
00FBE000
00F3E000
01F3E000
01F3E000
01E3E000
03E3FFE0
03E3FFE0
03E3FFE0
07C3FFE0
07C3FFE0
07C3E000
0F83E000
0FFFE000
0FFFE000
1FFFE000
1FFFE000
1FFFE000
3F03E000
3E03E000
3E03E000
3E03E000
7C03FFF0
7C03FFF0
7C03FFF0
F803FFF0
F803FFF0
ENDCHAR
STARTCHAR Ccedilla
ENCODING 199
SWIDTH 598 0
DWIDTH 29 0
BBX 25 46 2 -10
BITMAP
003F8000
00FFF000
03FFF800
07FFFC00
0FFFFE00
1FE07F00
1F803F80
3F001F80
3F000F80
7E000E00
7E000000
7C000000
7C000000
FC000000
FC000000
F8000000
F8000000
F8000000
F8000000
F8000000
F8000000
F8000000
FC000000
FC000000
7C000000
7C000000
7E000000
7E000000
3F000C00
3F800F00
1FC03F80
1FE07F00
0FFFFF00
07FFFE00
03FFF800
00FFF000
003F8000
00070000
00070000
000FC000
000FE000
008FF000
00E0F000
01FFF000
00FFE000
003F8000
ENDCHAR
STARTCHAR Egrave
ENCODING 200
SWIDTH 598 0
DWIDTH 29 0
BBX 23 45 3 0
BITMAP
010000
03C000
03F000
07FE00
07FF80
00FF80
001F00
000200
000000
000000
FFFFFE
FFFFFE
FFFFFE
FFFFFE
FFFFFE
F80000
F80000
F80000
F80000
F80000
F80000
F80000
F80000
F80000
FFFFF0
FFFFF0
FFFFF0
FFFFF0
FFFFF0
F80000
F80000
F80000
F80000
F80000
F80000
F80000
F80000
F80000
F80000
F80000
FFFFFE
FFFFFE
FFFFFE
FFFFFE
FFFFFE
ENDCHAR
STARTCHAR Eacute
ENCODING 201
SWIDTH 598 0
DWIDTH 29 0
BBX 23 45 3 0
BITMAP
000100
000780
001FC0
007FC0
03FFC0
01FE00
01F000
008000
000000
000000
FFFFFE
FFFFFE
FFFFFE
FFFFFE
FFFFFE
F80000
F80000
F80000
F80000
F80000
F80000
F80000
F80000
F80000
FFFFF0
FFFFF0
FFFFF0
FFFFF0
FFFFF0
F80000
F80000
F80000
F80000
F80000
F80000
F80000
F80000
F80000
F80000
F80000
FFFFFE
FFFFFE
FFFFFE
FFFFFE
FFFFFE
ENDCHAR
STARTCHAR Ecircumflex
ENCODING 202
SWIDTH 598 0
DWIDTH 29 0
BBX 23 45 3 0
BITMAP
003800
007C00
01FF00
03FF80
07FFC0
1FEFE0
1F87F0
0F01E0
0400C0
000000
FFFFFE
FFFFFE
FFFFFE
FFFFFE
FFFFFE
F80000
F80000
F80000
F80000
F80000
F80000
F80000
F80000
F80000
FFFFF0
FFFFF0
FFFFF0
FFFFF0
FFFFF0
F80000
F80000
F80000
F80000
F80000
F80000
F80000
F80000
F80000
F80000
F80000
FFFFFE
FFFFFE
FFFFFE
FFFFFE
FFFFFE
ENDCHAR
STARTCHAR Edieresis
ENCODING 203
SWIDTH 598 0
DWIDTH 29 0
BBX 23 44 3 0
BITMAP
0F03E0
1F83F0
3F87F0
3F87F0
3F87F0
1F83F0
0F01C0
000000
000000
FFFFFE
FFFFFE
FFFFFE
FFFFFE
FFFFFE
F80000
F80000
F80000
F80000
F80000
F80000
F80000
F80000
F80000
FFFFF0
FFFFF0
FFFFF0
FFFFF0
FFFFF0
F80000
F80000
F80000
F80000
F80000
F80000
F80000
F80000
F80000
F80000
F80000
FFFFFE
FFFFFE
FFFFFE
FFFFFE
FFFFFE
ENDCHAR
STARTCHAR Igrave
ENCODING 204
SWIDTH 598 0
DWIDTH 29 0
BBX 20 45 4 0
BITMAP
020000
078000
07E000
0FFC00
0FFF00
01FF00
003E00
000400
000000
000000
7FFFE0
7FFFE0
7FFFE0
7FFFE0
7FFFE0
01F000
01F000
01F000
01F000
01F000
01F000
01F000
01F000
01F000
01F000
01F000
01F000
01F000
01F000
01F000
01F000
01F000
01F000
01F000
01F000
01F000
01F000
01F000
01F000
01F000
FFFFF0
FFFFF0
FFFFF0
FFFFF0
FFFFF0
ENDCHAR
STARTCHAR Iacute
ENCODING 205
SWIDTH 598 0
DWIDTH 29 0
BBX 20 45 4 0
BITMAP
000200
000F00
003F80
00FF80
07FF80
03FC00
03E000
010000
000000
000000
7FFFE0
7FFFE0
7FFFE0
7FFFE0
7FFFE0
01F000
01F000
01F000
01F000
01F000
01F000
01F000
01F000
01F000
01F000
01F000
01F000
01F000
01F000
01F000
01F000
01F000
01F000
01F000
01F000
01F000
01F000
01F000
01F000
01F000
FFFFF0
FFFFF0
FFFFF0
FFFFF0
FFFFF0
ENDCHAR
STARTCHAR Icircumflex
ENCODING 206
SWIDTH 598 0
DWIDTH 29 0
BBX 20 45 4 0
BITMAP
00F000
01F800
03FC00
07FE00
1FFF80
3FBFC0
7F0FC0
3C0780
100100
000000
7FFFE0
7FFFE0
7FFFE0
7FFFE0
7FFFE0
01F000
01F000
01F000
01F000
01F000
01F000
01F000
01F000
01F000
01F000
01F000
01F000
01F000
01F000
01F000
01F000
01F000
01F000
01F000
01F000
01F000
01F000
01F000
01F000
01F000
FFFFF0
FFFFF0
FFFFF0
FFFFF0
FFFFF0
ENDCHAR
STARTCHAR Idieresis
ENCODING 207
SWIDTH 598 0
DWIDTH 29 0
BBX 20 44 4 0
BITMAP
3E0780
7F0FC0
7F0FE0
7F0FE0
7F0FE0
3E0FC0
1C0380
000000
000000
7FFFE0
7FFFE0
7FFFE0
7FFFE0
7FFFE0
01F000
01F000
01F000
01F000
01F000
01F000
01F000
01F000
01F000
01F000
01F000
01F000
01F000
01F000
01F000
01F000
01F000
01F000
01F000
01F000
01F000
01F000
01F000
01F000
01F000
FFFFF0
FFFFF0
FFFFF0
FFFFF0
FFFFF0
ENDCHAR
STARTCHAR Eth
ENCODING 208
SWIDTH 598 0
DWIDTH 29 0
BBX 26 35 1 0
BITMAP
1FFF0000
1FFFE000
1FFFF000
1FFFF800
1FFFFC00
1F00FE00
1F007F00
1F003F00
1F001F80
1F001F80
1F000F80
1F000F80
1F000FC0
1F0007C0
FFFC07C0
FFFC07C0
FFFC07C0
FFFC07C0
FFFC07C0
1F0007C0
1F0007C0
1F0007C0
1F000FC0
1F000F80
1F000F80
1F001F80
1F001F00
1F003F00
1F007E00
1F01FE00
1FFFFC00
1FFFF800
1FFFF000
1FFFC000
1FFF0000
ENDCHAR
STARTCHAR Ntilde
ENCODING 209
SWIDTH 598 0
DWIDTH 29 0
BBX 23 45 3 0
BITMAP
00C000
07F810
0FFE7C
3FFFFC
3FFFF8
1E3FF0
0C0FE0
000380
000000
000000
F8003E
F8003E
FC003E
FC003E
FE003E
FF003E
FF003E
FF803E
FF803E
FFC03E
FFC03E
FBE03E
FBE03E
F9F03E
F9F83E
F8F83E
F87C3E
F87C3E
F83E3E
F83E3E
F81F3E
F81FBE
F80FBE
F80FFE
F807FE
F803FE
F803FE
F801FE
F801FE
F800FE
F800FE
F8007E
F8007E
F8003E
F8001E
ENDCHAR
STARTCHAR Ograve
ENCODING 210
SWIDTH 598 0
DWIDTH 29 0
BBX 26 46 1 -1
BITMAP
00400000
00F80000
01FE0000
01FF8000
00FFE000
001FC000
0003C000
00000000
00000000
003F8000
00FFE000
03FFF800
07FFFC00
0FFFFE00
0FE0FF00
1FC07F00
3F803F80
3F001F80
3E001F80
7E000FC0
7C000FC0
7C000FC0
7C0007C0
7C0007C0
FC0007C0
FC0007C0
FC0007C0
FC0007C0
FC0007C0
FC0007C0
7C0007C0
7C0007C0
7C0007C0
7C0007C0
7E000FC0
7E000FC0
3E000F80
3F001F80
1F803F80
1FC07F00
0FF1FE00
0FFFFE00
07FFFC00
03FFF800
00FFE000
003F8000
ENDCHAR
STARTCHAR Oacute
ENCODING 211
SWIDTH 598 0
DWIDTH 29 0
BBX 26 46 1 -1
BITMAP
00004000
0003E000
000FF000
003FF800
00FFE000
007F0000
00780000
00200000
00000000
003F8000
00FFE000
03FFF800
07FFFC00
0FFFFE00
0FE0FF00
1FC07F00
3F803F80
3F001F80
3E001F80
7E000FC0
7C000FC0
7C000FC0
7C0007C0
7C0007C0
FC0007C0
FC0007C0
FC0007C0
FC0007C0
FC0007C0
FC0007C0
7C0007C0
7C0007C0
7C0007C0
7C0007C0
7E000FC0
7E000FC0
3E000F80
3F001F80
1F803F80
1FC07F00
0FF1FE00
0FFFFE00
07FFFC00
03FFF800
00FFE000
003F8000
ENDCHAR
STARTCHAR Ocircumflex
ENCODING 212
SWIDTH 598 0
DWIDTH 29 0
BBX 26 46 1 -1
BITMAP
000E0000
001F0000
003FC000
00FFE000
01FFF000
03FBF800
07E1FC00
03C07800
01003000
003F8000
00FFE000
03FFF800
07FFFC00
0FFFFE00
0FE0FF00
1FC07F00
3F803F80
3F001F80
3E001F80
7E000FC0
7C000FC0
7C000FC0
7C0007C0
7C0007C0
FC0007C0
FC0007C0
FC0007C0
FC0007C0
FC0007C0
FC0007C0
7C0007C0
7C0007C0
7C0007C0
7C0007C0
7E000FC0
7E000FC0
3E000F80
3F001F80
1F803F80
1FC07F00
0FF1FE00
0FFFFE00
07FFFC00
03FFF800
00FFE000
003F8000
ENDCHAR
STARTCHAR Otilde
ENCODING 213
SWIDTH 598 0
DWIDTH 29 0
BBX 26 47 1 -1
BITMAP
00300000
01FE0400
03FF9F00
0FFFFF00
0FFFFE00
078FFC00
0303F800
0000E000
00000000
00000000
003F8000
00FFE000
03FFF800
07FFFC00
0FFFFE00
0FE0FF00
1FC07F00
3F803F80
3F001F80
3E001F80
7E000FC0
7C000FC0
7C000FC0
7C0007C0
7C0007C0
FC0007C0
FC0007C0
FC0007C0
FC0007C0
FC0007C0
FC0007C0
7C0007C0
7C0007C0
7C0007C0
7C0007C0
7E000FC0
7E000FC0
3E000F80
3F001F80
1F803F80
1FC07F00
0FF1FE00
0FFFFE00
07FFFC00
03FFF800
00FFE000
003F8000
ENDCHAR
STARTCHAR Odieresis
ENCODING 214
SWIDTH 598 0
DWIDTH 29 0
BBX 26 46 1 -1
BITMAP
03807000
07E0F800
0FE1FC00
0FE1FC00
0FE1FC00
07E0FC00
03C07800
00000000
00000000
003F8000
00FFE000
03FFF800
07FFFC00
0FFFFE00
0FE0FF00
1FC07F00
3F803F80
3F001F80
3E001F80
7E000FC0
7C000FC0
7C000FC0
7C0007C0
7C0007C0
FC0007C0
FC0007C0
FC0007C0
FC0007C0
FC0007C0
FC0007C0
7C0007C0
7C0007C0
7C0007C0
7C0007C0
7E000FC0
7E000FC0
3E000F80
3F001F80
1F803F80
1FC07F00
0FF1FE00
0FFFFE00
07FFFC00
03FFF800
00FFE000
003F8000
ENDCHAR
STARTCHAR multiply
ENCODING 215
SWIDTH 598 0
DWIDTH 29 0
BBX 21 21 4 7
BITMAP
180060
3C00F0
7E01F8
7F03F8
3F87F0
1FCFE0
0FDFC0
07FF80
03FF00
01FE00
01FE00
03FF00
07FF80
0FFFC0
1FDFE0
3F8FE0
7F07F0
FE03F8
7C01F0
3800E0
100040
ENDCHAR
STARTCHAR Oslash
ENCODING 216
SWIDTH 598 0
DWIDTH 29 0
BBX 26 43 1 -4
BITMAP
00000200
00000380
000007C0
003F8FC0
00FFEF80
03FFFF80
07FFFF00
0FFFFF00
0FE1FF00
1FC07F00
3F807F80
3F00FF80
3E00FF80
7E01FFC0
7E01E7C0
7C03E7C0
7C03C7C0
7C07C7C0
FC0787C0
FC0F87C0
FC0F07C0
FC1F07C0
FC1E07C0
FC3E07C0
7C3C07C0
7C7C07C0
7C7807C0
7CF80FC0
7CF00FC0
7FF00FC0
3FE01F80
3FE01F80
3FC03F80
1FC07F00
0FF1FE00
0FFFFE00
1FFFFC00
3FFFF800
3EFFE000
7E3F8000
7C000000
7C000000
18000000
ENDCHAR
STARTCHAR Ugrave
ENCODING 217
SWIDTH 598 0
DWIDTH 29 0
BBX 23 46 3 -1
BITMAP
010000
03C000
03F000
07FE00
07FF80
00FF80
001F00
000200
000000
000000
F8003E
F8003E
F8003E
F8003E
F8003E
F8003E
F8003E
F8003E
F8003E
F8003E
F8003E
F8003E
F8003E
F8003E
F8003E
F8003E
F8003E
F8003E
F8003E
F8003E
F8003E
F8003E
F8003E
F8003E
F8003E
F8003E
F8003E
F8003E
FC007E
FE00FC
7F01FC
3FFFF8
3FFFF0
0FFFE0
07FFC0
00FE00
ENDCHAR
STARTCHAR Uacute
ENCODING 218
SWIDTH 598 0
DWIDTH 29 0
BBX 23 46 3 -1
BITMAP
000100
000780
001FC0
007FC0
03FFC0
01FE00
01F000
008000
000000
000000
F8003E
F8003E
F8003E
F8003E
F8003E
F8003E
F8003E
F8003E
F8003E
F8003E
F8003E
F8003E
F8003E
F8003E
F8003E
F8003E
F8003E
F8003E
F8003E
F8003E
F8003E
F8003E
F8003E
F8003E
F8003E
F8003E
F8003E
F8003E
FC007E
FE00FC
7F01FC
3FFFF8
3FFFF0
0FFFE0
07FFC0
00FE00
ENDCHAR
STARTCHAR Ucircumflex
ENCODING 219
SWIDTH 598 0
DWIDTH 29 0
BBX 23 45 3 -1
BITMAP
003800
007E00
01FF00
03FF80
07FFE0
1FEFF0
1F83F0
0E01E0
040040
F8003E
F8003E
F8003E
F8003E
F8003E
F8003E
F8003E
F8003E
F8003E
F8003E
F8003E
F8003E
F8003E
F8003E
F8003E
F8003E
F8003E
F8003E
F8003E
F8003E
F8003E
F8003E
F8003E
F8003E
F8003E
F8003E
F8003E
F8003E
FC007E
FE00FC
7F01FC
3FFFF8
3FFFF0
0FFFE0
07FFC0
00FE00
ENDCHAR
STARTCHAR Udieresis
ENCODING 220
SWIDTH 598 0
DWIDTH 29 0
BBX 23 45 3 -1
BITMAP
0F01E0
1F83F0
1FC3F0
1FC7F8
1FC3F0
1F83F0
0F01E0
000000
000000
F8003E
F8003E
F8003E
F8003E
F8003E
F8003E
F8003E
F8003E
F8003E
F8003E
F8003E
F8003E
F8003E
F8003E
F8003E
F8003E
F8003E
F8003E
F8003E
F8003E
F8003E
F8003E
F8003E
F8003E
F8003E
F8003E
F8003E
F8003E
FC007E
FE00FC
7F01FC
3FFFF8
3FFFF0
0FFFE0
07FFC0
00FE00
ENDCHAR
STARTCHAR Yacute
ENCODING 221
SWIDTH 598 0
DWIDTH 29 0
BBX 27 45 1 0
BITMAP
00004000
0001E000
0007F000
001FF000
00FFF000
007F8000
007C0000
00200000
00000000
00000000
FC0007E0
7E0007C0
7E000FC0
3F000F80
3F001F80
1F801F00
1F803F00
0FC03E00
0FC07E00
07E07C00
07E0FC00
03F0F800
03F0F800
01F9F000
01F9F000
00FFE000
007FE000
007FC000
003FC000
003FC000
001F8000
001F8000
001F8000
001F8000
001F8000
001F8000
001F8000
001F8000
001F8000
001F8000
001F8000
001F8000
001F8000
001F8000
001F8000
ENDCHAR
STARTCHAR Thorn
ENCODING 222
SWIDTH 598 0
DWIDTH 29 0
BBX 24 35 3 0
BITMAP
FC0000
FC0000
F80000
F80000
F80000
F80000
FFF800
FFFFC0
FFFFE0
FFFFF8
FFFFF8
F801FC
F800FE
F8007E
F8003E
F8003E
F8003F
F8003F
F8003E
F8007E
F8007E
F801FC
FFFFFC
FFFFF8
FFFFF0
FFFFE0
FFFF00
F80000
F80000
F80000
F80000
F80000
F80000
F80000
F80000
ENDCHAR
STARTCHAR germandbls
ENCODING 223
SWIDTH 598 0
DWIDTH 29 0
BBX 24 38 3 -1
BITMAP
01FC00
07FF00
0FFFC0
1FFFE0
3FFFF0
3F03F0
7E01F8
7C00F8
FC00F8
FC00FC
F800FC
F800FC
F800F8
F800F8
F801F8
F807F0
F87FE0
F87FC0
F87FF0
F87FF8
F803FC
F800FC
F8007E
F8003E
F8003F
F8001F
F8001F
F8001F
F8001F
F8003F
F8003F
F8007E
F8E1FE
F8FFFC
F9FFF8
F9FFF0
F9FFE0
003F80
ENDCHAR
STARTCHAR agrave
ENCODING 224
SWIDTH 598 0
DWIDTH 29 0
BBX 23 40 2 -1
BITMAP
001800
003800
00FC00
00FC00
00FE00
007F00
003F00
001F80
001F80
000FC0
000700
000000
000000
007F00
03FFE0
0FFFF0
1FFFF8
1FFFFC
0F80FE
0E007E
04003E
00003E
00003E
00007E
01FFFE
07FFFE
1FFFFE
3FFFFE
3F803E
7E003E
7C003E
7C003E
FC007E
7C00FE
7E03FE
7FFFFE
3FFFFE
1FFFFE
0FFF3E
03FC00
ENDCHAR
STARTCHAR aacute
ENCODING 225
SWIDTH 598 0
DWIDTH 29 0
BBX 23 40 2 -1
BITMAP
000200
000380
0007C0
000FE0
000FC0
001FC0
001F80
003F00
007E00
007E00
001C00
000800
000000
007F00
03FFE0
0FFFF0
1FFFF8
1FFFFC
0F80FE
0E007E
04003E
00003E
00003E
00007E
01FFFE
07FFFE
1FFFFE
3FFFFE
3F803E
7E003E
7C003E
7C003E
FC007E
7C00FE
7E03FE
7FFFFE
3FFFFE
1FFFFE
0FFF3E
03FC00
ENDCHAR
STARTCHAR acircumflex
ENCODING 226
SWIDTH 598 0
DWIDTH 29 0
BBX 23 39 2 -1
BITMAP
000C00
001E00
003F00
007F80
007FC0
00FFC0
01F7E0
03F3F0
07E1F8
03C0F0
0180C0
008000
007F00
03FFE0
0FFFF0
1FFFF8
1FFFFC
0F80FE
0E007E
04003E
00003E
00003E
00007E
01FFFE
07FFFE
1FFFFE
3FFFFE
3F803E
7E003E
7C003E
7C003E
FC007E
7C00FE
7E03FE
7FFFFE
3FFFFE
1FFFFE
0FFF3E
03FC00
ENDCHAR
STARTCHAR atilde
ENCODING 227
SWIDTH 598 0
DWIDTH 29 0
BBX 23 40 2 -1
BITMAP
007000
03FC00
07FE0C
0FFFFE
1FFFFE
0F8FFC
0207F8
0000E0
000000
000000
000000
000000
000000
007F00
03FFE0
0FFFF0
1FFFF8
1FFFFC
0F80FE
0E007E
04003E
00003E
00003E
00007E
01FFFE
07FFFE
1FFFFE
3FFFFE
3F803E
7E003E
7C003E
7C003E
FC007E
7C00FE
7E03FE
7FFFFE
3FFFFE
1FFFFE
0FFF3E
03FC00
ENDCHAR
STARTCHAR adieresis
ENCODING 228
SWIDTH 598 0
DWIDTH 29 0
BBX 23 38 2 -1
BITMAP
038070
07E0F8
0FE1FC
0FE1FC
0FE1FC
07E0FC
03C078
000000
000000
000000
000000
007F00
03FFE0
0FFFF0
1FFFF8
1FFFFC
0F80FE
0E007E
04003E
00003E
00003E
00007E
01FFFE
07FFFE
1FFFFE
3FFFFE
3F803E
7E003E
7C003E
7C003E
FC007E
7C00FE
7E03FE
7FFFFE
3FFFFE
1FFFFE
0FFF3E
03FC00
ENDCHAR
STARTCHAR aring
ENCODING 229
SWIDTH 598 0
DWIDTH 29 0
BBX 23 40 2 -1
BITMAP
001E00
007F00
00FF80
00F3C0
01E1C0
01E1C0
01E1C0
00F3C0
00FF80
007F80
003E00
000000
000000
007F00
03FFE0
0FFFF0
1FFFF8
1FFFFC
0F80FE
0E007E
04003E
00003E
00003E
00007E
01FFFE
07FFFE
1FFFFE
3FFFFE
3F803E
7E003E
7C003E
7C003E
FC007E
7C00FE
7E03FE
7FFFFE
3FFFFE
1FFFFE
0FFF3E
03FC00
ENDCHAR
STARTCHAR ae
ENCODING 230
SWIDTH 598 0
DWIDTH 29 0
BBX 29 27 0 -1
BITMAP
03E03E00
0FF8FF80
3FFDFFC0
7FFFFFE0
3FFFFFE0
1C1FE1F0
181FC1F0
000F80F0
000F80F0
000F80F0
000FFFF0
03FFFFF0
0FFFFFF0
1FFFFFF0
3FFF8000
7F0F8000
7E0F8000
7C0F8000
F80F8000
F80F8000
FC0FC060
7C1FE0E0
7E3FFFF0
3FFFFFF8
3FFDFFF0
0FF87FE0
03E01F80
ENDCHAR
STARTCHAR ccedilla
ENCODING 231
SWIDTH 598 0
DWIDTH 29 0
BBX 24 36 3 -10
BITMAP
007F80
01FFE0
07FFF8
0FFFFC
1FFFFE
3FC0FF
3F003E
7E001C
7E0018
FC0000
FC0000
FC0000
F80000
F80000
FC0000
FC0000
FC0000
FC0000
7E0000
7F0018
3F803C
3FE0FE
1FFFFE
0FFFFC
07FFF8
01FFE0
007F80
000E00
000E00
001F80
001FC0
011FE0
01C1E0
03FFE0
01FFC0
007F00
ENDCHAR
STARTCHAR egrave
ENCODING 232
SWIDTH 598 0
DWIDTH 29 0
BBX 24 40 2 -1
BITMAP
001800
003800
00FC00
00FC00
00FE00
007F00
003F00
001F80
001F80
000FC0
000700
000000
000000
007F00
01FFE0
07FFF0
0FFFF8
1FFFFC
1F80FC
3F007E
3E003E
7E003E
7C003F
7FFFFF
7FFFFF
FFFFFF
FFFFFF
FFFFFF
FC0000
7C0000
7C0000
7E0000
7E0008
3F001C
3FC07E
1FFFFE
0FFFFC
07FFF8
01FFF0
003F80
ENDCHAR
STARTCHAR eacute
ENCODING 233
SWIDTH 598 0
DWIDTH 29 0
BBX 24 40 2 -1
BITMAP
000200
000380
0007C0
000FE0
000FC0
001FC0
001F80
003F00
007E00
007E00
001C00
000800
000000
007F00
01FFE0
07FFF0
0FFFF8
1FFFFC
1F80FC
3F007E
3E003E
7E003E
7C003F
7FFFFF
7FFFFF
FFFFFF
FFFFFF
FFFFFF
FC0000
7C0000
7C0000
7E0000
7E0008
3F001C
3FC07E
1FFFFE
0FFFFC
07FFF8
01FFF0
003F80
ENDCHAR
STARTCHAR ecircumflex
ENCODING 234
SWIDTH 598 0
DWIDTH 29 0
BBX 24 39 2 -1
BITMAP
001C00
001E00
003F00
007F00
00FF80
01FFC0
01F7E0
03E3F0
07E3F0
03C1E0
0180C0
000000
007F00
01FFE0
07FFF0
0FFFF8
1FFFFC
1F80FC
3F007E
3E003E
7E003E
7C003F
7FFFFF
7FFFFF
FFFFFF
FFFFFF
FFFFFF
FC0000
7C0000
7C0000
7E0000
7E0008
3F001C
3FC07E
1FFFFE
0FFFFC
07FFF8
01FFF0
003F80
ENDCHAR
STARTCHAR edieresis
ENCODING 235
SWIDTH 598 0
DWIDTH 29 0
BBX 24 38 2 -1
BITMAP
0780F0
0FC1F8
0FC3F8
1FE3F8
0FE3F8
0FC1F8
0780F0
000000
000000
000000
000000
007F00
01FFE0
07FFF0
0FFFF8
1FFFFC
1F80FC
3F007E
3E003E
7E003E
7C003F
7FFFFF
7FFFFF
FFFFFF
FFFFFF
FFFFFF
FC0000
7C0000
7C0000
7E0000
7E0008
3F001C
3FC07E
1FFFFE
0FFFFC
07FFF8
01FFF0
003F80
ENDCHAR
STARTCHAR igrave
ENCODING 236
SWIDTH 598 0
DWIDTH 29 0
BBX 18 39 5 0
BITMAP
020000
070000
1F0000
3F8000
1F8000
0FC000
0FE000
07E000
03F000
01F000
01E000
008000
000000
000000
7FF000
7FF000
7FF000
7FF000
7FF000
01F000
01F000
01F000
01F000
01F000
01F000
01F000
01F000
01F000
01F000
01F000
01F000
01F000
01F000
01F000
FFFFC0
FFFFC0
FFFFC0
FFFFC0
FFFFC0
ENDCHAR
STARTCHAR iacute
ENCODING 237
SWIDTH 598 0
DWIDTH 29 0
BBX 18 39 5 0
BITMAP
001000
001800
003E00
007F00
007E00
00FE00
00FC00
01F800
03F000
03F000
01E000
004000
000000
000000
7FF000
7FF000
7FF000
7FF000
7FF000
01F000
01F000
01F000
01F000
01F000
01F000
01F000
01F000
01F000
01F000
01F000
01F000
01F000
01F000
01F000
FFFFC0
FFFFC0
FFFFC0
FFFFC0
FFFFC0
ENDCHAR
STARTCHAR icircumflex
ENCODING 238
SWIDTH 598 0
DWIDTH 29 0
BBX 18 38 5 0
BITMAP
00C000
01E000
01F000
03F000
07F800
0FFC00
1FFE00
1F3F00
3E3F00
3C1F00
1C0E00
080400
000000
7FF000
7FF000
7FF000
7FF000
7FF000
01F000
01F000
01F000
01F000
01F000
01F000
01F000
01F000
01F000
01F000
01F000
01F000
01F000
01F000
01F000
FFFFC0
FFFFC0
FFFFC0
FFFFC0
FFFFC0
ENDCHAR
STARTCHAR idieresis
ENCODING 239
SWIDTH 598 0
DWIDTH 29 0
BBX 18 37 5 0
BITMAP
3C0780
7E0FC0
FE1FC0
FE1FC0
FE1FC0
7E0FC0
3C0780
000000
000000
000000
000000
000000
7FF000
7FF000
7FF000
7FF000
7FF000
01F000
01F000
01F000
01F000
01F000
01F000
01F000
01F000
01F000
01F000
01F000
01F000
01F000
01F000
01F000
FFFFC0
FFFFC0
FFFFC0
FFFFC0
FFFFC0
ENDCHAR
STARTCHAR eth
ENCODING 240
SWIDTH 598 0
DWIDTH 29 0
BBX 25 38 2 -1
BITMAP
03F00000
07FC0400
01FE7E00
007FFE00
003FFE00
03FFFC00
07FFE000
03FFF000
03F1F800
0101F800
0000FC00
007E7C00
01FFFE00
07FFFE00
0FFFFF00
1FFFFF00
3FC1FF00
3F007F00
7E003F80
7E003F80
7C001F80
FC001F80
FC001F80
FC001F80
FC001F80
FC001F80
FC001F80
FC001F00
FC001F00
7E003F00
7F003F00
3F007E00
3FC1FE00
1FFFFC00
0FFFF800
07FFF000
01FFE000
007F0000
ENDCHAR
STARTCHAR ntilde
ENCODING 241
SWIDTH 598 0
DWIDTH 29 0
BBX 21 39 4 0
BITMAP
038000
0FE000
3FF870
7FFFF8
FFFFF0
7C7FE0
181FC0
000700
000000
000000
000000
000000
000000
003F00
F8FFC0
FBFFE0
FFFFF0
FFFFF0
FF83F8
FF01F8
FE01F8
FC00F8
F800F8
F800F8
F800F8
F800F8
F800F8
F800F8
F800F8
F800F8
F800F8
F800F8
F800F8
F800F8
F800F8
F800F8
F800F8
F800F8
F800F8
ENDCHAR
STARTCHAR ograve
ENCODING 242
SWIDTH 598 0
DWIDTH 29 0
BBX 25 40 2 -1
BITMAP
00180000
00380000
00FC0000
00FC0000
00FE0000
007F0000
003F0000
001F8000
001F8000
000FC000
00070000
00000000
00000000
007F0000
01FFC000
07FFF000
0FFFF800
1FFFFC00
3FC1FE00
3F007E00
7E003F00
7E003F00
7C001F00
FC001F80
FC001F80
FC001F80
FC001F80
FC001F80
FC001F80
FC001F80
FC001F00
7E003F00
7F003F00
3F807E00
3FC1FE00
1FFFFC00
0FFFF800
07FFF000
01FFE000
007F0000
ENDCHAR
STARTCHAR oacute
ENCODING 243
SWIDTH 598 0
DWIDTH 29 0
BBX 25 40 2 -1
BITMAP
00020000
00038000
0007C000
000FE000
000FC000
001FC000
001F8000
003F0000
007E0000
007E0000
001C0000
00080000
00000000
007F0000
01FFC000
07FFF000
0FFFF800
1FFFFC00
3FC1FE00
3F007E00
7E003F00
7E003F00
7C001F00
FC001F80
FC001F80
FC001F80
FC001F80
FC001F80
FC001F80
FC001F80
FC001F00
7E003F00
7F003F00
3F807E00
3FC1FE00
1FFFFC00
0FFFF800
07FFF000
01FFE000
007F0000
ENDCHAR
STARTCHAR ocircumflex
ENCODING 244
SWIDTH 598 0
DWIDTH 29 0
BBX 25 39 2 -1
BITMAP
001C0000
001E0000
003F0000
007F0000
00FF8000
01FFC000
01F7E000
03E3F000
07E3F000
03C1E000
0180C000
00000000
007F0000
01FFC000
07FFF000
0FFFF800
1FFFFC00
3FC1FE00
3F007E00
7E003F00
7E003F00
7C001F00
FC001F80
FC001F80
FC001F80
FC001F80
FC001F80
FC001F80
FC001F80
FC001F00
7E003F00
7F003F00
3F807E00
3FC1FE00
1FFFFC00
0FFFF800
07FFF000
01FFE000
007F0000
ENDCHAR
STARTCHAR otilde
ENCODING 245
SWIDTH 598 0
DWIDTH 29 0
BBX 25 40 2 -1
BITMAP
00600000
03FC0000
07FE1C00
1FFFFE00
1FFFFC00
0F1FF800
0607F000
0001C000
00000000
00000000
00000000
00000000
00000000
007F0000
01FFC000
07FFF000
0FFFF800
1FFFFC00
3FC1FE00
3F007E00
7E003F00
7E003F00
7C001F00
FC001F80
FC001F80
FC001F80
FC001F80
FC001F80
FC001F80
FC001F80
FC001F00
7E003F00
7F003F00
3F807E00
3FC1FE00
1FFFFC00
0FFFF800
07FFF000
01FFE000
007F0000
ENDCHAR
STARTCHAR odieresis
ENCODING 246
SWIDTH 598 0
DWIDTH 29 0
BBX 25 38 2 -1
BITMAP
0780F000
0FC1F800
0FC3F800
1FE3F800
0FC3F800
0FC1F800
0780F000
00000000
00000000
00000000
00000000
007F0000
01FFC000
07FFF000
0FFFF800
1FFFFC00
3FC1FE00
3F007E00
7E003F00
7E003F00
7C001F00
FC001F80
FC001F80
FC001F80
FC001F80
FC001F80
FC001F80
FC001F80
FC001F00
7E003F00
7F003F00
3F807E00
3FC1FE00
1FFFFC00
0FFFF800
07FFF000
01FFE000
007F0000
ENDCHAR
STARTCHAR divide
ENCODING 247
SWIDTH 598 0
DWIDTH 29 0
BBX 21 22 4 6
BITMAP
00F800
00FC00
01FC00
00FC00
00F800
007000
000000
000000
FFFFF8
FFFFF8
FFFFF8
FFFFF8
FFFFF8
000000
000000
000000
007000
00F800
00FC00
01FC00
00FC00
00F800
ENDCHAR
STARTCHAR oslash
ENCODING 248
SWIDTH 598 0
DWIDTH 29 0
BBX 25 33 2 -4
BITMAP
00001000
00003C00
00007E00
007F7C00
01FFFC00
07FFF800
0FFFF800
1FFFFC00
3FC3FE00
3F03FE00
7F07FF00
7E079F00
7C0F9F00
FC0F1F80
FC1F1F80
FC3E1F80
FC3E1F80
FC7C1F80
FC781F80
FCF81F80
FCF01F00
7DF03F00
7FE07F00
3FE07E00
3FC1FE00
1FFFFC00
0FFFF800
1FFFF000
1FFFE000
3F7F0000
3E000000
3C000000
0C000000
ENDCHAR
STARTCHAR ugrave
ENCODING 249
SWIDTH 598 0
DWIDTH 29 0
BBX 23 39 3 -1
BITMAP
007000
00F800
01F800
01FC00
00FC00
007E00
003F00
003F00
001F80
000E00
000400
000000
000000
FC007C
FC007C
FC007C
FC007C
FC007C
FC007C
FC007C
FC007C
FC007C
FC007C
FC007C
FC007C
FC007C
FC007C
FC007C
FC007C
FC007C
FC00FC
7C00FC
7E01FC
7F03FC
3FFFFC
3FFFFC
1FFF7C
07FE7E
01F800
ENDCHAR
STARTCHAR uacute
ENCODING 250
SWIDTH 598 0
DWIDTH 29 0
BBX 23 40 3 -1
BITMAP
000400
000600
000F80
001FC0
001F80
003F80
003F00
007E00
00FC00
00FC00
007800
001000
000000
000000
FC007C
FC007C
FC007C
FC007C
FC007C
FC007C
FC007C
FC007C
FC007C
FC007C
FC007C
FC007C
FC007C
FC007C
FC007C
FC007C
FC007C
FC00FC
7C00FC
7E01FC
7F03FC
3FFFFC
3FFFFC
1FFF7C
07FE7E
01F800
ENDCHAR
STARTCHAR ucircumflex
ENCODING 251
SWIDTH 598 0
DWIDTH 29 0
BBX 23 39 3 -1
BITMAP
001800
003800
007C00
00FE00
00FF00
01FF80
03EF80
07EFC0
0FC7E0
0F83E0
0701C0
010100
000000
FC007C
FC007C
FC007C
FC007C
FC007C
FC007C
FC007C
FC007C
FC007C
FC007C
FC007C
FC007C
FC007C
FC007C
FC007C
FC007C
FC007C
FC00FC
7C00FC
7E01FC
7F03FC
3FFFFC
3FFFFC
1FFF7C
07FE7E
01F800
ENDCHAR
STARTCHAR udieresis
ENCODING 252
SWIDTH 598 0
DWIDTH 29 0
BBX 23 38 3 -1
BITMAP
0F01E0
1F83F0
1F87F0
3FC7F0
1F87F0
1F83F0
0F01E0
000000
000000
000000
000000
000000
FC007C
FC007C
FC007C
FC007C
FC007C
FC007C
FC007C
FC007C
FC007C
FC007C
FC007C
FC007C
FC007C
FC007C
FC007C
FC007C
FC007C
FC00FC
7C00FC
7E01FC
7F03FC
3FFFFC
3FFFFC
1FFF7C
07FE7E
01F800
ENDCHAR
STARTCHAR yacute
ENCODING 253
SWIDTH 598 0
DWIDTH 29 0
BBX 26 49 1 -10
BITMAP
00010000
00018000
0003E000
0007F000
0007E000
000FE000
000FC000
001F8000
003F0000
003F0000
001E0000
00040000
00000000
00000000
7F000FC0
3F000FC0
3F000F80
3F000F80
1F801F80
1F801F00
0F801F00
0FC03F00
07C03E00
07E03E00
07E07C00
03E07C00
03F07C00
01F0F800
01F0F800
00F8F000
00F9F000
00FDF000
007FE000
007FE000
003FC000
003FC000
001FC000
001F8000
001F8000
001F0000
001F0000
003F0000
303E0000
707E0000
7FFC0000
FFFC0000
FFF80000
7FE00000
1F800000
ENDCHAR
STARTCHAR thorn
ENCODING 254
SWIDTH 598 0
DWIDTH 29 0
BBX 24 46 3 -9
BITMAP
FC0000
FC0000
FC0000
FC0000
FC0000
FC0000
FC0000
FC0000
FC0000
FC0000
FC0000
FC3F00
FDFFC0
FFFFF0
FFFFF8
FFFFFC
FF83FC
FE00FE
FC007E
FC007E
FC003F
FC003F
FC003F
FC003F
FC003F
FC003F
FC003F
FC003F
FC003E
FC007E
FC007E
FE00FC
FF83FC
FFFFF8
FFFFF0
FFFFE0
FDFFC0
FC7F00
FC0000
FC0000
FC0000
FC0000
FC0000
FC0000
FC0000
FC0000
ENDCHAR
STARTCHAR ydieresis
ENCODING 255
SWIDTH 598 0
DWIDTH 29 0
BBX 26 47 1 -10
BITMAP
03C07800
07E0FC00
07E1FC00
0FF1FC00
07E1FC00
07E0FC00
03C07800
00000000
00000000
00000000
00000000
00000000
7F000FC0
3F000FC0
3F000F80
3F000F80
1F801F80
1F801F00
0F801F00
0FC03F00
07C03E00
07E03E00
07E07C00
03E07C00
03F07C00
01F0F800
01F0F800
00F8F000
00F9F000
00FDF000
007FE000
007FE000
003FC000
003FC000
001FC000
001F8000
001F8000
001F0000
001F0000
003F0000
303E0000
707E0000
7FFC0000
FFFC0000
FFF80000
7FE00000
1F800000
ENDCHAR
STARTCHAR Amacron
ENCODING 256
SWIDTH 585 0
DWIDTH 28 0
BBX 28 44 0 0
BITMAP
01FFFC00
01FFFC00
01FFFC00
01FFFC00
01FFFC00
00000000
00000000
00000000
00000000
00060000
000E0000
000F0000
000F0000
001F0000
001F8000
001F8000
003FC000
003FC000
007FC000
007FE000
007BE000
00FBF000
00F9F000
00F1F000
01F0F800
01F0F800
01E0FC00
03E07C00
03E07C00
07C07E00
07FFFE00
07FFFF00
0FFFFF00
0FFFFF00
0F801F80
1F801F80
1F000F80
1F000FC0
3F0007C0
3E0007E0
3E0007E0
7E0003E0
7C0003F0
FC0001F0
ENDCHAR
STARTCHAR amacron
ENCODING 257
SWIDTH 585 0
DWIDTH 28 0
BBX 23 36 2 -1
BITMAP
07FFF0
07FFF0
07FFF0
07FFF0
07FFF0
000000
000000
000000
000000
007F00
03FFE0
0FFFF0
1FFFF8
1FFFFC
0F80FE
0E007E
04003E
00003E
00003E
00007E
01FFFE
07FFFE
1FFFFE
3FFFFE
3F803E
7E003E
7C003E
7C003E
FC007E
7C00FE
7E03FE
7FFFFE
3FFFFE
1FFFFE
0FFF3E
03FC00
ENDCHAR
STARTCHAR Abreve
ENCODING 258
SWIDTH 598 0
DWIDTH 29 0
BBX 28 44 0 0
BITMAP
01000800
03801C00
07C03C00
07F1FE00
03FFFC00
01FFF800
00FFE000
001F8000
00000000
00060000
000E0000
000F0000
000F0000
001F0000
001F8000
001F8000
003FC000
003FC000
003FC000
007FE000
007FE000
00FBF000
00F9F000
00F9F000
01F0F800
01F0F800
01E0FC00
03E07C00
03E07C00
03C07E00
07FFFE00
07FFFE00
0FFFFF00
0FFFFF00
0F801F80
1F801F80
1F000F80
1F000FC0
3F0007C0
3E0007E0
3E0007E0
7E0003E0
7C0003F0
FC0001F0
ENDCHAR
STARTCHAR abreve
ENCODING 259
SWIDTH 598 0
DWIDTH 29 0
BBX 23 38 2 -1
BITMAP
020010
070030
078078
0FC1FC
0FFFF8
07FFF0
01FFE0
007F80
000000
000000
000000
007F00
03FFE0
0FFFF0
1FFFF8
1FFFFC
0F80FE
0E007E
04003E
00003E
00003E
00007E
01FFFE
07FFFE
1FFFFE
3FFFFE
3F803E
7E003E
7C003E
7C003E
FC007E
7C00FE
7E03FE
7FFFFE
3FFFFE
1FFFFE
0FFF3E
03FC00
ENDCHAR
STARTCHAR Aogonek
ENCODING 260
SWIDTH 598 0
DWIDTH 29 0
BBX 28 45 0 -10
BITMAP
00060000
000E0000
000F0000
000F0000
001F0000
001F8000
001F8000
003FC000
003FC000
007FC000
007FE000
007FE000
00FBF000
00F9F000
00F1F000
01F0F800
01F0F800
01E0FC00
03E07C00
03E07C00
07C07E00
07FFFE00
07FFFF00
0FFFFF00
0FFFFF00
0F801F80
1F801F80
1F000F80
1F000FC0
3F0007C0
3E0007E0
3E0007E0
7E0003E0
7C0003F0
FC0001F0
000001F0
000003E0
00000780
00000F00
00000F00
00001E10
00001E30
00001FF0
00000FF0
000007C0
ENDCHAR
STARTCHAR aogonek
ENCODING 261
SWIDTH 598 0
DWIDTH 29 0
BBX 23 36 2 -10
BITMAP
007F00
03FFE0
0FFFF0
1FFFF8
1FFFFC
0F80FE
0E007E
04003E
00003E
00003E
00007E
01FFFE
07FFFE
1FFFFE
3FFFFE
3F803E
7E003E
7C003E
7C003E
FC007E
7C00FE
7E03FE
7FFFFE
3FFFFE
1FFFFE
0FFF3E
03FC3E
00007C
0000F8
0001F0
0001E0
0003C0
0003E6
0003FE
0001FE
0000FC
ENDCHAR
STARTCHAR Cacute
ENCODING 262
SWIDTH 598 0
DWIDTH 29 0
BBX 25 46 2 -1
BITMAP
00010000
000F8000
003FC000
00FFE000
03FF8000
01FC0000
01E00000
00800000
00000000
003F8000
00FFF000
03FFF800
07FFFC00
0FFFFE00
1FE07F00
1F803F80
3F001F80
3F000F80
7E000E00
7E000000
7C000000
7C000000
FC000000
FC000000
F8000000
F8000000
F8000000
F8000000
F8000000
F8000000
F8000000
FC000000
FC000000
7C000000
7C000000
7E000000
7E000000
3F000C00
3F800F00
1FC03F80
1FE07F00
0FFFFF00
07FFFE00
03FFF800
00FFF000
003F8000
ENDCHAR
STARTCHAR cacute
ENCODING 263
SWIDTH 598 0
DWIDTH 29 0
BBX 24 40 3 -1
BITMAP
000400
000700
000F80
001FC0
001F80
003F80
003F00
007E00
00FC00
00FC00
003800
001000
000000
007F80
01FFE0
07FFF8
0FFFFC
1FFFFE
3FC0FF
3F003E
7E001C
7E0018
FC0000
FC0000
FC0000
F80000
F80000
FC0000
FC0000
FC0000
FC0000
7E0000
7F0018
3F803C
3FE0FE
1FFFFE
0FFFFC
07FFF8
01FFE0
007F80
ENDCHAR
STARTCHAR Ccircumflex
ENCODING 264
SWIDTH 585 0
DWIDTH 28 0
BBX 25 46 2 -1
BITMAP
001C0000
003E0000
007F8000
01FFC000
03FFE000
07F7F000
0FC3F800
0780F000
02006000
003F8000
00FFF000
03FFF800
07FFFC00
0FFFFE00
1FE07F00
1F803F80
3F001F80
3F000F80
7E000E00
7E000000
7C000000
7C000000
FC000000
FC000000
F8000000
F8000000
F8000000
F8000000
F8000000
F8000000
F8000000
FC000000
FC000000
7C000000
7C000000
7E000000
7E000000
3F000C00
3F800F00
1FC03F80
1FE07F00
0FFFFF00
07FFFE00
03FFF800
00FFF000
003F8000
ENDCHAR
STARTCHAR ccircumflex
ENCODING 265
SWIDTH 585 0
DWIDTH 28 0
BBX 24 39 3 -1
BITMAP
003800
003C00
007E00
00FE00
01FF00
03FF80
03EFC0
07C7E0
0FC7E0
0783C0
030180
000000
007F80
01FFE0
07FFF8
0FFFFC
1FFFFE
3FC0FF
3F003E
7E001C
7E0018
FC0000
FC0000
FC0000
F80000
F80000
FC0000
FC0000
FC0000
FC0000
7E0000
7F0018
3F803C
3FE0FE
1FFFFE
0FFFFC
07FFF8
01FFE0
007F80
ENDCHAR
STARTCHAR Cdotaccent
ENCODING 266
SWIDTH 585 0
DWIDTH 28 0
BBX 25 45 2 -1
BITMAP
001E0000
003F0000
007F0000
007F0000
007F0000
003F0000
001C0000
00000000
003F8000
00FFF000
03FFF800
07FFFC00
0FFFFE00
1FE07F00
1F803F80
3F001F80
3F000F80
7E000E00
7E000000
7C000000
7C000000
FC000000
FC000000
F8000000
F8000000
F8000000
F8000000
F8000000
F8000000
F8000000
FC000000
FC000000
7C000000
7C000000
7E000000
7E000000
3F000C00
3F800F00
1FC03F80
1FE07F00
0FFFFF00
07FFFE00
03FFF800
00FFF000
003F8000
ENDCHAR
STARTCHAR cdotaccent
ENCODING 267
SWIDTH 585 0
DWIDTH 28 0
BBX 24 38 3 -1
BITMAP
003800
007E00
00FE00
00FE00
00FE00
007E00
003C00
000000
000000
000000
000000
007F80
01FFE0
07FFF8
0FFFFC
1FFFFE
3FC0FF
3F003E
7E001C
7E0018
FC0000
FC0000
FC0000
F80000
F80000
FC0000
FC0000
FC0000
FC0000
7E0000
7F0018
3F803C
3FE0FE
1FFFFE
0FFFFC
07FFF8
01FFE0
007F80
ENDCHAR
STARTCHAR Ccaron
ENCODING 268
SWIDTH 598 0
DWIDTH 29 0
BBX 25 48 2 -1
BITMAP
01801000
01C03800
03E0FC00
07F9FC00
01FFF800
00FFE000
007FC000
001F8000
000E0000
00000000
00000000
003F8000
00FFF000
03FFF800
07FFFC00
0FFFFE00
1FE07F00
1F803F80
3F001F80
3F000F80
7E000E00
7E000000
7C000000
7C000000
FC000000
FC000000
F8000000
F8000000
F8000000
F8000000
F8000000
F8000000
F8000000
FC000000
FC000000
7C000000
7C000000
7E000000
7E000000
3F000C00
3F800F00
1FC03F80
1FE07F00
0FFFFF00
07FFFE00
03FFF800
00FFF000
003F8000
ENDCHAR
STARTCHAR ccaron
ENCODING 269
SWIDTH 598 0
DWIDTH 29 0
BBX 24 41 3 -1
BITMAP
030180
0781E0
0FC3E0
07E7E0
03EFC0
03FF80
01FF00
00FE00
007E00
003C00
003800
000000
000000
000000
007F80
01FFE0
07FFF8
0FFFFC
1FFFFE
3FC0FF
3F003E
7E001C
7E0018
FC0000
FC0000
FC0000
F80000
F80000
FC0000
FC0000
FC0000
FC0000
7E0000
7F0018
3F803C
3FE0FE
1FFFFE
0FFFFC
07FFF8
01FFE0
007F80
ENDCHAR
STARTCHAR Dcaron
ENCODING 270
SWIDTH 598 0
DWIDTH 29 0
BBX 24 46 3 0
BITMAP
080080
1E03C0
3F07E0
3FDFE0
1FFF80
07FF00
03FE00
01F800
00F000
000000
000000
FFFC00
FFFF00
FFFFC0
FFFFE0
FFFFF0
F807F8
F801F8
F800FC
F800FC
F8007E
F8007E
F8003E
F8003E
F8003F
F8003F
F8003F
F8003F
F8003F
F8003F
F8003F
F8003F
F8003F
F8003E
F8003E
F8007E
F8007E
F800FC
F800FC
F801F8
F807F0
FFFFF0
FFFFE0
FFFFC0
FFFF00
FFF800
ENDCHAR
STARTCHAR dcaron
ENCODING 271
SWIDTH 598 0
DWIDTH 29 0
BBX 29 38 0 -1
BITMAP
00007CE0
00007DF0
00007DF8
00007FF8
00007DF8
00007CF8
00007C78
00007CF0
00007CF0
00007DE0
00007FC0
01F87D80
07FE7C00
0FFFFC00
1FFFFC00
3FFFFC00
3F03FC00
7E01FC00
7C00FC00
FC00FC00
FC00FC00
F8007C00
F8007C00
F8007C00
F8007C00
F8007C00
F8007C00
FC00FC00
FC00FC00
FC00FC00
7E01FC00
7F03FC00
3F87FC00
3FFFFC00
1FFFFC00
0FFF7C00
07FC7E00
01F00000
ENDCHAR
STARTCHAR Dcroat
ENCODING 272
SWIDTH 598 0
DWIDTH 29 0
BBX 26 35 1 0
BITMAP
1FFF0000
1FFFE000
1FFFF000
1FFFF800
1FFFFC00
1F00FE00
1F007F00
1F003F00
1F001F80
1F001F80
1F000F80
1F000F80
1F000FC0
1F0007C0
FFFC07C0
FFFC07C0
FFFC07C0
FFFC07C0
FFFC07C0
1F0007C0
1F0007C0
1F0007C0
1F000FC0
1F000F80
1F000F80
1F001F80
1F001F00
1F003F00
1F007E00
1F01FE00
1FFFFC00
1FFFF800
1FFFF000
1FFFC000
1FFF0000
ENDCHAR
STARTCHAR dcroat
ENCODING 273
SWIDTH 598 0
DWIDTH 29 0
BBX 26 38 2 -1
BITMAP
00003F00
00003F00
00003E00
00003E00
0003FFC0
0003FFC0
0003FFC0
0003FFC0
00003E00
00003E00
00003E00
00FC3E00
03FFBE00
0FFFFE00
1FFFFE00
3FFFFE00
3F01FE00
7E00FE00
7C007E00
FC007E00
FC007E00
F8003E00
F8003E00
F8003E00
F8003E00
F8003E00
F8003E00
FC003E00
FC007E00
7C007E00
7E00FE00
7F01FE00
3F83FE00
3FFFFE00
1FFFFE00
0FFFBE00
07FF3F00
00FC0000
ENDCHAR
STARTCHAR Emacron
ENCODING 274
SWIDTH 585 0
DWIDTH 28 0
BBX 23 44 3 0
BITMAP
0FFFE0
0FFFE0
0FFFE0
0FFFE0
0FFFE0
000000
000000
000000
000000
FFFFFE
FFFFFE
FFFFFE
FFFFFE
FFFFFE
F80000
F80000
F80000
F80000
F80000
F80000
F80000
F80000
F80000
FFFFF0
FFFFF0
FFFFF0
FFFFF0
FFFFF0
F80000
F80000
F80000
F80000
F80000
F80000
F80000
F80000
F80000
F80000
F80000
FFFFFE
FFFFFE
FFFFFE
FFFFFE
FFFFFE
ENDCHAR
STARTCHAR emacron
ENCODING 275
SWIDTH 585 0
DWIDTH 28 0
BBX 24 36 2 -1
BITMAP
07FFF0
07FFF0
07FFF0
07FFF0
07FFF0
000000
000000
000000
000000
007F00
01FFE0
07FFF0
0FFFF8
1FFFFC
1F80FC
3F007E
3E003E
7E003E
7C003F
7FFFFF
7FFFFF
FFFFFF
FFFFFF
FFFFFF
FC0000
7C0000
7C0000
7E0000
7E0008
3F001C
3FC07E
1FFFFE
0FFFFC
07FFF8
01FFF0
003F80
ENDCHAR
STARTCHAR Ebreve
ENCODING 276
SWIDTH 585 0
DWIDTH 28 0
BBX 23 44 3 0
BITMAP
080040
1C00E0
3E01E0
3F8FF0
1FFFE0
0FFFC0
07FF00
00FC00
000000
FFFFFE
FFFFFE
FFFFFE
FFFFFE
FFFFFE
F80000
F80000
F80000
F80000
F80000
F80000
F80000
F80000
F80000
FFFFF0
FFFFF0
FFFFF0
FFFFF0
FFFFF0
F80000
F80000
F80000
F80000
F80000
F80000
F80000
F80000
F80000
F80000
F80000
FFFFFE
FFFFFE
FFFFFE
FFFFFE
FFFFFE
ENDCHAR
STARTCHAR ebreve
ENCODING 277
SWIDTH 585 0
DWIDTH 28 0
BBX 24 38 2 -1
BITMAP
020010
070030
078078
0FC1FC
0FFFF8
07FFF0
01FFE0
007F80
000000
000000
000000
007F00
01FFE0
07FFF0
0FFFF8
1FFFFC
1F80FC
3F007E
3E003E
7E003E
7C003F
7FFFFF
7FFFFF
FFFFFF
FFFFFF
FFFFFF
FC0000
7C0000
7C0000
7E0000
7E0008
3F001C
3FC07E
1FFFFE
0FFFFC
07FFF8
01FFF0
003F80
ENDCHAR
STARTCHAR Edotaccent
ENCODING 278
SWIDTH 585 0
DWIDTH 28 0
BBX 23 44 3 0
BITMAP
003800
007E00
00FE00
00FE00
00FE00
007E00
003C00
000000
000000
FFFFFE
FFFFFE
FFFFFE
FFFFFE
FFFFFE
F80000
F80000
F80000
F80000
F80000
F80000
F80000
F80000
F80000
FFFFF0
FFFFF0
FFFFF0
FFFFF0
FFFFF0
F80000
F80000
F80000
F80000
F80000
F80000
F80000
F80000
F80000
F80000
F80000
FFFFFE
FFFFFE
FFFFFE
FFFFFE
FFFFFE
ENDCHAR
STARTCHAR edotaccent
ENCODING 279
SWIDTH 585 0
DWIDTH 28 0
BBX 24 38 2 -1
BITMAP
001C00
003F00
007F00
007F00
007F00
003F00
001E00
000000
000000
000000
000000
007F00
01FFE0
07FFF0
0FFFF8
1FFFFC
1F80FC
3F007E
3E003E
7E003E
7C003F
7FFFFF
7FFFFF
FFFFFF
FFFFFF
FFFFFF
FC0000
7C0000
7C0000
7E0000
7E0008
3F001C
3FC07E
1FFFFE
0FFFFC
07FFF8
01FFF0
003F80
ENDCHAR
STARTCHAR Eogonek
ENCODING 280
SWIDTH 598 0
DWIDTH 29 0
BBX 23 45 3 -10
BITMAP
FFFFFE
FFFFFE
FFFFFE
FFFFFE
FFFFFE
F80000
F80000
F80000
F80000
F80000
F80000
F80000
F80000
F80000
FFFFF0
FFFFF0
FFFFF0
FFFFF0
FFFFF0
F80000
F80000
F80000
F80000
F80000
F80000
F80000
F80000
F80000
F80000
F80000
FFFFFE
FFFFFE
FFFFFE
FFFFFE
FFFFFE
00007C
0000F8
0001F0
0003E0
0003C0
000780
0007CC
0003FC
0003FC
0001F8
ENDCHAR
STARTCHAR eogonek
ENCODING 281
SWIDTH 598 0
DWIDTH 29 0
BBX 24 36 2 -10
BITMAP
007F00
01FFE0
07FFF0
0FFFF8
1FFFFC
1F80FC
3F007E
3E003E
7E003E
7C003F
7FFFFF
7FFFFF
FFFFFF
FFFFFF
FFFFFF
FC0000
7C0000
7C0000
7E0000
7E0008
3F001C
3FC07E
1FFFFE
0FFFFE
07FFFC
01FFF8
003FF0
0001E0
0003E0
0003C0
000380
000780
0003C4
0003FC
0003FC
0001FC
ENDCHAR
STARTCHAR Ecaron
ENCODING 282
SWIDTH 598 0
DWIDTH 29 0
BBX 23 46 3 0
BITMAP
060000
0700E0
0FC3F0
0FE7F0
07FFE0
03FF80
01FF00
007E00
003800
000000
000000
FFFFFE
FFFFFE
FFFFFE
FFFFFE
FFFFFE
F80000
F80000
F80000
F80000
F80000
F80000
F80000
F80000
F80000
FFFFF0
FFFFF0
FFFFF0
FFFFF0
FFFFF0
F80000
F80000
F80000
F80000
F80000
F80000
F80000
F80000
F80000
F80000
F80000
FFFFFE
FFFFFE
FFFFFE
FFFFFE
FFFFFE
ENDCHAR
STARTCHAR ecaron
ENCODING 283
SWIDTH 598 0
DWIDTH 29 0
BBX 24 41 2 -1
BITMAP
0180C0
03C0F0
07E1F0
03F3F0
01F7E0
01FFC0
00FF80
007F00
003F00
001E00
001C00
000000
000000
000000
007F00
01FFE0
07FFF0
0FFFF8
1FFFFC
1F80FC
3F007E
3E003E
7E003E
7C003F
7FFFFF
7FFFFF
FFFFFF
FFFFFF
FFFFFF
FC0000
7C0000
7C0000
7E0000
7E0008
3F001C
3FC07E
1FFFFE
0FFFFC
07FFF8
01FFF0
003F80
ENDCHAR
STARTCHAR Gcircumflex
ENCODING 284
SWIDTH 585 0
DWIDTH 28 0
BBX 25 46 2 -1
BITMAP
001C0000
003E0000
007F8000
01FFC000
03FFE000
07F7F000
0FC3F800
0780F000
02006000
003F8000
00FFF000
03FFF800
07FFFC00
0FFFFE00
1FE07F00
1F803F80
3F001F00
3E000E00
7E000C00
7C000000
7C000000
FC000000
F8000000
F8000000
F8000000
F8000000
F8000000
F807FF80
F807FF80
F807FF80
F807FF80
F807FF80
FC000F80
FC000F80
7C000F80
7E000F80
7E000F80
3F000F80
3F000F80
3F801F80
1FE07F80
0FFFFF80
07FFFF00
03FFFE00
00FFF800
003FC000
ENDCHAR
STARTCHAR gcircumflex
ENCODING 285
SWIDTH 585 0
DWIDTH 28 0
BBX 26 48 2 -10
BITMAP
001C0000
001E0000
003F0000
007F0000
00FF8000
01FFC000
01F7E000
03E3F000
07E3F000
03C1E000
0180C000
00000000
00FC0F80
03FFBF80
0FFFFF80
1FFFFFC0
1F87FFC0
3E01F000
3E01F800
7C00F800
7C00F800
7C00F800
7E00F800
7E01F800
3F03F000
3FFFF000
1FFFE000
0FFFC000
0FFF8000
1FFC0000
3E000000
3E000000
3F000000
3FFFF000
1FFFFC00
1FFFFE00
3FFFFF00
7E003F00
7C001F00
F8001F00
F8001F00
F8001F00
FE007F00
FFE7FE00
7FFFFC00
3FFFF800
0FFFF000
01FF8000
ENDCHAR
STARTCHAR Gbreve
ENCODING 286
SWIDTH 598 0
DWIDTH 29 0
BBX 25 46 2 -1
BITMAP
02001000
07003800
0FC0FC00
0FFFF800
07FFF000
01FFE000
007F8000
00000000
00000000
003F8000
00FFF000
03FFF800
07FFFC00
0FFFFE00
1FE07F00
1F803F80
3F001F00
3E000E00
7E000C00
7C000000
7C000000
FC000000
F8000000
F8000000
F8000000
F8000000
F8000000
F807FF80
F807FF80
F807FF80
F807FF80
F807FF80
FC000F80
FC000F80
7C000F80
7E000F80
7E000F80
3F000F80
3F000F80
3F801F80
1FE07F80
0FFFFF80
07FFFF00
03FFFE00
00FFF800
003FC000
ENDCHAR
STARTCHAR gbreve
ENCODING 287
SWIDTH 598 0
DWIDTH 29 0
BBX 26 47 2 -10
BITMAP
02001000
07003000
07807800
0FC1FC00
0FFFF800
07FFF000
01FFE000
007F8000
00000000
00000000
00FC0380
03FF1F80
07FFFF80
0FFFFF80
1F87FFC0
3F01F800
3E01F000
7C00F800
7C00F800
7C00F800
7C00F800
7E01F800
3E01F800
3F03F000
1FFFF000
1FFFE000
0FFFC000
0FFF8000
1FFC0000
3E000000
3E000000
3E000000
3FFFE000
3FFFFC00
1FFFFE00
1FFFFF00
7E007F00
7C001F00
F8001F00
F8001F00
F8001F00
FE007F00
FFE7FE00
7FFFFC00
3FFFF800
0FFFF000
01FF8000
ENDCHAR
STARTCHAR Gdotaccent
ENCODING 288
SWIDTH 585 0
DWIDTH 28 0
BBX 25 45 2 -1
BITMAP
001E0000
003F0000
007F0000
007F0000
007F0000
003F0000
001C0000
00000000
003F8000
00FFF000
03FFF800
07FFFC00
0FFFFE00
1FE07F00
1F803F80
3F001F00
3E000E00
7E000C00
7C000000
7C000000
FC000000
F8000000
F8000000
F8000000
F8000000
F8000000
F807FF80
F807FF80
F807FF80
F807FF80
F807FF80
FC000F80
FC000F80
7C000F80
7E000F80
7E000F80
3F000F80
3F000F80
3F801F80
1FE07F80
0FFFFF80
07FFFF00
03FFFE00
00FFF800
003FC000
ENDCHAR
STARTCHAR gdotaccent
ENCODING 289
SWIDTH 585 0
DWIDTH 28 0
BBX 26 47 2 -10
BITMAP
001C0000
003F0000
007F0000
007F0000
007F0000
003F0000
001E0000
00000000
00000000
00000000
00FC0380
03FF1F80
07FFFF80
0FFFFF80
1F87FFC0
3F01F800
3E01F000
7C00F800
7C00F800
7C00F800
7C00F800
7E01F800
3E01F800
3F03F000
1FFFF000
1FFFE000
0FFFC000
0FFF8000
1FFC0000
3E000000
3E000000
3F000000
3FFFF000
1FFFFC00
1FFFFE00
3FFFFF00
7E003F00
7C001F00
F8001F00
F8001F00
F8001F00
FE007F00
FFE7FE00
7FFFFC00
3FFFF800
0FFFF000
01FF8000
ENDCHAR
STARTCHAR Gcommaaccent
ENCODING 290
SWIDTH 585 0
DWIDTH 28 0
BBX 25 45 2 -9
BITMAP
003F8000
00FFF000
03FFF800
07FFFC00
0FFFFE00
1FE07F00
1F803F80
3F001F00
3E000E00
7E000C00
7C000000
7C000000
FC000000
F8000000
F8000000
F8000000
F8000000
F8000000
F807FF80
F807FF80
F807FF80
F807FF80
F807FF80
FC000F80
FC000F80
7C000F80
7E000F80
7E000F80
3F000F80
3F000F80
3F801F80
1FE07F80
0FFFFF80
07FFFF00
03FFFE00
00FFF800
003FC000
003E0000
003E0000
003E0000
003E0000
003C0000
003C0000
003C0000
00380000
ENDCHAR
STARTCHAR gcommaaccent
ENCODING 291
SWIDTH 585 0
DWIDTH 28 0
BBX 26 46 2 -10
BITMAP
001E0000
001E0000
003E0000
003E0000
003E0000
003E0000
007E0000
007E0000
007C0000
00FC0380
03FF1F80
07FFFF80
0FFFFF80
1F87FFC0
3F01F800
3E01F000
7C00F800
7C00F800
7C00F800
7C00F800
7E01F800
3E01F800
3F03F000
1FFFF000
1FFFE000
0FFFC000
0FFF8000
1FFC0000
3E000000
3E000000
3F000000
3FFFF000
1FFFFC00
1FFFFE00
3FFFFF00
7E003F00
7C001F00
F8001F00
F8001F00
F8001F00
FE007F00
FFE7FE00
7FFFFC00
3FFFF800
0FFFF000
01FF8000
ENDCHAR
STARTCHAR Hcircumflex
ENCODING 292
SWIDTH 585 0
DWIDTH 28 0
BBX 23 44 3 0
BITMAP
003800
007E00
01FF00
03FF80
07FFE0
1FEFF0
1F83F0
0E01E0
040040
FC007E
FC007E
F8007E
F8007E
F8007E
F8007E
F8007E
F8007E
F8007E
F8007E
F8007E
F8007E
F8007E
F8007E
FFFFFE
FFFFFE
FFFFFE
FFFFFE
FFFFFE
F8007E
F8007E
F8007E
F8007E
F8007E
F8007E
F8007E
F8007E
F8007E
F8007E
F8007E
F8007E
F8007E
F8007E
F8007E
F8007E
ENDCHAR
STARTCHAR hcircumflex
ENCODING 293
SWIDTH 585 0
DWIDTH 28 0
BBX 21 44 4 0
BITMAP
007000
00F800
01FE00
07FF00
0FFF80
1FDFC0
3F0FE0
FE03C0
FC0180
F80000
F80000
F80000
F80000
F80000
F80000
F80000
F80000
F80000
F83F00
F8FFC0
FBFFE0
FFFFF0
FFFFF0
FFC3F8
FF01F8
FE01F8
FC00F8
F800F8
F800F8
F800F8
F800F8
F800F8
F800F8
F800F8
F800F8
F800F8
F800F8
F800F8
F800F8
F800F8
F800F8
F800F8
F800F8
F800F8
ENDCHAR
STARTCHAR Hbar
ENCODING 294
SWIDTH 598 0
DWIDTH 29 0
BBX 27 35 1 0
BITMAP
3F001F80
3F001F80
3E001F80
3E001F80
3E001F80
FFFFFFE0
FFFFFFE0
FFFFFFE0
FFFFFFE0
3E001F80
3E001F80
3E001F80
3E001F80
3E001F80
3FFFFF80
3FFFFF80
3FFFFF80
3FFFFF80
3FFFFF80
3E001F80
3E001F80
3E001F80
3E001F80
3E001F80
3E001F80
3E001F80
3E001F80
3E001F80
3E001F80
3E001F80
3E001F80
3E001F80
3E001F80
3E001F80
3E001F80
ENDCHAR
STARTCHAR hbar
ENCODING 295
SWIDTH 598 0
DWIDTH 29 0
BBX 26 37 1 0
BITMAP
0FC00000
0FC00000
0F800000
0F800000
FFFF0000
FFFF0000
FFFF0000
FFFF0000
0F800000
0F800000
0F800000
0F83F000
0F8FFC00
0F9FFE00
0FBFFF00
0FFFFF80
0FFC3F80
0FF01F80
0FE00F80
0FC00FC0
0FC00FC0
0FC00FC0
0F800FC0
0F800FC0
0F800FC0
0F800FC0
0F800FC0
0F800FC0
0F800FC0
0F800FC0
0F800FC0
0F800FC0
0F800FC0
0F800FC0
0F800FC0
0F800FC0
0F800FC0
ENDCHAR
STARTCHAR Itilde
ENCODING 296
SWIDTH 585 0
DWIDTH 28 0
BBX 21 45 4 0
BITMAP
07C000
1FF020
3FF8F0
7FFFF8
7FFFF0
387FE0
101FC0
000700
000000
000000
7FFFE0
7FFFE0
7FFFE0
7FFFE0
7FFFE0
01F000
01F000
01F000
01F000
01F000
01F000
01F000
01F000
01F000
01F000
01F000
01F000
01F000
01F000
01F000
01F000
01F000
01F000
01F000
01F000
01F000
01F000
01F000
01F000
01F000
FFFFF0
FFFFF0
FFFFF0
FFFFF0
FFFFF0
ENDCHAR
STARTCHAR itilde
ENCODING 297
SWIDTH 585 0
DWIDTH 28 0
BBX 20 39 5 0
BITMAP
038000
1FE000
3FF060
7FFFF0
FFFFF0
7C7FE0
103FC0
000700
000000
000000
000000
000000
000000
000000
7FF000
7FF000
7FF000
7FF000
7FF000
01F000
01F000
01F000
01F000
01F000
01F000
01F000
01F000
01F000
01F000
01F000
01F000
01F000
01F000
01F000
FFFFC0
FFFFC0
FFFFC0
FFFFC0
FFFFC0
ENDCHAR
STARTCHAR Imacron
ENCODING 298
SWIDTH 585 0
DWIDTH 28 0
BBX 20 44 4 0
BITMAP
1FFFC0
1FFFC0
1FFFC0
1FFFC0
1FFFC0
000000
000000
000000
000000
7FFFE0
7FFFE0
7FFFE0
7FFFE0
7FFFE0
01F000
01F000
01F000
01F000
01F000
01F000
01F000
01F000
01F000
01F000
01F000
01F000
01F000
01F000
01F000
01F000
01F000
01F000
01F000
01F000
01F000
01F000
01F000
01F000
01F000
FFFFF0
FFFFF0
FFFFF0
FFFFF0
FFFFF0
ENDCHAR
STARTCHAR imacron
ENCODING 299
SWIDTH 585 0
DWIDTH 28 0
BBX 18 34 5 0
BITMAP
3FFF80
3FFF80
3FFF80
3FFF80
3FFF80
000000
000000
000000
000000
7FF000
7FF000
7FF000
7FF000
7FF000
01F000
01F000
01F000
01F000
01F000
01F000
01F000
01F000
01F000
01F000
01F000
01F000
01F000
01F000
01F000
FFFFC0
FFFFC0
FFFFC0
FFFFC0
FFFFC0
ENDCHAR
STARTCHAR Ibreve
ENCODING 300
SWIDTH 585 0
DWIDTH 28 0
BBX 20 44 4 0
BITMAP
100080
3801C0
7C03C0
7F1FE0
3FFFC0
1FFF80
0FFE00
01F800
000000
7FFFE0
7FFFE0
7FFFE0
7FFFE0
7FFFE0
01F000
01F000
01F000
01F000
01F000
01F000
01F000
01F000
01F000
01F000
01F000
01F000
01F000
01F000
01F000
01F000
01F000
01F000
01F000
01F000
01F000
01F000
01F000
01F000
01F000
FFFFF0
FFFFF0
FFFFF0
FFFFF0
FFFFF0
ENDCHAR
STARTCHAR ibreve
ENCODING 301
SWIDTH 585 0
DWIDTH 28 0
BBX 19 37 5 0
BITMAP
100080
380180
3C03C0
7E0FE0
7FFFC0
3FFF80
0FFF00
03FC00
000000
000000
000000
000000
7FF000
7FF000
7FF000
7FF000
7FF000
01F000
01F000
01F000
01F000
01F000
01F000
01F000
01F000
01F000
01F000
01F000
01F000
01F000
01F000
01F000
FFFFC0
FFFFC0
FFFFC0
FFFFC0
FFFFC0
ENDCHAR
STARTCHAR Iogonek
ENCODING 302
SWIDTH 585 0
DWIDTH 28 0
BBX 20 45 4 -10
BITMAP
7FFFE0
7FFFE0
7FFFE0
7FFFE0
7FFFE0
01F000
01F000
01F000
01F000
01F000
01F000
01F000
01F000
01F000
01F000
01F000
01F000
01F000
01F000
01F000
01F000
01F000
01F000
01F000
01F000
01F000
01F000
01F000
01F000
01F000
FFFFF0
FFFFF0
FFFFF0
FFFFF0
FFFFF0
007C00
00F000
01E000
03C000
07C000
078400
078C00
07FC00
03FC00
01F000
ENDCHAR
STARTCHAR iogonek
ENCODING 303
SWIDTH 585 0
DWIDTH 28 0
BBX 18 47 5 -10
BITMAP
00E000
01F800
03F800
03F800
03F800
01F800
00F000
000000
000000
000000
000000
000000
7FF000
7FF000
7FF000
7FF000
7FF000
01F000
01F000
01F000
01F000
01F000
01F000
01F000
01F000
01F000
01F000
01F000
01F000
01F000
01F000
01F000
FFFFC0
FFFFC0
FFFFC0
FFFFC0
FFFFC0
00F800
01E000
03C000
078000
0F8000
0F0800
0F1800
0FF800
07F800
03E000
ENDCHAR
STARTCHAR Idotaccent
ENCODING 304
SWIDTH 598 0
DWIDTH 29 0
BBX 20 44 4 0
BITMAP
00F000
01F800
03F800
03F800
03F800
01F800
00F000
000000
000000
7FFFE0
7FFFE0
7FFFE0
7FFFE0
7FFFE0
01F000
01F000
01F000
01F000
01F000
01F000
01F000
01F000
01F000
01F000
01F000
01F000
01F000
01F000
01F000
01F000
01F000
01F000
01F000
01F000
01F000
01F000
01F000
01F000
01F000
FFFFF0
FFFFF0
FFFFF0
FFFFF0
FFFFF0
ENDCHAR
STARTCHAR dotlessi
ENCODING 305
SWIDTH 598 0
DWIDTH 29 0
BBX 18 25 5 0
BITMAP
7FF000
7FF000
7FF000
7FF000
7FF000
01F000
01F000
01F000
01F000
01F000
01F000
01F000
01F000
01F000
01F000
01F000
01F000
01F000
01F000
01F000
FFFFC0
FFFFC0
FFFFC0
FFFFC0
FFFFC0
ENDCHAR
STARTCHAR IJ
ENCODING 306
SWIDTH 598 0
DWIDTH 29 0
BBX 28 44 1 -9
BITMAP
FFFFFFF0
FFFFFFF0
FFFFFFF0
FFFFFFF0
FFFFFFF0
1F801F00
1F801F00
1F801F00
1F801F00
1F801F00
1F801F00
1F801F00
1F801F00
1F801F00
1F801F00
1F801F00
1F801F00
1F801F00
1F801F00
1F801F00
1F801F00
1F801F00
1F801F00
1F801F00
1F801F00
1F801F00
1F801F00
1F801F00
1F801F00
1F801F00
FFFC1F00
FFFC1F00
FFFC1F00
FFFC1F00
FFFC1F00
00001F00
00C01F00
01C03F00
03F07E00
07FFFE00
03FFFC00
01FFF800
007FF000
001FC000
ENDCHAR
STARTCHAR ij
ENCODING 307
SWIDTH 598 0
DWIDTH 29 0
BBX 26 47 1 -10
BITMAP
01C00F00
03F01F80
07F01F80
07F03FC0
07F01F80
03F01F80
01E00F00
00000000
00000000
00000000
00000000
00000000
FFFFFF80
FFFFFF80
FFFFFF80
FFFFFF80
FFFFFF80
03E01F80
03E01F80
03E01F80
03E01F80
03E01F80
03E01F80
03E01F80
03E01F80
03E01F80
03E01F80
03E01F80
03E01F80
03E01F80
03E01F80
03E01F80
FFFF1F80
FFFF1F80
FFFF1F80
FFFF1F80
FFFF1F80
00001F80
00801F00
00C03F00
01E03F00
03F0FF00
07FFFE00
03FFFC00
01FFF800
00FFF000
003F8000
ENDCHAR
STARTCHAR Jcircumflex
ENCODING 308
SWIDTH 585 0
DWIDTH 28 0
BBX 25 45 2 -1
BITMAP
001C0000
003F0000
00FF8000
01FFC000
03FFF000
0FF7F800
0FC1F800
0700F000
02002000
01FFFF80
01FFFF80
01FFFF80
01FFFF80
01FFFF80
0003E000
0003E000
0003E000
0003E000
0003E000
0003E000
0003E000
0003E000
0003E000
0003E000
0003E000
0003E000
0003E000
0003E000
0003E000
0003E000
0003E000
0003E000
0003E000
0003E000
0003E000
0003E000
1003E000
1807E000
3807E000
7E0FC000
FFFFC000
7FFF8000
3FFF0000
0FFE0000
03F80000
ENDCHAR
STARTCHAR jcircumflex
ENCODING 309
SWIDTH 585 0
DWIDTH 28 0
BBX 20 48 2 -10
BITMAP
000C00
001C00
003E00
007F00
007F80
00FFC0
01F7C0
03F7E0
07E3F0
07C1F0
0380E0
008080
000000
07FFF0
07FFF0
07FFF0
07FFF0
07FFF0
0003F0
0003F0
0003F0
0003F0
0003F0
0003F0
0003F0
0003F0
0003F0
0003F0
0003F0
0003F0
0003F0
0003F0
0003F0
0003F0
0003F0
0003F0
0003F0
0003F0
0003F0
1003F0
1803E0
3807E0
7E0FE0
FFFFC0
7FFF80
3FFF00
1FFE00
07F000
ENDCHAR
STARTCHAR Kcommaaccent
ENCODING 310
SWIDTH 585 0
DWIDTH 28 0
BBX 26 44 2 -9
BITMAP
FC003F80
FC003F00
FC007E00
FC00FC00
FC01F800
FC03F000
FC07F000
FC0FE000
FC1FC000
FC1F8000
FC3F0000
FC7E0000
FCFC0000
FDF80000
FFF00000
FFF00000
FFF80000
FFF80000
FEFC0000
FC7E0000
FC7E0000
FC3F0000
FC1F8000
FC1FC000
FC0FC000
FC07E000
FC07F000
FC03F800
FC01F800
FC01FC00
FC00FE00
FC007E00
FC007F00
FC003F80
FC3F1FC0
003F0000
003E0000
003E0000
003E0000
003C0000
003C0000
003C0000
003C0000
00380000
ENDCHAR
STARTCHAR kcommaaccent
ENCODING 311
SWIDTH 585 0
DWIDTH 28 0
BBX 25 46 3 -9
BITMAP
FC000000
FC000000
FC000000
FC000000
FC000000
FC000000
FC000000
FC000000
FC000000
FC000000
FC000000
FC007F00
FC00FE00
FC01FC00
FC03F800
FC07F000
FC0FC000
FC1F8000
FC3F0000
FC7E0000
FCFC0000
FDF80000
FFF80000
FFFC0000
FF7E0000
FE7F0000
FC3F8000
FC1FC000
FC0FC000
FC0FE000
FC07F000
FC03F800
FC01FC00
FC00FE00
FC00FF00
FC007F00
FC7E3F80
007E0000
007C0000
007C0000
007C0000
00780000
00780000
00780000
00780000
00700000
ENDCHAR
STARTCHAR kgreenlandic
ENCODING 312
SWIDTH 598 0
DWIDTH 29 0
BBX 25 25 3 0
BITMAP
FC007F00
FC00FE00
FC01F800
FC03F000
FC07E000
FC1FC000
FC3F8000
FC7F0000
FCFE0000
FDFC0000
FFF80000
FFFC0000
FFFE0000
FF7E0000
FE3F0000
FC1F8000
FC1FC000
FC0FE000
FC07F000
FC03F800
FC01FC00
FC00FE00
FC00FE00
FC007F00
FC003F80
ENDCHAR
STARTCHAR Lacute
ENCODING 313
SWIDTH 598 0
DWIDTH 29 0
BBX 23 45 3 0
BITMAP
000200
000F00
003F80
00FF80
07FF80
03FC00
03E000
018000
000000
000000
FC0000
FC0000
FC0000
FC0000
FC0000
FC0000
FC0000
FC0000
FC0000
FC0000
FC0000
FC0000
FC0000
FC0000
FC0000
FC0000
FC0000
FC0000
FC0000
FC0000
FC0000
FC0000
FC0000
FC0000
FC0000
FC0000
FC0000
FC0000
FC0000
FC0000
FFFFFE
FFFFFE
FFFFFE
FFFFFE
FFFFFE
ENDCHAR
STARTCHAR lacute
ENCODING 314
SWIDTH 598 0
DWIDTH 29 0
BBX 21 47 4 0
BITMAP
000400
001E00
007F00
01FF00
0FFF00
07F800
07C000
030000
000000
000000
FFF800
FFF800
FFF800
FFF800
FFF800
00F800
00F800
00F800
00F800
00F800
00F800
00F800
00F800
00F800
00F800
00F800
00F800
00F800
00F800
00F800
00F800
00F800
00F800
00F800
00F800
00F800
00F800
00F800
00F800
00F800
00F800
00F800
FFFFF8
FFFFF8
FFFFF8
FFFFF8
FFFFF8
ENDCHAR
STARTCHAR Lcommaaccent
ENCODING 315
SWIDTH 585 0
DWIDTH 28 0
BBX 23 44 3 -9
BITMAP
FC0000
FC0000
FC0000
FC0000
FC0000
FC0000
FC0000
FC0000
FC0000
FC0000
FC0000
FC0000
FC0000
FC0000
FC0000
FC0000
FC0000
FC0000
FC0000
FC0000
FC0000
FC0000
FC0000
FC0000
FC0000
FC0000
FC0000
FC0000
FC0000
FC0000
FFFFFE
FFFFFE
FFFFFE
FFFFFE
FFFFFE
007E00
007C00
007C00
007C00
007800
007800
007800
007800
007000
ENDCHAR
STARTCHAR lcommaaccent
ENCODING 316
SWIDTH 585 0
DWIDTH 28 0
BBX 21 46 4 -9
BITMAP
FFF800
FFF800
FFF800
FFF800
FFF800
00F800
00F800
00F800
00F800
00F800
00F800
00F800
00F800
00F800
00F800
00F800
00F800
00F800
00F800
00F800
00F800
00F800
00F800
00F800
00F800
00F800
00F800
00F800
00F800
00F800
00F800
00F800
FFFFF8
FFFFF8
FFFFF8
FFFFF8
FFFFF8
00FC00
00F800
00F800
00F800
00F000
00F000
00F000
00F000
00E000
ENDCHAR
STARTCHAR Lcaron
ENCODING 317
SWIDTH 598 0
DWIDTH 29 0
BBX 23 36 3 0
BITMAP
0000E0
FC01F8
FC01F8
FC01F8
FC01F8
FC00F8
FC0078
FC0070
FC00F0
FC01E0
FC03C0
FC0180
FC0000
FC0000
FC0000
FC0000
FC0000
FC0000
FC0000
FC0000
FC0000
FC0000
FC0000
FC0000
FC0000
FC0000
FC0000
FC0000
FC0000
FC0000
FC0000
FFFFFE
FFFFFE
FFFFFE
FFFFFE
FFFFFE
ENDCHAR
STARTCHAR lcaron
ENCODING 318
SWIDTH 598 0
DWIDTH 29 0
BBX 24 37 3 0
BITMAP
7FF81C
7FF83E
7FF83F
7FF83F
7FF83F
00F81F
00F80F
00F81E
00F81E
00F83C
00F878
00F830
00F800
00F800
00F800
00F800
00F800
00F800
00F800
00F800
00F800
00F800
00F800
00F800
00F800
00F800
00F800
00F800
00F800
00F800
00F800
00F800
FFFFF8
FFFFF8
FFFFF8
FFFFF8
FFFFF8
ENDCHAR
STARTCHAR Ldot
ENCODING 319
SWIDTH 585 0
DWIDTH 28 0
BBX 23 35 3 0
BITMAP
FC0000
FC0000
FC0000
FC0000
FC0000
FC0000
FC0000
FC0000
FC0000
FC0000
FC0000
FC0000
FC0000
FC0380
FC0FC0
FC0FE0
FC1FE0
FC1FE0
FC0FE0
FC0FE0
FC0780
FC0000
FC0000
FC0000
FC0000
FC0000
FC0000
FC0000
FC0000
FC0000
FFFFFE
FFFFFE
FFFFFE
FFFFFE
FFFFFE
ENDCHAR
STARTCHAR ldot
ENCODING 320
SWIDTH 585 0
DWIDTH 28 0
BBX 25 37 2 0
BITMAP
FFF80000
FFF80000
FFF80000
FFF80000
FFF80000
01F80000
01F80000
01F80000
01F80000
01F80000
01F80000
01F80000
01F80000
01F80000
01F80000
01F81E00
01F83F00
01F87F80
01F87F80
01F87F80
01F87F80
01F83F00
01F81E00
01F80000
01F80000
01F80000
01F80000
01F80000
01F80000
01F80000
01F80000
01F80000
FFFFF000
FFFFF000
FFFFF000
FFFFF000
FFFFF000
ENDCHAR
STARTCHAR Lslash
ENCODING 321
SWIDTH 598 0
DWIDTH 29 0
BBX 25 35 1 0
BITMAP
1F800000
1F800000
1F000000
1F000000
1F000000
1F000000
1F000000
1F000000
1F000000
1F000000
1F000000
1F000000
1F002000
1F01E000
1F0FE000
1FFFE000
1FFFE000
3FFF8000
FFFC0000
FFE00000
FF000000
FF000000
DF000000
1F000000
1F000000
1F000000
1F000000
1F000000
1F000000
1F000000
1FFFFF80
1FFFFF80
1FFFFF80
1FFFFF80
1FFFFF80
ENDCHAR
STARTCHAR lslash
ENCODING 322
SWIDTH 598 0
DWIDTH 29 0
BBX 21 37 4 0
BITMAP
FFF800
FFF800
FFF800
FFF800
FFF800
00F800
00F800
00F800
00F800
00F800
00F800
00F800
00F800
00F800
00F8C0
00FFC0
00FFC0
01FFC0
0FFFC0
1FFF00
1FF800
1FF800
1EF800
10F800
00F800
00F800
00F800
00F800
00F800
00F800
00F800
00F800
FFFFF8
FFFFF8
FFFFF8
FFFFF8
FFFFF8
ENDCHAR
STARTCHAR Nacute
ENCODING 323
SWIDTH 598 0
DWIDTH 29 0
BBX 23 44 3 0
BITMAP
000200
001F00
007F80
01FFC0
07FF00
03F800
03C000
010000
000000
F8003E
F8003E
FC003E
FC003E
FE003E
FF003E
FF003E
FF803E
FF803E
FFC03E
FFC03E
FBE03E
FBE03E
F9F03E
F9F83E
F8F83E
F87C3E
F87C3E
F83E3E
F83E3E
F81F3E
F81FBE
F80FBE
F80FFE
F807FE
F803FE
F803FE
F801FE
F801FE
F800FE
F800FE
F8007E
F8007E
F8003E
F8001E
ENDCHAR
STARTCHAR nacute
ENCODING 324
SWIDTH 598 0
DWIDTH 29 0
BBX 21 39 4 0
BITMAP
000800
000E00
001F00
003F80
003F00
007F00
007E00
00FC00
01F800
01F800
007000
002000
000000
003F00
F8FFC0
FBFFE0
FFFFF0
FFFFF0
FF83F8
FF01F8
FE01F8
FC00F8
F800F8
F800F8
F800F8
F800F8
F800F8
F800F8
F800F8
F800F8
F800F8
F800F8
F800F8
F800F8
F800F8
F800F8
F800F8
F800F8
F800F8
ENDCHAR
STARTCHAR Ncommaaccent
ENCODING 325
SWIDTH 585 0
DWIDTH 28 0
BBX 23 44 3 -9
BITMAP
F8003E
F8003E
FC003E
FC003E
FE003E
FF003E
FF003E
FF803E
FF803E
FFC03E
FFC03E
FBE03E
FBE03E
F9F03E
F9F83E
F8F83E
F87C3E
F87C3E
F83E3E
F83E3E
F81F3E
F81FBE
F80FBE
F80FFE
F807FE
F803FE
F803FE
F801FE
F801FE
F800FE
F800FE
F8007E
F8007E
F8003E
F87E1E
007E00
007C00
007C00
007C00
007800
007800
007800
007800
007000
ENDCHAR
STARTCHAR ncommaaccent
ENCODING 326
SWIDTH 585 0
DWIDTH 28 0
BBX 21 35 4 -9
BITMAP
003F00
F8FFC0
FBFFE0
FFFFF0
FFFFF0
FF83F8
FF01F8
FE01F8
FC00F8
F800F8
F800F8
F800F8
F800F8
F800F8
F800F8
F800F8
F800F8
F800F8
F800F8
F800F8
F800F8
F800F8
F800F8
F800F8
F800F8
F8FCF8
00FC00
00F800
00F800
00F800
00F000
00F000
00F000
00F000
00E000
ENDCHAR
STARTCHAR Ncaron
ENCODING 327
SWIDTH 598 0
DWIDTH 29 0
BBX 23 46 3 0
BITMAP
060000
0700E0
0FC3F0
0FE7F0
07FFE0
03FF80
01FF00
007E00
003800
000000
000000
F8003E
F8003E
FC003E
FC003E
FE003E
FF003E
FF003E
FF803E
FF803E
FFC03E
FFC03E
FBE03E
FBE03E
F9F03E
F9F83E
F8F83E
F87C3E
F87C3E
F83E3E
F83E3E
F81F3E
F81FBE
F80FBE
F80FFE
F807FE
F803FE
F803FE
F801FE
F801FE
F800FE
F800FE
F8007E
F8007E
F8003E
F8001E
ENDCHAR
STARTCHAR ncaron
ENCODING 328
SWIDTH 598 0
DWIDTH 29 0
BBX 21 40 4 0
BITMAP
060300
0F03C0
1F87C0
0FCFC0
07DF80
07FF00
03FE00
01FC00
00FC00
007800
007000
000000
000000
000000
003F00
F8FFC0
FBFFE0
FFFFF0
FFFFF0
FF83F8
FF01F8
FE01F8
FC00F8
F800F8
F800F8
F800F8
F800F8
F800F8
F800F8
F800F8
F800F8
F800F8
F800F8
F800F8
F800F8
F800F8
F800F8
F800F8
F800F8
F800F8
ENDCHAR
STARTCHAR napostrophe
ENCODING 329
SWIDTH 598 0
DWIDTH 29 0
BBX 29 35 0 0
BITMAP
3E000000
7F000000
7F800000
7F800000
7F800000
7F800000
3F800000
1F800000
1F000000
1F007E00
3EF8FF80
7CFBFFC0
F8FBFFE0
F0FFFFE0
20FF87F0
00FF03F0
00FE01F0
00FC01F0
00FC01F8
00FC01F8
00F801F8
00F801F8
00F801F8
00F801F8
00F801F8
00F801F8
00F801F8
00F801F8
00F801F8
00F801F8
00F801F8
00F801F8
00F801F8
00F801F8
00F801F8
ENDCHAR
STARTCHAR Eng
ENCODING 330
SWIDTH 598 0
DWIDTH 29 0
BBX 23 37 3 -1
BITMAP
003F00
F8FFE0
FBFFF0
FFFFF8
FFFFFC
FFC1FC
FF80FC
FE007E
FC007E
FC003E
F8003E
F8003E
F8003E
F8003E
F8003E
F8003E
F8003E
F8003E
F8003E
F8003E
F8003E
F8003E
F8003E
F8003E
F8003E
F8003E
F8003E
F8003E
F8003E
F8007E
F8007E
F830FC
F83FFC
F87FF8
F87FF8
F87FE0
001F80
ENDCHAR
STARTCHAR eng
ENCODING 331
SWIDTH 598 0
DWIDTH 29 0
BBX 21 36 4 -10
BITMAP
003F00
F8FFC0
FBFFE0
FFFFF0
FFFFF0
FF83F8
FF01F8
FE01F8
FC00F8
F800F8
F800F8
F800F8
F800F8
F800F8
F800F8
F800F8
F800F8
F800F8
F800F8
F800F8
F800F8
F800F8
F800F8
F800F8
F800F8
F800F8
0000F8
0001F8
0001F8
0103F0
03C7F0
03FFE0
07FFC0
07FFC0
03FF00
00FC00
ENDCHAR
STARTCHAR Omacron
ENCODING 332
SWIDTH 585 0
DWIDTH 28 0
BBX 26 46 1 -1
BITMAP
03FFF800
03FFF800
03FFF800
03FFF800
03FFF800
00000000
00000000
00000000
00000000
003F8000
00FFE000
03FFF800
07FFFC00
0FFFFE00
0FE0FF00
1FC07F00
3F803F80
3F001F80
3E001F80
7E000FC0
7C000FC0
7C000FC0
7C0007C0
7C0007C0
FC0007C0
FC0007C0
FC0007C0
FC0007C0
FC0007C0
FC0007C0
7C0007C0
7C0007C0
7C0007C0
7C0007C0
7E000FC0
7E000FC0
3E000F80
3F001F80
1F803F80
1FC07F00
0FF1FE00
0FFFFE00
07FFFC00
03FFF800
00FFE000
003F8000
ENDCHAR
STARTCHAR omacron
ENCODING 333
SWIDTH 598 0
DWIDTH 29 0
BBX 25 36 2 -1
BITMAP
07FFF000
07FFF000
07FFF000
07FFF000
07FFF000
00000000
00000000
00000000
00000000
007F0000
01FFC000
07FFF000
0FFFF800
1FFFFC00
3FC1FE00
3F007E00
7E003F00
7E003F00
7C001F00
FC001F80
FC001F80
FC001F80
FC001F80
FC001F80
FC001F80
FC001F80
FC001F00
7E003F00
7F003F00
3F807E00
3FC1FE00
1FFFFC00
0FFFF800
07FFF000
01FFE000
007F0000
ENDCHAR
STARTCHAR Obreve
ENCODING 334
SWIDTH 585 0
DWIDTH 28 0
BBX 26 46 1 -1
BITMAP
02001000
07003800
0F807800
0FE3FC00
07FFF800
03FFF000
01FFC000
003F0000
00000000
003F8000
00FFE000
03FFF800
07FFFC00
0FFFFE00
0FE0FF00
1FC07F00
3F803F80
3F001F80
3E001F80
7E000FC0
7C000FC0
7C000FC0
7C0007C0
7C0007C0
FC0007C0
FC0007C0
FC0007C0
FC0007C0
FC0007C0
FC0007C0
7C0007C0
7C0007C0
7C0007C0
7C0007C0
7E000FC0
7E000FC0
3E000F80
3F001F80
1F803F80
1FC07F00
0FF1FE00
0FFFFE00
07FFFC00
03FFF800
00FFE000
003F8000
ENDCHAR
STARTCHAR obreve
ENCODING 335
SWIDTH 585 0
DWIDTH 28 0
BBX 25 38 2 -1
BITMAP
02001000
07003000
07807800
0FC1FC00
0FFFF800
07FFF000
01FFE000
007F8000
00000000
00000000
00000000
007F0000
01FFC000
07FFF000
0FFFF800
1FFFFC00
3FC1FE00
3F007E00
7E003F00
7E003F00
7C001F00
FC001F80
FC001F80
FC001F80
FC001F80
FC001F80
FC001F80
FC001F80
FC001F00
7E003F00
7F003F00
3F807E00
3FC1FE00
1FFFFC00
0FFFF800
07FFF000
01FFE000
007F0000
ENDCHAR
STARTCHAR Ohungarumlaut
ENCODING 336
SWIDTH 598 0
DWIDTH 29 0
BBX 26 47 1 -1
BITMAP
00180700
003C0F80
007C1F80
01FE3FC0
03FE7F80
07F8FF00
0FE1FC00
0F81F000
0200C000
00000000
003F8000
00FFE000
03FFF800
07FFFC00
0FFFFE00
0FE0FF00
1FC07F00
3F803F80
3F001F80
3E001F80
7E000FC0
7C000FC0
7C000FC0
7C0007C0
7C0007C0
FC0007C0
FC0007C0
FC0007C0
FC0007C0
FC0007C0
FC0007C0
7C0007C0
7C0007C0
7C0007C0
7C0007C0
7E000FC0
7E000FC0
3E000F80
3F001F80
1F803F80
1FC07F00
0FF1FE00
0FFFFE00
07FFFC00
03FFF800
00FFE000
003F8000
ENDCHAR
STARTCHAR ohungarumlaut
ENCODING 337
SWIDTH 598 0
DWIDTH 29 0
BBX 25 40 2 -1
BITMAP
00203000
00703800
007C7E00
00FE7E00
01FCFE00
01F9FC00
03F1F800
03F3F000
07E3F000
07C7E000
0381C000
00800000
00000000
007F0000
01FFC000
07FFF000
0FFFF800
1FFFFC00
3FC1FE00
3F007E00
7E003F00
7E003F00
7C001F00
FC001F80
FC001F80
FC001F80
FC001F80
FC001F80
FC001F80
FC001F80
FC001F00
7E003F00
7F003F00
3F807E00
3FC1FE00
1FFFFC00
0FFFF800
07FFF000
01FFE000
007F0000
ENDCHAR
STARTCHAR OE
ENCODING 338
SWIDTH 598 0
DWIDTH 29 0
BBX 28 37 0 -1
BITMAP
00C00000
03FBFFF0
07FFFFF0
0FFFFFF0
1FFFFFF0
1F9FFFF0
3F0FE000
3E07E000
7E07E000
7C03E000
7C03E000
7C03E000
7C03E000
7C03E000
F803E000
F803E000
F803FFE0
F803FFE0
F803FFE0
F803FFE0
F803FFE0
F803E000
F803E000
FC03E000
7C03E000
7C03E000
7C03E000
7C03E000
7E03E000
7E03E000
3F07E000
3F8FFFF0
1FFFFFF0
1FFFFFF0
0FFFFFF0
07FFFFF0
01F80000
ENDCHAR
STARTCHAR oe
ENCODING 339
SWIDTH 598 0
DWIDTH 29 0
BBX 29 27 0 -1
BITMAP
03F07E00
07FDFF80
1FFFFFC0
1FFFFFE0
3FFFEFE0
7E1F83F0
7C1F81F0
7C1F00F0
F81F00F0
F81F00F0
F81FFFF0
F81FFFF0
F81FFFF0
F81FFFF0
F81FFFF0
F81F0000
F81F0000
F81F0000
FC1F0000
7C1F0000
7C0F8000
7E1FC060
3FFFF3F0
3FFFFFF8
1FFFFFF0
0FFDFFC0
03F03F00
ENDCHAR
STARTCHAR Racute
ENCODING 340
SWIDTH 598 0
DWIDTH 29 0
BBX 24 45 3 0
BITMAP
000200
000F00
003F80
00FF80
07FF80
03FC00
03E000
018000
000000
000000
FFFF00
FFFFC0
FFFFF0
FFFFF8
FFFFFC
F803FC
F800FC
F8007E
F8007E
F8003E
F8003E
F8007E
F8007E
F800FC
F801FC
FFFFF8
FFFFF8
FFFFF0
FFFFC0
FFFF00
F81F80
F80F80
F80FC0
F807C0
F807E0
F803F0
F803F0
F801F8
F801F8
F800FC
F800FC
F8007E
F8007E
F8003F
F8003F
ENDCHAR
STARTCHAR racute
ENCODING 341
SWIDTH 598 0
DWIDTH 29 0
BBX 22 39 5 0
BITMAP
001000
001C00
003E00
007F00
007E00
00FE00
00FC00
01F800
03F000
03F000
00E000
004000
000000
001F80
FCFFF0
FDFFF8
FFFFFC
FFFFF8
FFE0F8
FF8030
FF0030
FE0000
FE0000
FC0000
FC0000
FC0000
FC0000
FC0000
FC0000
FC0000
FC0000
FC0000
FC0000
FC0000
FC0000
FC0000
FC0000
FC0000
FC0000
ENDCHAR
STARTCHAR Rcommaaccent
ENCODING 342
SWIDTH 585 0
DWIDTH 28 0
BBX 24 44 3 -9
BITMAP
FFFF00
FFFFC0
FFFFF0
FFFFF8
FFFFFC
F803FC
F800FC
F8007E
F8007E
F8003E
F8003E
F8007E
F8007E
F800FC
F801FC
FFFFF8
FFFFF8
FFFFF0
FFFFC0
FFFF00
F81F80
F80F80
F80FC0
F807C0
F807E0
F803F0
F803F0
F801F8
F801F8
F800FC
F800FC
F8007E
F8007E
F8003F
F87E3F
007E00
007C00
007C00
007C00
007800
007800
007800
007800
007000
ENDCHAR
STARTCHAR rcommaaccent
ENCODING 343
SWIDTH 585 0
DWIDTH 28 0
BBX 22 35 5 -9
BITMAP
001F80
FCFFF0
FDFFF8
FFFFFC
FFFFF8
FFE0F8
FF8030
FF0030
FE0000
FE0000
FC0000
FC0000
FC0000
FC0000
FC0000
FC0000
FC0000
FC0000
FC0000
FC0000
FC0000
FC0000
FC0000
FC0000
FC0000
FDF800
01F800
01F000
01F000
01F000
01E000
01E000
01E000
01E000
01C000
ENDCHAR
STARTCHAR Rcaron
ENCODING 344
SWIDTH 598 0
DWIDTH 29 0
BBX 24 46 3 0
BITMAP
060000
0700E0
0FC3F0
0FE7F0
07FFE0
03FF80
01FF00
007E00
003800
000000
000000
FFFF00
FFFFC0
FFFFF0
FFFFF8
FFFFFC
F803FC
F800FC
F8007E
F8007E
F8003E
F8003E
F8007E
F8007E
F800FC
F801FC
FFFFF8
FFFFF8
FFFFF0
FFFFC0
FFFF00
F81F80
F80F80
F80FC0
F807C0
F807E0
F803F0
F803F0
F801F8
F801F8
F800FC
F800FC
F8007E
F8007E
F8003F
F8003F
ENDCHAR
STARTCHAR rcaron
ENCODING 345
SWIDTH 598 0
DWIDTH 29 0
BBX 22 40 5 0
BITMAP
0C0600
1E0780
3F0F80
1F9F80
0FBF00
0FFE00
07FC00
03F800
01F800
00F000
00E000
000000
000000
000000
001F80
FCFFF0
FDFFF8
FFFFFC
FFFFF8
FFE0F8
FF8030
FF0030
FE0000
FE0000
FC0000
FC0000
FC0000
FC0000
FC0000
FC0000
FC0000
FC0000
FC0000
FC0000
FC0000
FC0000
FC0000
FC0000
FC0000
FC0000
ENDCHAR
STARTCHAR Sacute
ENCODING 346
SWIDTH 598 0
DWIDTH 29 0
BBX 24 47 3 -1
BITMAP
000200
000F00
003F80
00FF80
07FF80
03FC00
03E000
018000
000000
000000
00FF00
03FFC0
0FFFF0
1FFFF8
3FFFFC
3F00FC
7E0078
7C0038
7C0010
7C0000
7E0000
7E0000
7F0000
3FC000
1FF000
0FFC00
07FF00
03FFC0
00FFF0
003FF8
0007FC
0001FC
0000FE
00007E
00003E
00003E
20003F
30003E
70003E
78007E
FC00FE
FF03FC
FFFFFC
7FFFF8
3FFFF0
0FFFC0
01FE00
ENDCHAR
STARTCHAR sacute
ENCODING 347
SWIDTH 598 0
DWIDTH 29 0
BBX 23 40 3 -1
BITMAP
000400
000700
000F80
001FC0
001F80
003F80
003F00
007E00
00FC00
00FC00
003800
001000
000000
00FF00
07FFC0
0FFFF0
1FFFF8
3FE7FC
3F00FC
3E0078
3E0038
3F0030
3F8000
3FF000
1FFF00
0FFFC0
03FFF0
007FF8
000FFC
0001FC
0000FE
30007E
70007E
7C00FC
FF01FC
FFFFFC
7FFFF8
3FFFF0
0FFFC0
01FF00
ENDCHAR
STARTCHAR Scircumflex
ENCODING 348
SWIDTH 585 0
DWIDTH 28 0
BBX 24 46 3 -1
BITMAP
003800
007C00
00FF00
03FF80
07FFC0
0FEFE0
1F87F0
0F01E0
0400C0
00FF00
03FFC0
0FFFF0
1FFFF8
3FFFFC
3F00FC
7E0078
7C0038
7C0010
7C0000
7E0000
7E0000
7F0000
3FC000
1FF000
0FFC00
07FF00
03FFC0
00FFF0
003FF8
0007FC
0001FC
0000FE
00007E
00003E
00003E
20003F
30003E
70003E
78007E
FC00FE
FF03FC
FFFFFC
7FFFF8
3FFFF0
0FFFC0
01FE00
ENDCHAR
STARTCHAR scircumflex
ENCODING 349
SWIDTH 585 0
DWIDTH 28 0
BBX 23 39 3 -1
BITMAP
003800
003C00
007E00
00FE00
01FF00
03FF80
03EFC0
07C7E0
0FC7E0
0783C0
030180
000000
00FF00
07FFC0
0FFFF0
1FFFF8
3FE7FC
3F00FC
3E0078
3E0038
3F0030
3F8000
3FF000
1FFF00
0FFFC0
03FFF0
007FF8
000FFC
0001FC
0000FE
30007E
70007E
7C00FC
FF01FC
FFFFFC
7FFFF8
3FFFF0
0FFFC0
01FF00
ENDCHAR
STARTCHAR Scedilla
ENCODING 350
SWIDTH 598 0
DWIDTH 29 0
BBX 24 46 3 -10
BITMAP
00FF00
03FFC0
0FFFF0
1FFFF8
3FFFFC
3F00FC
7E0078
7C0038
7C0010
7C0000
7E0000
7E0000
7F0000
3FC000
1FF000
0FFC00
07FF00
03FFC0
00FFF0
003FF8
0007FC
0001FC
0000FE
00007E
00003E
00003E
20003F
30003E
70003E
78007E
FC00FE
FF03FC
FFFFFC
7FFFF8
3FFFF0
0FFFC0
01FE00
003800
003800
003E00
007F80
007F80
070380
0FFF80
07FF00
00FC00
ENDCHAR
STARTCHAR scedilla
ENCODING 351
SWIDTH 598 0
DWIDTH 29 0
BBX 23 36 3 -10
BITMAP
00FF00
07FFC0
0FFFF0
1FFFF8
3FE7FC
3F00FC
3E0078
3E0038
3F0030
3F8000
3FF000
1FFF00
0FFFC0
03FFF0
007FF8
000FFC
0001FC
0000FE
30007E
70007E
7C00FC
FF01FC
FFFFFC
7FFFF8
3FFFF0
0FFFC0
01FF00
003800
003800
003F00
003F80
003FC0
0703C0
07FF80
07FF00
00FE00
ENDCHAR
STARTCHAR Scaron
ENCODING 352
SWIDTH 598 0
DWIDTH 29 0
BBX 24 48 3 -1
BITMAP
020020
0700F0
0FC1F0
0FE7F0
07FFE0
03FFC0
00FF00
007E00
003C00
000000
000000
00FF00
03FFC0
0FFFF0
1FFFF8
3FFFFC
3F00FC
7E0078
7C0038
7C0010
7C0000
7E0000
7E0000
7F0000
3FC000
1FF000
0FFC00
07FF00
03FFC0
00FFF0
003FF8
0007FC
0001FC
0000FE
00007E
00003E
00003E
20003F
30003E
70003E
78007E
FC00FE
FF03FC
FFFFFC
7FFFF8
3FFFF0
0FFFC0
01FE00
ENDCHAR
STARTCHAR scaron
ENCODING 353
SWIDTH 598 0
DWIDTH 29 0
BBX 23 41 3 -1
BITMAP
030180
0781E0
0FC3E0
07E7E0
03EFC0
03FF80
01FF00
00FE00
007E00
003C00
003800
000000
000000
000000
00FF00
07FFC0
0FFFF0
1FFFF8
3FE7FC
3F00FC
3E0078
3E0038
3F0030
3F8000
3FF000
1FFF00
0FFFC0
03FFF0
007FF8
000FFC
0001FC
0000FE
30007E
70007E
7C00FC
FF01FC
FFFFFC
7FFFF8
3FFFF0
0FFFC0
01FF00
ENDCHAR
STARTCHAR Tcedilla
ENCODING 354
SWIDTH 598 0
DWIDTH 29 0
BBX 26 45 1 -10
BITMAP
FFFFFFC0
FFFFFFC0
FFFFFFC0
FFFFFFC0
FFFFFFC0
003F0000
003F0000
003F0000
003F0000
003F0000
003F0000
003F0000
003F0000
003F0000
003F0000
003F0000
003F0000
003F0000
003F0000
003F0000
003F0000
003F0000
003F0000
003F0000
003F0000
003F0000
003F0000
003F0000
003F0000
003F0000
003F0000
003F0000
003F0000
003F0000
003F0000
000E0000
001C0000
001F0000
001FC000
001FE000
0101E000
03C1E000
03FFE000
01FFC000
007F0000
ENDCHAR
STARTCHAR tcedilla
ENCODING 355
SWIDTH 598 0
DWIDTH 29 0
BBX 22 43 4 -10
BITMAP
001000
03F000
03F000
03F000
03E000
03E000
03E000
03E000
FFFFE0
FFFFE0
FFFFE0
FFFFE0
FFFFE0
07E000
07E000
07E000
07E000
07E000
07E000
07E000
07E000
07E000
07E000
07E000
07E000
07E000
07E000
07E038
07F0F8
03FFFC
03FFFC
01FFF8
00FFE0
003F80
000E00
001C00
001F80
001FC0
011FE0
01C1E0
03FFE0
01FFC0
007F00
ENDCHAR
STARTCHAR Tcaron
ENCODING 356
SWIDTH 598 0
DWIDTH 29 0
BBX 26 46 1 0
BITMAP
01800000
01C03800
03F0FC00
03F9FC00
01FFF800
00FFE000
007FC000
001F8000
000E0000
00000000
00000000
FFFFFFC0
FFFFFFC0
FFFFFFC0
FFFFFFC0
FFFFFFC0
003F0000
003F0000
003F0000
003F0000
003F0000
003F0000
003F0000
003F0000
003F0000
003F0000
003F0000
003F0000
003F0000
003F0000
003F0000
003F0000
003F0000
003F0000
003F0000
003F0000
003F0000
003F0000
003F0000
003F0000
003F0000
003F0000
003F0000
003F0000
003F0000
003F0000
ENDCHAR
STARTCHAR tcaron
ENCODING 357
SWIDTH 598 0
DWIDTH 29 0
BBX 26 40 2 -1
BITMAP
00000F00
00001F80
00001F80
00001FC0
00001FC0
00000FC0
00100780
01F80780
01F00F00
01F01E00
01F03C00
01F00800
03F00000
03F00000
FFFFF000
FFFFF000
FFFFF000
FFFFF000
FFFFF000
03E00000
03E00000
03E00000
03E00000
03E00000
03E00000
03E00000
03E00000
03E00000
03E00000
03E00000
03E00000
03E00000
03E00800
03F01800
03F87C00
03FFFC00
01FFFE00
01FFFC00
007FF000
001F8000
ENDCHAR
STARTCHAR Tbar
ENCODING 358
SWIDTH 598 0
DWIDTH 29 0
BBX 26 35 1 0
BITMAP
FFFFFFC0
FFFFFFC0
FFFFFFC0
FFFFFFC0
FFFFFFC0
003F0000
003F0000
003F0000
003F0000
003F0000
003F0000
003F0000
003F0000
003F0000
1FFFFF00
1FFFFF00
1FFFFF00
1FFFFF00
1FFFFF00
003F0000
003F0000
003F0000
003F0000
003F0000
003F0000
003F0000
003F0000
003F0000
003F0000
003F0000
003F0000
003F0000
003F0000
003F0000
003F0000
ENDCHAR
STARTCHAR tbar
ENCODING 359
SWIDTH 598 0
DWIDTH 29 0
BBX 22 34 4 -1
BITMAP
001000
03F000
03F000
03F000
03E000
03E000
03E000
03E000
FFFFE0
FFFFE0
FFFFE0
FFFFE0
FFFFE0
07E000
07E000
07E000
07E000
FFFFC0
FFFFC0
FFFFC0
FFFFC0
FFFFC0
07E000
07E000
07E000
07E000
07E000
07E038
07F0F8
03FFFC
03FFFC
01FFF8
00FFE0
003F80
ENDCHAR
STARTCHAR Utilde
ENCODING 360
SWIDTH 585 0
DWIDTH 28 0
BBX 23 46 3 -1
BITMAP
03E000
0FF810
1FFC78
3FFFFC
3FFFF8
1C3FF0
080FE0
000380
000000
000000
F8003E
F8003E
F8003E
F8003E
F8003E
F8003E
F8003E
F8003E
F8003E
F8003E
F8003E
F8003E
F8003E
F8003E
F8003E
F8003E
F8003E
F8003E
F8003E
F8003E
F8003E
F8003E
F8003E
F8003E
F8003E
F8003E
F8003E
F8003E
FC007E
FE00FC
7F01FC
3FFFF8
3FFFF0
0FFFE0
07FFC0
00FE00
ENDCHAR
STARTCHAR utilde
ENCODING 361
SWIDTH 585 0
DWIDTH 28 0
BBX 23 40 3 -1
BITMAP
00E000
07F800
0FFC18
1FFFFC
3FFFFC
1F1FF8
040FF0
0001C0
000000
000000
000000
000000
000000
000000
FC007C
FC007C
FC007C
FC007C
FC007C
FC007C
FC007C
FC007C
FC007C
FC007C
FC007C
FC007C
FC007C
FC007C
FC007C
FC007C
FC007C
FC00FC
7C00FC
7E01FC
7F03FC
3FFFFC
3FFFFC
1FFF7C
07FE7E
01F800
ENDCHAR
STARTCHAR Umacron
ENCODING 362
SWIDTH 585 0
DWIDTH 28 0
BBX 23 45 3 -1
BITMAP
0FFFE0
0FFFE0
0FFFE0
0FFFE0
0FFFE0
000000
000000
000000
000000
F8003E
F8003E
F8003E
F8003E
F8003E
F8003E
F8003E
F8003E
F8003E
F8003E
F8003E
F8003E
F8003E
F8003E
F8003E
F8003E
F8003E
F8003E
F8003E
F8003E
F8003E
F8003E
F8003E
F8003E
F8003E
F8003E
F8003E
F8003E
FC007E
FE00FC
7F01FC
3FFFF8
3FFFF0
0FFFE0
07FFC0
00FE00
ENDCHAR
STARTCHAR umacron
ENCODING 363
SWIDTH 585 0
DWIDTH 28 0
BBX 23 35 3 -1
BITMAP
0FFFE0
0FFFE0
0FFFE0
0FFFE0
0FFFE0
000000
000000
000000
000000
FC007C
FC007C
FC007C
FC007C
FC007C
FC007C
FC007C
FC007C
FC007C
FC007C
FC007C
FC007C
FC007C
FC007C
FC007C
FC007C
FC007C
FC00FC
7C00FC
7E01FC
7F03FC
3FFFFC
3FFFFC
1FFF7C
07FE7E
01F800
ENDCHAR
STARTCHAR Ubreve
ENCODING 364
SWIDTH 585 0
DWIDTH 28 0
BBX 23 45 3 -1
BITMAP
080040
1C00E0
3E01E0
3F8FF0
1FFFE0
0FFFC0
07FF00
00FC00
000000
F8003E
F8003E
F8003E
F8003E
F8003E
F8003E
F8003E
F8003E
F8003E
F8003E
F8003E
F8003E
F8003E
F8003E
F8003E
F8003E
F8003E
F8003E
F8003E
F8003E
F8003E
F8003E
F8003E
F8003E
F8003E
F8003E
F8003E
F8003E
FC007E
FE00FC
7F01FC
3FFFF8
3FFFF0
0FFFE0
07FFC0
00FE00
ENDCHAR
STARTCHAR ubreve
ENCODING 365
SWIDTH 585 0
DWIDTH 28 0
BBX 23 38 3 -1
BITMAP
040020
0E0060
0F00F0
1F83F8
1FFFF0
0FFFE0
03FFC0
00FF00
000000
000000
000000
000000
FC007C
FC007C
FC007C
FC007C
FC007C
FC007C
FC007C
FC007C
FC007C
FC007C
FC007C
FC007C
FC007C
FC007C
FC007C
FC007C
FC007C
FC00FC
7C00FC
7E01FC
7F03FC
3FFFFC
3FFFFC
1FFF7C
07FE7E
01F800
ENDCHAR
STARTCHAR Uring
ENCODING 366
SWIDTH 598 0
DWIDTH 29 0
BBX 23 46 3 -1
BITMAP
007800
00FE00
01FF00
01C780
03C780
03C380
03C780
03C780
01FF00
00FE00
F87C3E
F8003E
F8003E
F8003E
F8003E
F8003E
F8003E
F8003E
F8003E
F8003E
F8003E
F8003E
F8003E
F8003E
F8003E
F8003E
F8003E
F8003E
F8003E
F8003E
F8003E
F8003E
F8003E
F8003E
F8003E
F8003E
F8003E
F8003E
FC007E
FE00FC
7F01FC
3FFFF8
3FFFF0
0FFFE0
07FFC0
00FE00
ENDCHAR
STARTCHAR uring
ENCODING 367
SWIDTH 598 0
DWIDTH 29 0
BBX 23 39 3 -1
BITMAP
007C00
00FF00
01FF00
01C780
03C380
03C380
01C780
01FF00
00FF00
007C00
000000
000000
000000
FC007C
FC007C
FC007C
FC007C
FC007C
FC007C
FC007C
FC007C
FC007C
FC007C
FC007C
FC007C
FC007C
FC007C
FC007C
FC007C
FC007C
FC00FC
7C00FC
7E01FC
7F03FC
3FFFFC
3FFFFC
1FFF7C
07FE7E
01F800
ENDCHAR
STARTCHAR Uhungarumlaut
ENCODING 368
SWIDTH 598 0
DWIDTH 29 0
BBX 24 46 3 -1
BITMAP
00601C
00F03E
01F07E
07F8FF
0FF9FE
1FE3FC
3F87F0
3E07C0
080300
000000
F8003E
F8003E
F8003E
F8003E
F8003E
F8003E
F8003E
F8003E
F8003E
F8003E
F8003E
F8003E
F8003E
F8003E
F8003E
F8003E
F8003E
F8003E
F8003E
F8003E
F8003E
F8003E
F8003E
F8003E
F8003E
F8003E
F8003E
F8003E
FC007E
FE00FC
7F01FC
3FFFF8
3FFFF0
0FFFE0
07FFC0
00FE00
ENDCHAR
STARTCHAR uhungarumlaut
ENCODING 369
SWIDTH 598 0
DWIDTH 29 0
BBX 23 40 3 -1
BITMAP
004000
00E070
00F8F8
01FCFC
01F9FC
03F1F8
07F3F0
07E7E0
0FC7E0
0F8FC0
078380
010100
000000
000000
FC007C
FC007C
FC007C
FC007C
FC007C
FC007C
FC007C
FC007C
FC007C
FC007C
FC007C
FC007C
FC007C
FC007C
FC007C
FC007C
FC007C
FC00FC
7C00FC
7E01FC
7F03FC
3FFFFC
3FFFFC
1FFF7C
07FE7E
01F800
ENDCHAR
STARTCHAR Uogonek
ENCODING 370
SWIDTH 598 0
DWIDTH 29 0
BBX 23 45 3 -10
BITMAP
F8003E
F8003E
F8003E
F8003E
F8003E
F8003E
F8003E
F8003E
F8003E
F8003E
F8003E
F8003E
F8003E
F8003E
F8003E
F8003E
F8003E
F8003E
F8003E
F8003E
F8003E
F8003E
F8003E
F8003E
F8003E
F8003E
F8003E
F8003E
FC007E
FE00FC
7F01FC
3FFFF8
3FFFF0
0FFFE0
07FFE0
00FFC0
000F00
001E00
003C00
007800
007800
007880
007F80
007F80
003F00
ENDCHAR
STARTCHAR uogonek
ENCODING 371
SWIDTH 585 0
DWIDTH 28 0
BBX 23 35 3 -10
BITMAP
FC007C
FC007C
FC007C
FC007C
FC007C
FC007C
FC007C
FC007C
FC007C
FC007C
FC007C
FC007C
FC007C
FC007C
FC007C
FC007C
FC007C
FC00FC
7C00FC
7E01FC
7F03FC
3FFFFC
3FFFFC
1FFF7C
07FE7E
01F87C
0000F8
0001F0
0001E0
0003C0
0003C0
0007C4
0003FC
0003FC
0001F8
ENDCHAR
STARTCHAR Wcircumflex
ENCODING 372
SWIDTH 585 0
DWIDTH 28 0
BBX 27 45 1 -1
BITMAP
000E0000
003F8000
007FC000
00FFE000
03FFF000
07FBFC00
07E0F800
03807800
01001000
F80001E0
F80001E0
F80003E0
F80603E0
F80F03E0
FC0F03E0
7C0F03C0
7C0F03C0
7C1F83C0
7C1F87C0
7C1F87C0
7C3F87C0
3E3FC780
3E3FC780
3E3FC780
3E7BC780
3E7BE780
3E7BEF80
1F79EF80
1FF1FF00
1FF1FF00
1FF1FF00
1FF0FF00
1FE0FF00
0FE0FF00
0FE0FE00
0FE07E00
0FC07E00
0FC07E00
0FC07E00
0FC03E00
07803C00
07803C00
07803C00
07801C00
07001C00
ENDCHAR
STARTCHAR wcircumflex
ENCODING 373
SWIDTH 585 0
DWIDTH 28 0
BBX 27 38 1 0
BITMAP
000E0000
000F0000
001F8000
003F8000
007FC000
00FFE000
00FBF000
01F1F800
03F1F800
01E0F000
00C06000
00000000
00000000
F80003E0
F80003E0
F80E03E0
F80F03E0
F81F03C0
7C1F03C0
7C1F87C0
7C1F87C0
7C3F87C0
3C3FC7C0
3E3FC780
3E3BC780
3E7BC780
3E7BE780
1E79EF80
1F71EF80
1FF1FF00
1FF0FF00
1FE0FF00
0FE0FF00
0FE0FF00
0FE07E00
0FC07E00
07C07E00
07C03E00
ENDCHAR
STARTCHAR Ycircumflex
ENCODING 374
SWIDTH 585 0
DWIDTH 28 0
BBX 27 44 1 0
BITMAP
000E0000
003F8000
007FC000
00FFE000
03FFF000
07FBFC00
07E0F800
03807800
01001000
FC0007E0
7E0007C0
7E000FC0
3F000F80
3F001F80
1F801F00
1F803F00
0FC03E00
0FC07E00
07E07C00
07E0FC00
03F0F800
03F0F800
01F9F000
01F9F000
00FFE000
007FE000
007FC000
003FC000
003FC000
001F8000
001F8000
001F8000
001F8000
001F8000
001F8000
001F8000
001F8000
001F8000
001F8000
001F8000
001F8000
001F8000
001F8000
001F8000
ENDCHAR
STARTCHAR ycircumflex
ENCODING 375
SWIDTH 585 0
DWIDTH 28 0
BBX 26 48 1 -10
BITMAP
00060000
000E0000
001F0000
003F8000
003FC000
007FE000
00FBE000
01FBF000
03F1F800
03E0F800
01C07000
00404000
00000000
7F000FC0
3F000FC0
3F000F80
3F000F80
1F801F80
1F801F00
0F801F00
0FC03F00
07C03E00
07E03E00
07E07C00
03E07C00
03F07C00
01F0F800
01F0F800
00F8F000
00F9F000
00FDF000
007FE000
007FE000
003FC000
003FC000
001FC000
001F8000
001F8000
001F0000
001F0000
003F0000
303E0000
707E0000
7FFC0000
FFFC0000
FFF80000
7FE00000
1F800000
ENDCHAR
STARTCHAR Ydieresis
ENCODING 376
SWIDTH 598 0
DWIDTH 29 0
BBX 27 44 1 0
BITMAP
03C0F800
07E0FC00
0FE1FC00
0FE1FC00
0FE1FC00
07E0FC00
03C07000
00000000
00000000
FC0007E0
7E0007C0
7E000FC0
3F000F80
3F001F80
1F801F00
1F803F00
0FC03E00
0FC07E00
07E07C00
07E0FC00
03F0F800
03F0F800
01F9F000
01F9F000
00FFE000
007FE000
007FC000
003FC000
003FC000
001F8000
001F8000
001F8000
001F8000
001F8000
001F8000
001F8000
001F8000
001F8000
001F8000
001F8000
001F8000
001F8000
001F8000
001F8000
ENDCHAR
STARTCHAR Zacute
ENCODING 377
SWIDTH 598 0
DWIDTH 29 0
BBX 24 45 3 0
BITMAP
000200
000F00
003F80
00FF80
07FF80
03FC00
03E000
018000
000000
000000
FFFFFE
FFFFFE
FFFFFE
FFFFFE
FFFFFC
0000FC
0001F8
0001F8
0003F0
0003E0
0007E0
000FC0
000F80
001F80
003F00
003F00
007E00
00FC00
00FC00
01F800
01F000
03F000
07E000
07E000
0FC000
1F8000
1F8000
3F0000
7E0000
7E0000
FFFFFF
FFFFFF
FFFFFF
FFFFFF
FFFFFF
ENDCHAR
STARTCHAR zacute
ENCODING 378
SWIDTH 598 0
DWIDTH 29 0
BBX 23 39 3 0
BITMAP
000400
000600
000F80
001FC0
001F80
003F80
003F00
007E00
00FC00
00FC00
007800
001000
000000
000000
7FFFFC
7FFFFC
7FFFFC
7FFFFC
7FFFF8
0003F0
0007E0
000FC0
001F80
003F80
007F00
007E00
00FC00
01F800
03F000
07E000
0FC000
1FC000
3F8000
7F0000
FFFFFE
FFFFFE
FFFFFE
FFFFFE
FFFFFE
ENDCHAR
STARTCHAR Zdotaccent
ENCODING 379
SWIDTH 598 0
DWIDTH 29 0
BBX 24 44 3 0
BITMAP
003800
007E00
00FE00
00FE00
00FE00
007E00
003C00
000000
000000
FFFFFE
FFFFFE
FFFFFE
FFFFFE
FFFFFC
0000FC
0001F8
0001F8
0003F0
0003E0
0007E0
000FC0
000F80
001F80
003F00
003F00
007E00
00FC00
00FC00
01F800
01F000
03F000
07E000
07E000
0FC000
1F8000
1F8000
3F0000
7E0000
7E0000
FFFFFF
FFFFFF
FFFFFF
FFFFFF
FFFFFF
ENDCHAR
STARTCHAR zdot
ENCODING 380
SWIDTH 598 0
DWIDTH 29 0
BBX 23 37 3 0
BITMAP
003800
007E00
00FE00
00FE00
00FE00
007E00
003C00
000000
000000
000000
000000
000000
7FFFFC
7FFFFC
7FFFFC
7FFFFC
7FFFF8
0003F0
0007E0
000FC0
001F80
003F80
007F00
007E00
00FC00
01F800
03F000
07E000
0FC000
1FC000
3F8000
7F0000
FFFFFE
FFFFFE
FFFFFE
FFFFFE
FFFFFE
ENDCHAR
STARTCHAR Zcaron
ENCODING 381
SWIDTH 598 0
DWIDTH 29 0
BBX 24 46 3 0
BITMAP
060000
0700E0
0FC3F0
0FE7F0
07FFE0
03FF80
01FF00
007E00
003800
000000
000000
FFFFFE
FFFFFE
FFFFFE
FFFFFE
FFFFFC
0000FC
0001F8
0001F8
0003F0
0003E0
0007E0
000FC0
000F80
001F80
003F00
003F00
007E00
00FC00
00FC00
01F800
01F000
03F000
07E000
07E000
0FC000
1F8000
1F8000
3F0000
7E0000
7E0000
FFFFFF
FFFFFF
FFFFFF
FFFFFF
FFFFFF
ENDCHAR
STARTCHAR zcaron
ENCODING 382
SWIDTH 598 0
DWIDTH 29 0
BBX 23 40 3 0
BITMAP
010080
0381C0
0FC3E0
0FC7E0
07E7C0
03FF80
01FF80
00FF00
00FE00
007C00
003800
001800
000000
000000
000000
7FFFFC
7FFFFC
7FFFFC
7FFFFC
7FFFF8
0003F0
0007E0
000FC0
001F80
003F80
007F00
007E00
00FC00
01F800
03F000
07E000
0FC000
1FC000
3F8000
7F0000
FFFFFE
FFFFFE
FFFFFE
FFFFFE
FFFFFE
ENDCHAR
STARTCHAR longs
ENCODING 383
SWIDTH 598 0
DWIDTH 29 0
BBX 19 37 9 0
BITMAP
01FC00
07FF00
1FFFC0
3FFFE0
7FFFE0
7E03E0
FC01C0
FC01C0
F80080
F80000
F80000
F80000
F80000
F80000
F80000
F80000
F80000
F80000
F80000
F80000
F80000
F80000
F80000
F80000
F80000
F80000
F80000
F80000
F80000
F80000
F80000
F80000
F80000
F80000
F80000
F80000
F80000
ENDCHAR
STARTCHAR florin
ENCODING 402
SWIDTH 598 0
DWIDTH 29 0
BBX 27 48 1 -10
BITMAP
00001800
0000FF00
0003FFC0
0007FFE0
0007FFE0
000FC3C0
000F81C0
001F8180
001F0080
001F0000
001F0000
001F0000
001F0000
003F0000
003F0000
003F0000
003F0000
1FFFFC00
1FFFFC00
1FFFFC00
1FFFFC00
003E0000
003E0000
003E0000
003E0000
003E0000
007E0000
007E0000
007E0000
007C0000
007C0000
007C0000
007C0000
007C0000
007C0000
007C0000
007C0000
007C0000
00FC0000
00FC0000
00F80000
31F80000
73F80000
7FF00000
FFE00000
FFE00000
7F800000
3F000000
ENDCHAR
STARTCHAR Aringacute
ENCODING 506
SWIDTH 585 0
DWIDTH 28 0
BBX 28 50 0 0
BITMAP
00004000
0003E000
000FF000
003FF800
00FFE000
007F0000
00780000
002F0000
003FC000
007FC000
0079E000
00F0E000
00F0E000
0079E000
007FC000
003FC000
000F0000
000F0000
000F0000
001F0000
001F8000
001F8000
003FC000
003FC000
007FC000
007FE000
007FE000
00FBF000
00F9F000
00F1F000
01F0F800
01F0F800
01E0FC00
03E07C00
03E07C00
07C07E00
07FFFE00
07FFFF00
0FFFFF00
0FFFFF00
0F801F80
1F801F80
1F000F80
1F000FC0
3F0007C0
3E0007E0
3E0007E0
7E0003E0
7C0003F0
FC0001F0
ENDCHAR
STARTCHAR aringacute
ENCODING 507
SWIDTH 585 0
DWIDTH 28 0
BBX 23 45 2 -1
BITMAP
000100
000F80
003FC0
00FFE0
03FF80
01FC00
01E000
008000
003E00
007F80
00FF80
00E3C0
01E1C0
01E1C0
00E3C0
00FF80
007F80
003E00
007F00
03FFE0
0FFFF0
1FFFF8
1FFFFC
0F80FE
0E007E
04003E
00003E
00003E
00007E
01FFFE
07FFFE
1FFFFE
3FFFFE
3F803E
7E003E
7C003E
7C003E
FC007E
7C00FE
7E03FE
7FFFFE
3FFFFE
1FFFFE
0FFF3E
03FC00
ENDCHAR
STARTCHAR AEacute
ENCODING 508
SWIDTH 585 0
DWIDTH 28 0
BBX 28 45 0 0
BITMAP
00004000
0001E000
0007F000
001FF000
00FFF000
007F8000
007C0000
00300000
00000000
00000000
001FFFF0
001FFFF0
003FFFF0
003FFFF0
003FFFF0
007FC000
007FE000
007BE000
00FBE000
00FBE000
00F3E000
01F3E000
01F3E000
01E3E000
03E3FFE0
03E3FFE0
03E3FFE0
07C3FFE0
07C3FFE0
07C3E000
0F83E000
0FFFE000
0FFFE000
1FFFE000
1FFFE000
1FFFE000
3F03E000
3E03E000
3E03E000
3E03E000
7C03FFF0
7C03FFF0
7C03FFF0
F803FFF0
F803FFF0
ENDCHAR
STARTCHAR aeacute
ENCODING 509
SWIDTH 585 0
DWIDTH 28 0
BBX 29 40 0 -1
BITMAP
00008000
0000E000
0001F000
0003F800
0003F000
0007F000
0007E000
000FC000
001F8000
001F8000
00070000
00020000
00000000
03E03E00
0FF8FF80
3FFDFFC0
7FFFFFE0
3FFFFFE0
1C1FE1F0
181FC1F0
000F80F0
000F80F0
000F80F0
000FFFF0
03FFFFF0
0FFFFFF0
1FFFFFF0
3FFF8000
7F0F8000
7E0F8000
7C0F8000
F80F8000
F80F8000
FC0FC060
7C1FE0E0
7E3FFFF0
3FFFFFF8
3FFDFFF0
0FF87FE0
03E01F80
ENDCHAR
STARTCHAR Oslashacute
ENCODING 510
SWIDTH 585 0
DWIDTH 28 0
BBX 27 49 1 -4
BITMAP
00008000
0007C000
001FE000
007FF000
01FFC000
00FE0000
00F00200
00400380
000007E0
003F8FC0
00FFEF80
03FFFF80
07FFFF00
0FFFFF00
0FE1FF00
1FC07F00
3F807F80
3F00FF80
3E00FF80
7E01FFC0
7E01E7C0
7C03E7C0
7C03C7C0
7C07C7C0
FC0787C0
FC0F87C0
FC0F07C0
FC1F07C0
FC1E07C0
FC3E07C0
7C3C07C0
7C7C07C0
7C7807C0
7CF80FC0
7CF00FC0
7FF00FC0
3FE01F80
3FE01F80
3FC03F80
1FC07F00
0FF1FE00
0FFFFE00
1FFFFC00
3FFFF800
3EFFE000
7E3F8000
7C000000
7C000000
18000000
ENDCHAR
STARTCHAR oslashacute
ENCODING 511
SWIDTH 585 0
DWIDTH 28 0
BBX 25 43 2 -4
BITMAP
00020000
00038000
0007C000
000FE000
000FC000
001FC000
001F8000
003F0000
007E0000
007E0000
001C1000
00083C00
00007E00
007F7C00
01FFFC00
07FFF800
0FFFF800
1FFFFC00
3FC3FE00
3F03FE00
7F07FF00
7E079F00
7C0F9F00
FC0F1F80
FC1F1F80
FC3E1F80
FC3E1F80
FC7C1F80
FC781F80
FCF81F80
FCF01F00
7DF03F00
7FE07F00
3FE07E00
3FC1FE00
1FFFFC00
0FFFF800
1FFFF000
1FFFE000
3F7F0000
3E000000
3C000000
0C000000
ENDCHAR
STARTCHAR Scommaaccent
ENCODING 536
SWIDTH 598 0
DWIDTH 29 0
BBX 24 45 3 -9
BITMAP
00FF00
03FFC0
0FFFF0
1FFFF8
3FFFFC
3F00FC
7E0078
7C0038
7C0010
7C0000
7E0000
7E0000
7F0000
3FC000
1FF000
0FFC00
07FF00
03FFC0
00FFF0
003FF8
0007FC
0001FC
0000FE
00007E
00003E
00003E
20003F
30003E
70003E
78007E
FC00FE
FF03FC
FFFFFC
7FFFF8
3FFFF0
0FFFC0
01FE00
007C00
007C00
007C00
007C00
007800
007800
007800
007000
ENDCHAR
STARTCHAR scommaaccent
ENCODING 537
SWIDTH 598 0
DWIDTH 29 0
BBX 23 35 3 -9
BITMAP
00FF00
07FFC0
0FFFF0
1FFFF8
3FE7FC
3F00FC
3E0078
3E0038
3F0030
3F8000
3FF000
1FFF00
0FFFC0
03FFF0
007FF8
000FFC
0001FC
0000FE
30007E
70007E
7C00FC
FF01FC
FFFFFC
7FFFF8
3FFFF0
0FFFC0
01FF00
007C00
007C00
007C00
007C00
007800
007800
007800
007000
ENDCHAR
STARTCHAR uni021A
ENCODING 538
SWIDTH 598 0
DWIDTH 29 0
BBX 26 44 1 -9
BITMAP
FFFFFFC0
FFFFFFC0
FFFFFFC0
FFFFFFC0
FFFFFFC0
003F0000
003F0000
003F0000
003F0000
003F0000
003F0000
003F0000
003F0000
003F0000
003F0000
003F0000
003F0000
003F0000
003F0000
003F0000
003F0000
003F0000
003F0000
003F0000
003F0000
003F0000
003F0000
003F0000
003F0000
003F0000
003F0000
003F0000
003F0000
003F0000
003F8000
001F8000
001F0000
001F0000
001F0000
001E0000
001E0000
001E0000
001E0000
001C0000
ENDCHAR
STARTCHAR uni021B
ENCODING 539
SWIDTH 598 0
DWIDTH 29 0
BBX 22 42 4 -9
BITMAP
001000
03F000
03F000
03F000
03E000
03E000
03E000
03E000
FFFFE0
FFFFE0
FFFFE0
FFFFE0
FFFFE0
07E000
07E000
07E000
07E000
07E000
07E000
07E000
07E000
07E000
07E000
07E000
07E000
07E000
07E000
07E038
07F0F8
03FFFC
03FFFC
01FFF8
00FFE0
00FF80
00F800
00F800
00F800
00F800
00F000
00F000
00F000
00E000
ENDCHAR
STARTCHAR dotlessj
ENCODING 567
SWIDTH 598 0
DWIDTH 29 0
BBX 20 35 2 -10
BITMAP
07FFF0
07FFF0
07FFF0
07FFF0
07FFF0
0003F0
0003F0
0003F0
0003F0
0003F0
0003F0
0003F0
0003F0
0003F0
0003F0
0003F0
0003F0
0003F0
0003F0
0003F0
0003F0
0003F0
0003F0
0003F0
0003F0
0003F0
1003F0
1803E0
3807E0
7E0FE0
FFFFC0
7FFF80
3FFF00
1FFE00
07F000
ENDCHAR
STARTCHAR circumflex
ENCODING 710
SWIDTH 598 0
DWIDTH 29 0
BBX 15 11 7 27
BITMAP
0380
03C0
07E0
0FE0
1FF0
3FF8
3EFC
7C7E
FC7E
783C
3018
ENDCHAR
STARTCHAR caron
ENCODING 711
SWIDTH 598 0
DWIDTH 29 0
BBX 15 11 7 29
BITMAP
3018
781E
FC3E
7E7E
3EFC
3FF8
1FF0
0FE0
07E0
03C0
0380
ENDCHAR
STARTCHAR uni02C9
ENCODING 713
SWIDTH 598 0
DWIDTH 29 0
BBX 15 5 7 30
BITMAP
FFFE
FFFE
FFFE
FFFE
FFFE
ENDCHAR
STARTCHAR uni02CB
ENCODING 715
SWIDTH 598 0
DWIDTH 29 0
BBX 10 11 10 28
BITMAP
1800
3800
FC00
FC00
FE00
7F00
3F00
1F80
1F80
0FC0
0700
ENDCHAR
STARTCHAR breve
ENCODING 728
SWIDTH 598 0
DWIDTH 29 0
BBX 18 8 5 29
BITMAP
100000
300180
7C07C0
FF1FC0
7FFF80
3FFF00
0FFE00
03F800
ENDCHAR
STARTCHAR dotaccent
ENCODING 729
SWIDTH 598 0
DWIDTH 29 0
BBX 7 7 11 30
BITMAP
38
7E
FE
FE
FE
7E
3C
ENDCHAR
STARTCHAR ring
ENCODING 730
SWIDTH 598 0
DWIDTH 29 0
BBX 11 11 9 28
BITMAP
0F00
3F80
7FC0
79E0
F0E0
F0E0
F0E0
79E0
7FC0
3FC0
1F00
ENDCHAR
STARTCHAR ogonek
ENCODING 731
SWIDTH 598 0
DWIDTH 29 0
BBX 8 10 16 -10
BITMAP
1F
3E
7C
78
F0
F0
F3
FF
FF
3E
ENDCHAR
STARTCHAR tilde
ENCODING 732
SWIDTH 598 0
DWIDTH 29 0
BBX 20 8 5 31
BITMAP
030000
1FE000
3FF0E0
FFFFF0
FFFFE0
78FFC0
303F80
000E00
ENDCHAR
STARTCHAR hungarumlaut
ENCODING 733
SWIDTH 598 0
DWIDTH 29 0
BBX 18 12 7 27
BITMAP
040600
0E0700
0F8FC0
1FCFC0
3F9FC0
3F3F80
7E3F00
7E7E00
FC7E00
F8FC00
703800
100000
ENDCHAR
STARTCHAR uni037E
ENCODING 894
SWIDTH 598 0
DWIDTH 29 0
BBX 9 33 9 -10
BITMAP
1E00
3F00
7F00
7F80
7F80
7F00
3F00
1C00
0000
0000
0000
0000
0000
0000
0000
0000
0000
0000
3E00
7F00
7F80
7F80
7F80
7F80
3F80
1F80
1F00
1F00
3E00
7C00
F800
7000
2000
ENDCHAR
STARTCHAR tonos
ENCODING 900
SWIDTH 598 0
DWIDTH 29 0
BBX 6 10 12 29
BITMAP
FC
FC
F8
F8
F8
F0
F0
F0
F0
E0
ENDCHAR
STARTCHAR dieresistonos
ENCODING 901
SWIDTH 598 0
DWIDTH 29 0
BBX 18 15 5 24
BITMAP
00FC00
00FC00
00FC00
00F800
00F800
00F800
00F000
00F000
3CF780
7EFFC0
7E1FC0
FF1FC0
7E1FC0
7E0FC0
3C0780
ENDCHAR
STARTCHAR Alphatonos
ENCODING 902
SWIDTH 598 0
DWIDTH 29 0
BBX 28 38 0 0
BITMAP
07E00000
07C00000
07C00000
07C60000
07CE0000
078F0000
078F0000
0F9F0000
0F1F8000
0F1F8000
003FC000
003FC000
003FC000
007FE000
007FE000
00FBF000
00F9F000
00F9F000
01F1F800
01F0F800
01E0F800
03E07C00
03E07C00
03C07E00
07FFFE00
07FFFE00
0FFFFF00
0FFFFF00
0F801F80
1F801F80
1F000F80
1F000FC0
3F0007C0
3E0007E0
3E0007E0
7E0003E0
7C0003F0
FC0001F0
ENDCHAR
STARTCHAR anoteleia
ENCODING 903
SWIDTH 598 0
DWIDTH 29 0
BBX 8 8 10 18
BITMAP
3C
7E
FE
FF
FF
FE
7E
38
ENDCHAR
STARTCHAR Epsilontonos
ENCODING 904
SWIDTH 598 0
DWIDTH 29 0
BBX 30 38 -4 0
BITMAP
7E000000
7C000000
7C000000
7DFFFFFC
7DFFFFFC
79FFFFFC
79FFFFFC
79FFFFFC
79F00000
F1F00000
01F00000
01F00000
01F00000
01F00000
01F00000
01F00000
01F00000
01FFFFE0
01FFFFE0
01FFFFE0
01FFFFE0
01FFFFE0
01F00000
01F00000
01F00000
01F00000
01F00000
01F00000
01F00000
01F00000
01F00000
01F00000
01F00000
01FFFFFC
01FFFFFC
01FFFFFC
01FFFFFC
01FFFFFC
ENDCHAR
STARTCHAR Etatonos
ENCODING 905
SWIDTH 598 0
DWIDTH 29 0
BBX 30 38 -4 0
BITMAP
FC000000
FC000000
FC000000
FDF000FC
F9F800FC
F9F000FC
F9F000FC
F1F000FC
F1F000FC
F1F000FC
01F000FC
01F000FC
01F000FC
01F000FC
01F000FC
01F000FC
01F000FC
01FFFFFC
01FFFFFC
01FFFFFC
01FFFFFC
01FFFFFC
01F000FC
01F000FC
01F000FC
01F000FC
01F000FC
01F000FC
01F000FC
01F000FC
01F000FC
01F000FC
01F000FC
01F000FC
01F000FC
01F000FC
01F000FC
01F000FC
ENDCHAR
STARTCHAR Iotatonos
ENCODING 906
SWIDTH 598 0
DWIDTH 29 0
BBX 26 38 -2 0
BITMAP
FC000000
FC000000
FC000000
FDFFFFC0
F9FFFFC0
F9FFFFC0
F9FFFFC0
F1FFFFC0
F003E000
F003E000
0003E000
0003E000
0003E000
0003E000
0003E000
0003E000
0003E000
0003E000
0003E000
0003E000
0003E000
0003E000
0003E000
0003E000
0003E000
0003E000
0003E000
0003E000
0003E000
0003E000
0003E000
0003E000
0003E000
01FFFFC0
01FFFFC0
01FFFFC0
01FFFFC0
01FFFFC0
ENDCHAR
STARTCHAR Omicrontonos
ENCODING 908
SWIDTH 598 0
DWIDTH 29 0
BBX 27 40 0 -1
BITMAP
7C000000
7C000000
FC000000
FC1FC000
F87FF000
F9FFFC00
FBFFFE00
FFFFFF00
F7F07F80
FFE03F80
1FC01FC0
1F800FC0
1F000FC0
3F0007E0
3E0007E0
3E0007E0
3E0003E0
3E0003E0
7E0003E0
7E0003E0
7E0003E0
7E0003E0
7E0003E0
7E0003E0
3E0003E0
3E0003E0
3E0003E0
3E0003E0
3F0007E0
3F0007E0
1F0007C0
1F800FC0
0FC01FC0
0FE03F80
07F8FF00
07FFFF00
03FFFE00
01FFFC00
007FF000
001FC000
ENDCHAR
STARTCHAR Upsilontonos
ENCODING 910
SWIDTH 598 0
DWIDTH 29 0
BBX 33 38 -5 0
BITMAP
FC00000000
FC00000000
FC00000000
FBF0001F80
F9F8001F00
F9F8003F00
F8FC003E00
F0FC007E00
F07E007C00
F07E00FC00
003F00F800
003F01F800
001F81F000
001F83F000
000FC3E000
000FC3E000
0007E7C000
0007E7C000
0003FF8000
0001FF8000
0001FF0000
0000FF0000
0000FF0000
00007E0000
00007E0000
00007E0000
00007E0000
00007E0000
00007E0000
00007E0000
00007E0000
00007E0000
00007E0000
00007E0000
00007E0000
00007E0000
00007E0000
00007E0000
ENDCHAR
STARTCHAR Omegatonos
ENCODING 911
SWIDTH 598 0
DWIDTH 29 0
BBX 26 39 0 0
BITMAP
7E000000
7C000000
7C000000
7C000000
7C3FC000
78FFF800
79FFFC00
FBFFFE00
F7FFFE00
F7E07F00
0FC01F80
0F801F80
1F800F80
1F800F80
1F000FC0
1F0007C0
1F0007C0
1F0007C0
1F0007C0
3F0007C0
3F0007C0
3F0007C0
3F0007C0
3F0007C0
1F0007C0
1F0007C0
1F000FC0
1F800FC0
0F800F80
0FC01F80
07C01F80
07E03F00
03E03E00
01F07E00
3FF8FFC0
3FF8FFC0
3FF8FFC0
3FF8FFC0
3FF8FFC0
ENDCHAR
STARTCHAR iotadieresistonos
ENCODING 912
SWIDTH 598 0
DWIDTH 29 0
BBX 19 41 5 0
BITMAP
00FC00
00FC00
00FC00
00FC00
00F800
00F800
00F800
00F000
3CF780
7EFFC0
7F0FE0
7F0FE0
7F0FE0
7E0FC0
3C0780
FFF000
FFF000
FFF000
FFF000
FFF000
81F000
01F000
01F000
01F000
01F000
01F000
01F000
01F000
01F000
01F000
01F000
01F000
01F000
01F000
01F800
01F800
01FE00
01FE00
00FE00
00FE00
003E00
ENDCHAR
STARTCHAR Alpha
ENCODING 913
SWIDTH 598 0
DWIDTH 29 0
BBX 28 35 0 0
BITMAP
00060000
000E0000
000F0000
000F0000
001F0000
001F8000
001F8000
003FC000
003FC000
007FC000
007FE000
007FE000
00FBF000
00F9F000
00F1F000
01F0F800
01F0F800
01E0FC00
03E07C00
03E07C00
07C07E00
07FFFE00
07FFFF00
0FFFFF00
0FFFFF00
0F801F80
1F801F80
1F000F80
1F000FC0
3F0007C0
3E0007E0
3E0007E0
7E0003E0
7C0003F0
FC0001F0
ENDCHAR
STARTCHAR Beta
ENCODING 914
SWIDTH 598 0
DWIDTH 29 0
BBX 25 35 2 0
BITMAP
FFFF0000
FFFFE000
FFFFF000
FFFFF800
FFFFFC00
FC01FC00
FC007E00
FC007E00
FC003E00
FC003E00
FC003E00
FC007E00
FC00FE00
FC01FC00
FFFFF800
FFFFF000
FFFFE000
FFFFF800
FFFFFC00
FC00FE00
FC007E00
FC003F00
FC001F00
FC001F00
FC001F80
FC001F80
FC001F00
FC003F00
FC007F00
FC00FE00
FFFFFE00
FFFFFC00
FFFFF800
FFFFE000
FFFF8000
ENDCHAR
STARTCHAR Gamma
ENCODING 915
SWIDTH 598 0
DWIDTH 29 0
BBX 23 35 3 0
BITMAP
FFFFFE
FFFFFE
FFFFFE
FFFFFE
FFFFFE
F80000
F80000
F80000
F80000
F80000
F80000
F80000
F80000
F80000
F80000
F80000
F80000
F80000
F80000
F80000
F80000
F80000
F80000
F80000
F80000
F80000
F80000
F80000
F80000
F80000
F80000
F80000
F80000
F80000
F80000
ENDCHAR
STARTCHAR Delta
ENCODING 916
SWIDTH 598 0
DWIDTH 29 0
BBX 28 35 0 0
BITMAP
00060000
000E0000
000F0000
000F0000
001F0000
001F8000
001F8000
003FC000
003FC000
007FC000
007FE000
007BE000
00F9F000
00F9F000
00F1F000
01F0F800
01F0F800
01E0FC00
03E07C00
03E07C00
03C03E00
07C03E00
07C03E00
0F801F00
0F801F00
0F801F80
1F000F80
1F000F80
1F000FC0
3E0007C0
3FFFFFE0
3FFFFFE0
7FFFFFE0
7FFFFFF0
FFFFFFF0
ENDCHAR
STARTCHAR Epsilon
ENCODING 917
SWIDTH 598 0
DWIDTH 29 0
BBX 23 35 3 0
BITMAP
FFFFFE
FFFFFE
FFFFFE
FFFFFE
FFFFFE
F80000
F80000
F80000
F80000
F80000
F80000
F80000
F80000
F80000
FFFFF0
FFFFF0
FFFFF0
FFFFF0
FFFFF0
F80000
F80000
F80000
F80000
F80000
F80000
F80000
F80000
F80000
F80000
F80000
FFFFFE
FFFFFE
FFFFFE
FFFFFE
FFFFFE
ENDCHAR
STARTCHAR Zeta
ENCODING 918
SWIDTH 598 0
DWIDTH 29 0
BBX 24 35 3 0
BITMAP
FFFFFE
FFFFFE
FFFFFE
FFFFFE
FFFFFC
0000FC
0001F8
0001F8
0003F0
0003E0
0007E0
000FC0
000F80
001F80
003F00
003F00
007E00
00FC00
00FC00
01F800
01F000
03F000
07E000
07E000
0FC000
1F8000
1F8000
3F0000
7E0000
7E0000
FFFFFF
FFFFFF
FFFFFF
FFFFFF
FFFFFF
ENDCHAR
STARTCHAR Eta
ENCODING 919
SWIDTH 598 0
DWIDTH 29 0
BBX 23 35 3 0
BITMAP
F8007E
FC007E
F8007E
F8007E
F8007E
F8007E
F8007E
F8007E
F8007E
F8007E
F8007E
F8007E
F8007E
F8007E
FFFFFE
FFFFFE
FFFFFE
FFFFFE
FFFFFE
F8007E
F8007E
F8007E
F8007E
F8007E
F8007E
F8007E
F8007E
F8007E
F8007E
F8007E
F8007E
F8007E
F8007E
F8007E
F8007E
ENDCHAR
STARTCHAR Theta
ENCODING 920
SWIDTH 598 0
DWIDTH 29 0
BBX 26 35 1 0
BITMAP
007FC000
01FFF000
07FFF800
0FFFFC00
0FFFFE00
1FC0FF00
3F803F00
3F001F80
3E000F80
7E000F80
7C000FC0
7C0007C0
7C0007C0
7C0007C0
FC0007C0
FDFFF7C0
FDFFF7C0
FDFFF7C0
FDFFF7C0
FDFFF7C0
7C0007C0
7C0007C0
7C0007C0
7C000FC0
7E000FC0
7E000FC0
3F001F80
3F001F80
1F803F00
1FE0FF00
0FFFFE00
07FFFC00
03FFF800
01FFF000
003FC000
ENDCHAR
STARTCHAR Iota
ENCODING 921
SWIDTH 598 0
DWIDTH 29 0
BBX 19 35 5 0
BITMAP
FFFFE0
FFFFE0
FFFFE0
FFFFE0
FFFFE0
01F000
01F000
01F000
01F000
01F000
01F000
01F000
01F000
01F000
01F000
01F000
01F000
01F000
01F000
01F000
01F000
01F000
01F000
01F000
01F000
01F000
01F000
01F000
01F000
01F000
FFFFE0
FFFFE0
FFFFE0
FFFFE0
FFFFE0
ENDCHAR
STARTCHAR Kappa
ENCODING 922
SWIDTH 598 0
DWIDTH 29 0
BBX 26 35 2 0
BITMAP
FC003F80
FC003F00
FC007E00
FC00FC00
FC01F800
FC03F000
FC07F000
FC0FE000
FC1FC000
FC1F8000
FC3F0000
FC7E0000
FCFC0000
FDF80000
FFF00000
FFF00000
FFF80000
FFF80000
FEFC0000
FC7E0000
FC7E0000
FC3F0000
FC1F8000
FC1FC000
FC0FC000
FC07E000
FC07F000
FC03F800
FC01F800
FC01FC00
FC00FE00
FC007E00
FC007F00
FC003F80
FC001FC0
ENDCHAR
STARTCHAR Lambda
ENCODING 923
SWIDTH 598 0
DWIDTH 29 0
BBX 28 35 0 0
BITMAP
00060000
000E0000
000F0000
000F0000
001F0000
001F8000
001F8000
003FC000
003FC000
007FC000
007FE000
007BE000
00F9F000
00F9F000
00F1F000
01F0F800
01F0F800
01E0FC00
03E07C00
03E07C00
03C07E00
07C03E00
07C03F00
0F801F00
0F801F00
0F801F80
1F000F80
1F000F80
1F000FC0
3E0007C0
3E0007E0
3E0003E0
7C0003E0
7C0003F0
FC0001F0
ENDCHAR
STARTCHAR Mu
ENCODING 924
SWIDTH 598 0
DWIDTH 29 0
BBX 25 35 2 0
BITMAP
F8000F80
F8000F80
FC001F80
FC001F80
FE003F80
FE003F80
FF007F80
FF007F80
FF80FF80
FF80FF80
FFC1FF80
FFC1EF80
FBE3EF80
FBE3CF80
F9F7CF80
F9F78F80
F8FF8F80
F8FF0F80
F87F0F80
F87E0F80
F83C0F80
F83C0F80
F8180F80
F8000F80
F8000F80
F8000F80
F8000F80
F8000F80
F8000F80
F8000F80
F8000F80
F8000F80
F8000F80
F8000F80
F8000F80
ENDCHAR
STARTCHAR Nu
ENCODING 925
SWIDTH 598 0
DWIDTH 29 0
BBX 23 35 3 0
BITMAP
F8003E
F8003E
FC003E
FC003E
FE003E
FF003E
FF003E
FF803E
FF803E
FFC03E
FFC03E
FBE03E
FBE03E
F9F03E
F9F83E
F8F83E
F87C3E
F87C3E
F83E3E
F83E3E
F81F3E
F81FBE
F80FBE
F80FFE
F807FE
F803FE
F803FE
F801FE
F801FE
F800FE
F800FE
F8007E
F8007E
F8003E
F8001E
ENDCHAR
STARTCHAR Xi
ENCODING 926
SWIDTH 598 0
DWIDTH 29 0
BBX 19 35 5 0
BITMAP
FFFFE0
FFFFE0
FFFFE0
FFFFE0
FFFFE0
000000
000000
000000
000000
000000
000000
000000
000000
000000
7FFFC0
7FFFC0
7FFFC0
7FFFC0
7FFFC0
000000
000000
000000
000000
000000
000000
000000
000000
000000
000000
000000
FFFFE0
FFFFE0
FFFFE0
FFFFE0
FFFFE0
ENDCHAR
STARTCHAR Omicron
ENCODING 927
SWIDTH 598 0
DWIDTH 29 0
BBX 26 37 1 -1
BITMAP
003F8000
00FFE000
03FFF800
07FFFC00
0FFFFE00
0FE0FF00
1FC07F00
3F803F80
3F001F80
3E001F80
7E000FC0
7C000FC0
7C000FC0
7C0007C0
7C0007C0
FC0007C0
FC0007C0
FC0007C0
FC0007C0
FC0007C0
FC0007C0
7C0007C0
7C0007C0
7C0007C0
7C0007C0
7E000FC0
7E000FC0
3E000F80
3F001F80
1F803F80
1FC07F00
0FF1FE00
0FFFFE00
07FFFC00
03FFF800
00FFE000
003F8000
ENDCHAR
STARTCHAR Pi
ENCODING 928
SWIDTH 598 0
DWIDTH 29 0
BBX 23 35 3 0
BITMAP
FFFFFE
FFFFFE
FFFFFE
FFFFFE
FFFFFE
F8003E
F8003E
F8003E
F8003E
F8003E
F8003E
F8003E
F8003E
F8003E
F8003E
F8003E
F8003E
F8003E
F8003E
F8003E
F8003E
F8003E
F8003E
F8003E
F8003E
F8003E
F8003E
F8003E
F8003E
F8003E
F8003E
F8003E
F8003E
F8003E
F8003E
ENDCHAR
STARTCHAR Rho
ENCODING 929
SWIDTH 598 0
DWIDTH 29 0
BBX 24 35 3 0
BITMAP
FFFF00
FFFFE0
FFFFF0
FFFFF8
FFFFFC
F801FC
F800FE
F8007E
F8003E
F8003F
F8003F
F8003E
F8003E
F8007E
F800FE
FFFFFC
FFFFF8
FFFFF0
FFFFE0
FFFF80
F80000
F80000
F80000
F80000
F80000
F80000
F80000
F80000
F80000
F80000
F80000
F80000
F80000
F80000
F80000
ENDCHAR
STARTCHAR Sigma
ENCODING 931
SWIDTH 598 0
DWIDTH 29 0
BBX 24 36 3 -1
BITMAP
FFFFFE
FFFFFE
FFFFFE
FFFFFE
7FFFFE
3E0000
3F0000
1F0000
1F8000
0F8000
0FC000
07E000
07E000
03F000
01F000
01F800
00F800
00FC00
00FC00
01F800
01F000
03F000
07E000
07E000
0FC000
0FC000
1F8000
1F0000
3F0000
7E0000
7E0000
FFFFFF
FFFFFF
FFFFFF
FFFFFF
FFFFFF
ENDCHAR
STARTCHAR Tau
ENCODING 932
SWIDTH 598 0
DWIDTH 29 0
BBX 26 35 1 0
BITMAP
FFFFFFC0
FFFFFFC0
FFFFFFC0
FFFFFFC0
FFFFFFC0
003F0000
003F0000
003F0000
003F0000
003F0000
003F0000
003F0000
003F0000
003F0000
003F0000
003F0000
003F0000
003F0000
003F0000
003F0000
003F0000
003F0000
003F0000
003F0000
003F0000
003F0000
003F0000
003F0000
003F0000
003F0000
003F0000
003F0000
003F0000
003F0000
003F0000
ENDCHAR
STARTCHAR Upsilon
ENCODING 933
SWIDTH 598 0
DWIDTH 29 0
BBX 27 35 1 0
BITMAP
FC0007E0
7E0007C0
7E000FC0
3F000F80
3F001F80
1F801F00
1F803F00
0FC03E00
0FC07E00
07E07C00
07E0FC00
03F0F800
03F0F800
01F9F000
01F9F000
00FFE000
007FE000
007FC000
003FC000
003FC000
001F8000
001F8000
001F8000
001F8000
001F8000
001F8000
001F8000
001F8000
001F8000
001F8000
001F8000
001F8000
001F8000
001F8000
001F8000
ENDCHAR
STARTCHAR Phi
ENCODING 934
SWIDTH 598 0
DWIDTH 29 0
BBX 29 35 0 0
BITMAP
00070000
007FF000
01FFF800
03FFFE00
07FFFF00
0FEFBF80
1F8F9FC0
3F0F8FC0
3F0F87E0
7E0F83F0
7C0F81F0
FC0F81F0
F80F81F8
F80F80F8
F80F80F8
F80F80F8
F80F80F8
F80F80F8
F80F80F8
F80F81F8
FC0F81F8
7C0F81F0
7E0F83F0
3F0F87E0
3F8F8FE0
1FCF9FC0
0FFFFF80
07FFFF00
03FFFE00
00FFF800
003FE000
000F8000
000F8000
000F8000
000F8000
ENDCHAR
STARTCHAR Chi
ENCODING 935
SWIDTH 598 0
DWIDTH 29 0
BBX 23 35 3 0
BITMAP
F8007C
FC00FC
7C00F8
7E01F8
3E01F0
3F03F0
1F03E0
1F87E0
0F87C0
0FCFC0
07CF80
07FF80
03FF00
03FF00
01FE00
01FE00
00FC00
00FC00
00FE00
01FE00
01FF00
03FF00
03FF80
07EFC0
07CFC0
0FC7E0
0F87E0
1F83F0
1F03F0
3F01F8
3E01F8
7E00FC
7C00FC
FC007E
F8007E
ENDCHAR
STARTCHAR Psi
ENCODING 936
SWIDTH 598 0
DWIDTH 29 0
BBX 23 35 3 0
BITMAP
F8003E
F8003E
F87C3E
F87C3E
F87C3E
F87C3E
F87C3E
F87C3E
F87C3E
F87C3E
F87C3E
F87C3E
F87C3E
F87C3E
F87C3E
F87C3E
F87C7E
FC7C7E
7C7C7C
7E7CFC
3F7DF8
3FFFF0
1FFFE0
07FFC0
01FF00
007C00
007C00
007C00
007C00
007C00
007C00
007C00
007C00
007C00
007C00
ENDCHAR
STARTCHAR Omega
ENCODING 937
SWIDTH 598 0
DWIDTH 29 0
BBX 24 35 2 0
BITMAP
00FF00
03FFE0
07FFF0
0FFFF8
1FFFF8
1F81FC
3F007E
3E007E
7E003E
7E003E
7C003F
7C001F
7C001F
7C001F
7C001F
FC001F
FC001F
FC001F
FC001F
FC001F
7C001F
7C001F
7C003F
7E003F
3E003E
3F007E
1F007E
1F80FC
0F80F8
07C1F8
FFE3FF
FFE3FF
FFE3FF
FFE3FF
FFE3FF
ENDCHAR
STARTCHAR Iotadieresis
ENCODING 938
SWIDTH 598 0
DWIDTH 29 0
BBX 19 44 5 0
BITMAP
380F00
7C1F80
FE1FC0
FE1FC0
FE1FC0
FE1F80
7C0F00
000000
000000
FFFFE0
FFFFE0
FFFFE0
FFFFE0
FFFFE0
01F000
01F000
01F000
01F000
01F000
01F000
01F000
01F000
01F000
01F000
01F000
01F000
01F000
01F000
01F000
01F000
01F000
01F000
01F000
01F000
01F000
01F000
01F000
01F000
01F000
FFFFE0
FFFFE0
FFFFE0
FFFFE0
FFFFE0
ENDCHAR
STARTCHAR Upsilondieresis
ENCODING 939
SWIDTH 598 0
DWIDTH 29 0
BBX 27 44 1 0
BITMAP
03C07800
07E0FC00
07E1FC00
0FF1FC00
07E1FC00
07E0FC00
03C07800
00000000
00000000
FC0007E0
7E0007C0
7E000FC0
3F000F80
3F001F80
1F801F00
1F803F00
0FC03E00
0FC07E00
07E07C00
07E0FC00
03F0F800
03F0F800
01F9F000
01F9F000
00FFE000
007FE000
007FC000
003FC000
003FC000
001F8000
001F8000
001F8000
001F8000
001F8000
001F8000
001F8000
001F8000
001F8000
001F8000
001F8000
001F8000
001F8000
001F8000
001F8000
ENDCHAR
STARTCHAR alphatonos
ENCODING 940
SWIDTH 598 0
DWIDTH 29 0
BBX 27 39 1 -1
BITMAP
000F8000
000F8000
000F8000
000F8000
000F8000
001F0000
001F0000
001F0000
001E0000
001E0000
00000000
00000000
00FE0800
03FF8F00
0FFFFF00
1FFFFF00
1FFFFF00
3F83FF00
7F00FF00
7E00FE00
7C007E00
7C007E00
FC007E00
FC003E00
F8003C00
F8003C00
F8003C00
FC003C00
FC007E00
7C007E00
7C007E00
7E007E00
3F00FF00
3F81FF00
1FFFFF80
1FFFFF80
07FFEFC0
03FFC7E0
007E0000
ENDCHAR
STARTCHAR epsilontonos
ENCODING 941
SWIDTH 598 0
DWIDTH 29 0
BBX 22 38 3 0
BITMAP
003F00
003E00
003E00
003E00
003E00
003C00
003C00
003C00
003C00
003800
000000
000000
01FE00
07FFC0
1FFFE0
3FFFF8
7FFFFC
7F03F8
7E0070
FC0030
FC0000
7E0000
7FFE00
3FFE00
1FFE00
3FFE00
7FFE00
7F0000
FC0000
FC0000
FC0038
FE0078
7F81FC
7FFFFC
3FFFF8
1FFFF0
07FFC0
00FF00
ENDCHAR
STARTCHAR etatonos
ENCODING 942
SWIDTH 598 0
DWIDTH 29 0
BBX 23 46 3 -8
BITMAP
001F80
001F80
001F00
001F00
001F00
001E00
001E00
001E00
001E00
001C00
000000
000000
001F80
FC7FE0
FCFFF0
7DFFF8
7FFFFC
7FE1FC
7F80FC
7F007C
7E007E
7E007E
7E007E
7C007E
7C007E
7C007E
7C007E
7C007E
7C007E
7C007E
7C007E
7C007E
7C007E
7C007E
7C007E
7C007E
7C007E
7C007E
00007E
00007E
00007E
00007E
00007E
00007E
00007E
00007E
ENDCHAR
STARTCHAR iotatonos
ENCODING 943
SWIDTH 598 0
DWIDTH 29 0
BBX 15 38 5 0
BITMAP
01F8
01F8
01F8
01F0
01F0
01F0
01F0
01E0
01E0
01E0
0000
0000
FFF0
FFF0
FFF0
FFF0
FFF0
81F0
01F0
01F0
01F0
01F0
01F0
01F0
01F0
01F0
01F0
01F0
01F0
01F0
01F0
01F8
01F8
01FE
01FE
00FE
00FE
003E
ENDCHAR
STARTCHAR upsilondieresistonos
ENCODING 944
SWIDTH 598 0
DWIDTH 29 0
BBX 24 43 1 -1
BITMAP
001F80
001F00
001F00
001F00
001F00
001E00
001E00
001E00
073EE0
0FFDF0
1FC3F8
1FC3F8
1FC3F8
0FC1F8
0781F0
000000
000000
7F001F
FF001F
FF001F
FF001F
3F001F
3F001F
3F001F
3F001F
3F001F
3F001F
3F001F
3F001F
3F001F
3F001F
3F001F
3F001F
3F003F
3F003F
1F007F
1F80FE
1FE1FE
0FFFFC
0FFFF8
03FFF0
01FFE0
007F80
ENDCHAR
STARTCHAR alpha
ENCODING 945
SWIDTH 598 0
DWIDTH 29 0
BBX 27 27 1 -1
BITMAP
00FE0800
03FF8F00
0FFFFF00
1FFFFF00
1FFFFF00
3F83FF00
7F00FF00
7E00FE00
7C007E00
7C007E00
FC007E00
FC003E00
F8003C00
F8003C00
F8003C00
FC003C00
FC007E00
7C007E00
7C007E00
7E007E00
3F00FF00
3F81FF00
1FFFFF80
1FFFFF80
07FFEFC0
03FFC7E0
007E0000
ENDCHAR
STARTCHAR beta
ENCODING 946
SWIDTH 598 0
DWIDTH 29 0
BBX 23 44 3 -8
BITMAP
01FC00
07FF00
0FFF80
1FFFC0
3FFFE0
7F07F0
7E03F0
FC01F0
FC01F0
F801F8
F801F8
F801F0
F803F0
F807F0
FBFFE0
FBFFC0
FBFF80
FBFFE0
FBFFF0
F803F8
F801FC
F800FC
F8007E
F8007E
F8003E
F8003E
F8003E
F8007E
FC007E
FE00FC
FF81FC
FFFFF8
FFFFF0
FBFFE0
F9FFC0
F87E00
F80000
F80000
F80000
F80000
F80000
F80000
F80000
F80000
ENDCHAR
STARTCHAR gamma
ENCODING 947
SWIDTH 598 0
DWIDTH 29 0
BBX 25 34 2 -9
BITMAP
FC001F80
FC001F80
7C001F00
7E003F00
3E003E00
3F003E00
1F007E00
1F007C00
1F807C00
0F80FC00
0FC0F800
07C0F800
07C1F000
03E1F000
03E1F000
03F3E000
01F3E000
01F3C000
00FFC000
00FFC000
007F8000
007F8000
007F0000
003F0000
003F0000
003E0000
003E0000
003E0000
003E0000
003E0000
003E0000
003E0000
003E0000
003E0000
ENDCHAR
STARTCHAR delta
ENCODING 948
SWIDTH 598 0
DWIDTH 29 0
BBX 23 37 3 -1
BITMAP
FFFFFC
FFFFFC
FFFFFC
FFFFFC
FFFFFC
7F800C
3FC004
0FE000
07F000
03F800
01FE00
00FF00
03FF80
0FFFC0
1FFFE0
3F83F0
3F01F8
7E00F8
7C007C
FC007C
F8003E
F8003E
F8003E
F8003E
F8003E
F8003E
F8003E
FC007E
FC007E
FE007C
7E00FC
3F81F8
3FFFF8
1FFFF0
0FFFE0
03FF80
00FE00
ENDCHAR
STARTCHAR epsilon
ENCODING 949
SWIDTH 598 0
DWIDTH 29 0
BBX 22 26 3 0
BITMAP
01FE00
07FFC0
1FFFE0
3FFFF8
7FFFFC
7F03F8
7E0070
FC0030
FC0000
7E0000
7FFE00
3FFE00
1FFE00
3FFE00
7FFE00
7F0000
FC0000
FC0000
FC0038
FE0078
7F81FC
7FFFFC
3FFFF8
1FFFF0
07FFC0
00FF00
ENDCHAR
STARTCHAR zeta
ENCODING 950
SWIDTH 598 0
DWIDTH 29 0
BBX 22 43 3 -6
BITMAP
7FFFFC
7FFFFC
7FFFFC
7FFFFC
7FFFFC
4007F8
001FE0
007F80
00FE00
01FC00
03F800
07F000
0FE000
0FC000
1F8000
3F8000
3F0000
3F0000
7E0000
7E0000
7E0000
7E0000
7C0000
FC0000
FC0000
7C0000
7E0000
7E0000
3F0000
3FC000
1FFF80
0FFFFC
03FFFC
00FFFC
001FFC
0000FC
0000FC
0000F8
0000F8
0001F0
0001F0
0003F0
000200
ENDCHAR
STARTCHAR eta
ENCODING 951
SWIDTH 598 0
DWIDTH 29 0
BBX 23 34 3 -8
BITMAP
001F80
FC7FE0
FCFFF0
7DFFF8
7FFFFC
7FE1FC
7F80FC
7F007C
7E007E
7E007E
7E007E
7C007E
7C007E
7C007E
7C007E
7C007E
7C007E
7C007E
7C007E
7C007E
7C007E
7C007E
7C007E
7C007E
7C007E
7C007E
00007E
00007E
00007E
00007E
00007E
00007E
00007E
00007E
ENDCHAR
STARTCHAR theta
ENCODING 952
SWIDTH 598 0
DWIDTH 29 0
BBX 22 36 3 0
BITMAP
01F800
07FE00
0FFF80
1FFF80
1FFFC0
3F8FE0
3F07E0
7E03F0
7C01F0
7C01F0
FC01F8
FC00F8
F800F8
F800F8
F800F8
F800F8
FFFFF8
FFFFFC
FFFFFC
FFFFFC
F800F8
F800F8
F800F8
F800F8
F800F8
FC00F8
FC01F8
7C01F0
7E03F0
7E03F0
3F8FE0
3FFFE0
1FFFC0
0FFF80
07FF00
01FC00
ENDCHAR
STARTCHAR iota
ENCODING 953
SWIDTH 598 0
DWIDTH 29 0
BBX 15 26 5 0
BITMAP
FFF0
FFF0
FFF0
FFF0
FFF0
81F0
01F0
01F0
01F0
01F0
01F0
01F0
01F0
01F0
01F0
01F0
01F0
01F0
01F0
01F8
01F8
01FE
01FE
00FE
00FE
003E
ENDCHAR
STARTCHAR kappa
ENCODING 954
SWIDTH 598 0
DWIDTH 29 0
BBX 25 25 2 0
BITMAP
FC007F00
FC00FE00
FC03FC00
FC07F000
FC0FE000
FC1FC000
FC3F8000
FC7F0000
FCFE0000
FDFC0000
FFF80000
FFFC0000
FFFE0000
FF7E0000
FE3F0000
FC1F8000
FC0FC000
FC0FE000
FC07F000
FC03F800
FC01F800
FC00FC00
FC007E00
FC007F00
FC003F80
ENDCHAR
STARTCHAR lambda
ENCODING 955
SWIDTH 598 0
DWIDTH 29 0
BBX 28 37 1 0
BITMAP
0FC00000
0FF00000
0FF80000
0FFC0000
0FFE0000
007E0000
003F0000
003F0000
001F8000
001F8000
000F8000
000FC000
000FC000
0007C000
000FC000
000FE000
001FE000
003FE000
003FF000
007FF000
007DF000
00FCF800
00F8F800
01F0FC00
03F07C00
03E07C00
07E07E00
07C03E00
0FC03E00
0F803F00
1F801F00
3F001F00
3E001F80
7E000F80
7C000FC0
FC0007C0
F80007F0
ENDCHAR
STARTCHAR mu
ENCODING 956
SWIDTH 598 0
DWIDTH 29 0
BBX 23 33 3 -8
BITMAP
F800F8
F800F8
F800F8
F800F8
F800F8
F800F8
F800F8
F800F8
F800F8
F800F8
F800F8
F800F8
F800F8
F800F8
F801F8
F801F8
F803F8
FC07F8
FC0FF8
FF7FF8
FFFFFE
FFFFFE
FFFEFE
FFFC7E
F9F07E
F80000
F80000
F80000
F80000
F80000
F80000
F80000
F80000
ENDCHAR
STARTCHAR nu
ENCODING 957
SWIDTH 598 0
DWIDTH 29 0
BBX 25 27 2 -1
BITMAP
FC003F80
FC001F80
7C000F80
7E000F80
7E000F80
3E000F80
3F000F80
1F000F80
1F001F80
1F801F00
0F801F00
0F803F00
07C03E00
07C07E00
07E07C00
03E0FC00
03E1F800
01F1F800
01F3F000
01FFE000
00FFE000
00FFC000
00FFC000
007F8000
007F0000
003E0000
003E0000
ENDCHAR
STARTCHAR xi
ENCODING 958
SWIDTH 598 0
DWIDTH 29 0
BBX 21 42 4 -6
BITMAP
7FFFF8
7FFFF8
7FFFF8
7FFFF8
7FFFF8
43FE00
07F800
07F000
0FC000
0FC000
1F8000
1F8000
0FC000
0FF000
0FFFE0
07FFE0
01FFE0
07FFE0
1FFFE0
3FFFE0
3F8000
7E0000
7C0000
FC0000
FC0000
FC0000
FC0000
FC0000
7E0000
7FE000
3FFE00
3FFFC0
1FFFE0
07FFF0
00FFF0
000FF8
0001F0
0001F0
0003F0
0007E0
0007E0
0007C0
ENDCHAR
STARTCHAR omicron
ENCODING 959
SWIDTH 598 0
DWIDTH 29 0
BBX 25 27 2 -1
BITMAP
007F0000
01FFC000
07FFF000
0FFFF800
1FFFFC00
3FC1FE00
3F007E00
7E003F00
7E003F00
7C001F00
FC001F00
FC001F80
FC001F80
FC001F80
FC001F80
FC001F80
FC001F80
7C001F00
7E003F00
7F003F00
3F007E00
3FC1FE00
1FFFFC00
0FFFF800
07FFF000
01FFE000
007F0000
ENDCHAR
STARTCHAR pi
ENCODING 960
SWIDTH 598 0
DWIDTH 29 0
BBX 27 26 1 0
BITMAP
FFFFFFE0
FFFFFFE0
FFFFFFE0
FFFFFFE0
FFFFFFE0
1F803E00
1F803E00
1F803E00
1F803E00
1F803E00
1F803E00
1F803E00
1F803E00
1F803E00
1F803E00
1F803E00
1F803E00
1F803E00
1F803E00
1F803E00
1F803E80
1F803F80
1F803F80
1F803F80
1F803F80
1F801F80
ENDCHAR
STARTCHAR rho
ENCODING 961
SWIDTH 598 0
DWIDTH 29 0
BBX 23 35 3 -9
BITMAP
01FC00
0FFF80
1FFFC0
3FFFF0
7FFFF0
7F03F8
FE01F8
FC00FC
F8007C
F8007C
F8007E
F8007E
F8003E
F8003E
F8003E
F8003E
F8007E
F8007E
F8007C
FC00FC
FE01FC
FF03F8
FFFFF0
FFFFF0
FFFFC0
FBFF80
F8FC00
F80000
F80000
F80000
F80000
F80000
F80000
F80000
F80000
ENDCHAR
STARTCHAR sigma1
ENCODING 962
SWIDTH 598 0
DWIDTH 29 0
BBX 21 32 3 -6
BITMAP
003FF0
01FFF0
07FFF0
0FFFF0
1FFFF0
1FFF80
3F8000
7F0000
7E0000
7E0000
7C0000
FC0000
FC0000
7C0000
7E0000
7E0000
7F0000
3F0000
3FC000
1FF800
0FFF80
07FFE0
03FFF0
007FF8
000FF8
0001F8
0001F8
0001F8
0003F0
0003F0
0007E0
0007C0
ENDCHAR
STARTCHAR sigma
ENCODING 963
SWIDTH 598 0
DWIDTH 29 0
BBX 27 27 1 -1
BITMAP
007FFFE0
01FFFFE0
07FFFFE0
0FFFFFE0
1FFFFFE0
1FC1FE00
3F007E00
7E003F00
7E001F00
7C001F00
FC001F80
FC001F80
FC001F80
FC001F80
FC001F80
FC001F80
FC001F80
7C001F00
7E003F00
7F003F00
3F007E00
3FC1FE00
1FFFFC00
0FFFF800
07FFF000
01FFE000
007F0000
ENDCHAR
STARTCHAR tau
ENCODING 964
SWIDTH 598 0
DWIDTH 29 0
BBX 25 26 2 0
BITMAP
3FFFFF80
3FFFFF80
7FFFFF80
7FFFFF80
FFFFFF80
807E0000
007E0000
007E0000
007E0000
007E0000
007E0000
007E0000
007E0000
007E0000
007E0000
007E0000
007E0000
007E0000
007E0000
007E0000
007F0000
003FFC00
003FFC00
001FFC00
000FFC00
0001FC00
ENDCHAR
STARTCHAR upsilon
ENCODING 965
SWIDTH 598 0
DWIDTH 29 0
BBX 24 26 1 -1
BITMAP
7F001F
FF001F
FF001F
FF001F
3F001F
3F001F
3F001F
3F001F
3F001F
3F001F
3F001F
3F001F
3F001F
3F001F
3F001F
3F001F
3F003F
3F003F
1F007F
1F80FE
1FE1FE
0FFFFC
0FFFF8
03FFF0
01FFE0
007F80
ENDCHAR
STARTCHAR phi
ENCODING 966
SWIDTH 598 0
DWIDTH 29 0
BBX 25 38 2 -9
BITMAP
003E0000
003E0000
003E0000
00FF8000
03FFE000
07FFF000
0FFFF800
1FBFFC00
3F3E7E00
3E3E7E00
7E3E3F00
7C3E1F00
FC3E1F00
FC3E1F80
FC3E1F80
F83E1F80
F83E1F80
FC3E1F80
FC3E1F80
FC3E1F00
7C3E1F00
7E3E3F00
7E3E3E00
3F3E7E00
1FBEFC00
1FFFF800
0FFFF000
03FFE000
00FF8000
003E0000
003E0000
003E0000
003E0000
003E0000
003E0000
003E0000
003E0000
003E0000
ENDCHAR
STARTCHAR chi
ENCODING 967
SWIDTH 598 0
DWIDTH 29 0
BBX 25 34 2 -9
BITMAP
F8003E00
FC003E00
FE007C00
FF007C00
FF80F800
3F80F800
1FC1F000
0FC1F000
07E3E000
07F3E000
03F7C000
01FFC000
01FF8000
00FF8000
00FF0000
007F0000
007F0000
007F0000
007F8000
00FF8000
00FFC000
01FFC000
01F7E000
03F3E000
03E3F000
07E1F000
07C1F800
0FC0FC00
0F80FC00
1F80FF80
1F007F80
3F003F80
3F003F80
7E000F80
ENDCHAR
STARTCHAR psi
ENCODING 968
SWIDTH 598 0
DWIDTH 29 0
BBX 21 41 4 -10
BITMAP
000800
007800
00F800
00F800
00F800
00F800
F8F8F8
F8F8F8
F8F8F8
F8F8F8
F8F8F8
F8F8F8
F8F8F8
F8F8F8
F8F8F8
F8F8F8
F8F8F8
F8F8F8
F8F8F8
F8F8F8
F8F8F8
F8F8F8
F8F8F8
F8F8F8
F8F9F0
F8F9F0
7CFBE0
7EFFE0
3FFFC0
1FFF80
0FFF00
03FC00
00F800
00F800
00F800
00F800
00F800
00F800
00F800
00F800
00F800
ENDCHAR
STARTCHAR omega
ENCODING 969
SWIDTH 598 0
DWIDTH 29 0
BBX 27 27 1 -1
BITMAP
3E000F80
7E000F80
7E000FC0
7C000FC0
7C000FC0
7C0007C0
7C0007C0
FC1F07C0
FC1F07C0
FC1F07C0
FC1F07E0
FC1F07E0
FC1F07E0
FC1F07E0
FC1F07E0
FC1F07E0
FC1F07E0
FC1F07C0
7C3F07C0
7C3F87C0
7E3F8FC0
7E7FCFC0
3FFFFF80
3FFFFF80
1FFFFF00
0FF3FE00
03E0F800
ENDCHAR
STARTCHAR iotadieresis
ENCODING 970
SWIDTH 598 0
DWIDTH 29 0
BBX 19 35 7 0
BITMAP
1C0780
7E0FC0
7F0FE0
7F0FE0
7F0FE0
7E0FC0
3C0780
000000
000000
FFF000
FFF000
FFF000
FFF000
FFF000
81F000
01F000
01F000
01F000
01F000
01F000
01F000
01F000
01F000
01F000
01F000
01F000
01F000
01F000
01F000
01F800
01FE00
01FE00
00FE00
00FE00
003E00
ENDCHAR
STARTCHAR upsilondieresis
ENCODING 971
SWIDTH 598 0
DWIDTH 29 0
BBX 24 35 1 -1
BITMAP
0700E0
0F81F0
1FC3F8
1FC3F8
1FC3F8
0FC3F0
0781F0
000000
000000
7F001F
FF001F
FF001F
FF001F
3F001F
3F001F
3F001F
3F001F
3F001F
3F001F
3F001F
3F001F
3F001F
3F001F
3F001F
3F001F
3F003F
3F003F
1F007F
1F80FE
1FE1FE
0FFFFC
0FFFF8
03FFF0
01FFE0
007F80
ENDCHAR
STARTCHAR omicrontonos
ENCODING 972
SWIDTH 598 0
DWIDTH 29 0
BBX 25 39 2 -1
BITMAP
001F8000
001F8000
001F8000
001F0000
001F0000
001F0000
001F0000
001E0000
001E0000
001E0000
00000000
00000000
007F0000
01FFC000
07FFF000
0FFFF800
1FFFFC00
3FC1FE00
3F007E00
7E003F00
7E003F00
7C001F00
FC001F00
FC001F80
FC001F80
FC001F80
FC001F80
FC001F80
FC001F80
7C001F00
7E003F00
7F003F00
3F007E00
3FC1FE00
1FFFFC00
0FFFF800
07FFF000
01FFE000
007F0000
ENDCHAR
STARTCHAR upsilontonos
ENCODING 973
SWIDTH 598 0
DWIDTH 29 0
BBX 24 38 1 -1
BITMAP
001F80
001F80
001F80
001F80
001F00
001F00
001F00
001E00
001E00
001E00
000000
000000
7F001F
FF001F
FF001F
FF001F
3F001F
3F001F
3F001F
3F001F
3F001F
3F001F
3F001F
3F001F
3F001F
3F001F
3F001F
3F001F
3F003F
3F003F
1F007F
1F80FE
1FE1FE
0FFFFC
0FFFF8
03FFF0
01FFE0
007F80
ENDCHAR
STARTCHAR omegatonos
ENCODING 974
SWIDTH 598 0
DWIDTH 29 0
BBX 27 39 1 -1
BITMAP
001F8000
001F8000
001F8000
001F8000
001F0000
001F0000
001F0000
001E0000
001E0000
001E0000
00000000
00000000
3E000F80
7E000F80
7E000FC0
7C000FC0
7C000FC0
7C0007C0
7C0007C0
FC1F07C0
FC1F07C0
FC1F07C0
FC1F07E0
FC1F07E0
FC1F07E0
FC1F07E0
FC1F07E0
FC1F07E0
FC1F07E0
FC1F07C0
7C3F07C0
7C3F87C0
7E3F8FC0
7E7FCFC0
3FFFFF80
3FFFFF80
1FFFFF00
0FF3FE00
03E0F800
ENDCHAR
STARTCHAR uni0400
ENCODING 1024
SWIDTH 585 0
DWIDTH 28 0
BBX 23 45 3 0
BITMAP
010000
03C000
03F000
07FE00
07FF80
00FF80
001F00
000200
000000
000000
FFFFFE
FFFFFE
FFFFFE
FFFFFE
FFFFFE
F80000
F80000
F80000
F80000
F80000
F80000
F80000
F80000
F80000
FFFFF0
FFFFF0
FFFFF0
FFFFF0
FFFFF0
F80000
F80000
F80000
F80000
F80000
F80000
F80000
F80000
F80000
F80000
F80000
FFFFFE
FFFFFE
FFFFFE
FFFFFE
FFFFFE
ENDCHAR
STARTCHAR afii10023
ENCODING 1025
SWIDTH 585 0
DWIDTH 28 0
BBX 23 44 3 0
BITMAP
0E01C0
1F83E0
3F87F0
3F87F0
3F87F0
1F83F0
0F01E0
000000
000000
FFFFFE
FFFFFE
FFFFFE
FFFFFE
FFFFFE
F80000
F80000
F80000
F80000
F80000
F80000
F80000
F80000
F80000
FFFFF0
FFFFF0
FFFFF0
FFFFF0
FFFFF0
F80000
F80000
F80000
F80000
F80000
F80000
F80000
F80000
F80000
F80000
F80000
FFFFFE
FFFFFE
FFFFFE
FFFFFE
FFFFFE
ENDCHAR
STARTCHAR afii10051
ENCODING 1026
SWIDTH 598 0
DWIDTH 29 0
BBX 28 45 0 -10
BITMAP
FFFFE000
FFFFE000
FFFFE000
FFFFE000
FFFFE000
07E00000
07E00000
07E00000
07E00000
07E00000
07E1FC00
07E7FF00
07FFFFC0
07FFFFC0
07FFFFE0
07FE0FE0
07F007E0
07E003F0
07E003F0
07E003F0
07E003F0
07E003F0
07E003F0
07E003F0
07E003F0
07E003F0
07E003F0
07E003F0
07E003F0
07E003F0
07E003F0
07E003F0
07E003F0
07E003F0
07E003F0
000003F0
001003E0
003003E0
007807E0
007E1FC0
00FFFFC0
007FFF80
003FFF00
000FFE00
0003F000
ENDCHAR
STARTCHAR afii10052
ENCODING 1027
SWIDTH 585 0
DWIDTH 28 0
BBX 23 45 3 0
BITMAP
000200
000F00
003F80
00FF80
07FF80
03FC00
03E000
018000
000000
000000
FFFFFE
FFFFFE
FFFFFE
FFFFFE
FFFFFE
F80000
F80000
F80000
F80000
F80000
F80000
F80000
F80000
F80000
F80000
F80000
F80000
F80000
F80000
F80000
F80000
F80000
F80000
F80000
F80000
F80000
F80000
F80000
F80000
F80000
F80000
F80000
F80000
F80000
F80000
ENDCHAR
STARTCHAR afii10053
ENCODING 1028
SWIDTH 598 0
DWIDTH 29 0
BBX 25 37 2 -1
BITMAP
003F8000
00FFF000
03FFF800
07FFFC00
0FFFFE00
1FE07F00
1F803F80
3F001F80
3F000F80
7E000E00
7E000000
7C000000
7C000000
FC000000
FC000000
FFFFE000
FFFFE000
FFFFE000
FFFFE000
FFFFE000
F8000000
F8000000
FC000000
FC000000
7C000000
7C000000
7E000000
7E000000
3F000E00
3F801F00
1FC03F80
1FE07F00
0FFFFF00
07FFFE00
03FFF800
00FFF000
003F8000
ENDCHAR
STARTCHAR afii10054
ENCODING 1029
SWIDTH 585 0
DWIDTH 28 0
BBX 24 37 3 -1
BITMAP
00FF00
03FFC0
0FFFF0
1FFFF8
3FFFFC
3F00FC
7E0078
7C0038
7C0010
7C0000
7E0000
7E0000
7F0000
3FC000
1FF000
0FFC00
07FF00
03FFC0
00FFF0
003FF8
0007FC
0001FC
0000FE
00007E
00003E
00003E
20003F
30003E
70003E
78007E
FC00FE
FF03FC
FFFFFC
7FFFF8
3FFFF0
0FFFC0
01FE00
ENDCHAR
STARTCHAR afii10055
ENCODING 1030
SWIDTH 585 0
DWIDTH 28 0
BBX 20 35 4 0
BITMAP
7FFFE0
7FFFE0
7FFFE0
7FFFE0
7FFFE0
01F000
01F000
01F000
01F000
01F000
01F000
01F000
01F000
01F000
01F000
01F000
01F000
01F000
01F000
01F000
01F000
01F000
01F000
01F000
01F000
01F000
01F000
01F000
01F000
01F000
FFFFF0
FFFFF0
FFFFF0
FFFFF0
FFFFF0
ENDCHAR
STARTCHAR afii10056
ENCODING 1031
SWIDTH 585 0
DWIDTH 28 0
BBX 20 44 4 0
BITMAP
3C0780
7E0FC0
7F0FE0
7F0FE0
7F0FE0
7E0FC0
3C0780
000000
000000
7FFFE0
7FFFE0
7FFFE0
7FFFE0
7FFFE0
01F000
01F000
01F000
01F000
01F000
01F000
01F000
01F000
01F000
01F000
01F000
01F000
01F000
01F000
01F000
01F000
01F000
01F000
01F000
01F000
01F000
01F000
01F000
01F000
01F000
FFFFF0
FFFFF0
FFFFF0
FFFFF0
FFFFF0
ENDCHAR
STARTCHAR afii10057
ENCODING 1032
SWIDTH 585 0
DWIDTH 28 0
BBX 25 36 2 -1
BITMAP
01FFFF80
01FFFF80
01FFFF80
01FFFF80
01FFFF80
0003E000
0003E000
0003E000
0003E000
0003E000
0003E000
0003E000
0003E000
0003E000
0003E000
0003E000
0003E000
0003E000
0003E000
0003E000
0003E000
0003E000
0003E000
0003E000
0003E000
0003E000
0003E000
1003E000
1807E000
3807E000
7E0FC000
FFFFC000
7FFF8000
3FFF0000
0FFE0000
03F80000
ENDCHAR
STARTCHAR afii10058
ENCODING 1033
SWIDTH 598 0
DWIDTH 29 0
BBX 29 36 0 -1
BITMAP
0FFFE000
0FFFE000
0FFFC000
0FFFC000
0FFFC000
0FC7C000
0FC7C000
0F87C000
0F87C000
0F87C000
0F87C000
0F87C000
0F87C000
0F87C000
0F87FE00
0F87FF80
0F87FFC0
0F87FFE0
0F87C7E0
0F87C3F0
0F87C3F0
0F87C1F0
0F87C1F0
0F87C1F8
0F87C1F8
0F87C1F8
0F87C1F8
0F87C1F0
2F87C3F0
7F87C7F0
7F87FFE0
7F07FFE0
FF07FFC0
FF07FF80
7E07FE00
3C000000
ENDCHAR
STARTCHAR afii10059
ENCODING 1034
SWIDTH 598 0
DWIDTH 29 0
BBX 27 35 1 0
BITMAP
FC0F8000
FC0F8000
F80F8000
F80F8000
F80F8000
F80F8000
F80F8000
F80F8000
F80F8000
F80F8000
F80F8000
F80F8000
F80F8000
F80F8000
FFFFFC00
FFFFFE00
FFFFFF80
FFFFFF80
FFFF8FC0
F80F87C0
F80F87E0
F80F83E0
F80F83E0
F80F83E0
F80F83E0
F80F83E0
F80F83E0
F80F87E0
F80F87E0
F80F8FE0
F80FFFC0
F80FFFC0
F80FFF80
F80FFF00
F80FFC00
ENDCHAR
STARTCHAR afii10060
ENCODING 1035
SWIDTH 598 0
DWIDTH 29 0
BBX 27 35 1 0
BITMAP
FFFFE000
FFFFE000
FFFFE000
FFFFE000
FFFFE000
07C00000
07C00000
07C00000
07C00000
07C00000
07C1F800
07CFFE00
07DFFF80
07FFFF80
07FFFFC0
07FC1FC0
07F00FE0
07E007E0
07E007E0
07E007E0
07C007E0
07C007E0
07C007E0
07C007E0
07C007E0
07C007E0
07C007E0
07C007E0
07C007E0
07C007E0
07C007E0
07C007E0
07C007E0
07C007E0
07C007E0
ENDCHAR
STARTCHAR afii10061
ENCODING 1036
SWIDTH 585 0
DWIDTH 28 0
BBX 26 45 2 0
BITMAP
00010000
00078000
001FC000
007FC000
03FFC000
01FE0000
01F00000
00C00000
00000000
00000000
FC003F80
FC003F00
FC007E00
FC00FC00
FC01F800
FC03F000
FC07F000
FC0FE000
FC1FC000
FC1F8000
FC3F0000
FC7E0000
FCFC0000
FDF80000
FFF00000
FFF00000
FFF80000
FFF80000
FEFC0000
FC7E0000
FC7E0000
FC3F0000
FC1F8000
FC1FC000
FC0FC000
FC07E000
FC07F000
FC03F800
FC01F800
FC01FC00
FC00FE00
FC007E00
FC007F00
FC003F80
FC001FC0
ENDCHAR
STARTCHAR uni040D
ENCODING 1037
SWIDTH 598 0
DWIDTH 29 0
BBX 23 45 3 0
BITMAP
010000
03C000
03F000
07FE00
07FF80
00FF80
001F00
000200
000000
000000
F8003E
F8007E
F8007E
F800FE
F800FE
F801FE
F803FE
F803FE
F807FE
F807FE
F80FBE
F80FBE
F81F3E
F81F3E
F83E3E
F87E3E
F87C3E
F8F83E
F8F83E
F9F03E
F9F03E
FBE03E
FFE03E
FFC03E
FFC03E
FF803E
FF003E
FF003E
FE003E
FE003E
FC003E
FC003E
F8003E
F8003E
F0003E
ENDCHAR
STARTCHAR afii10062
ENCODING 1038
SWIDTH 598 0
DWIDTH 29 0
BBX 26 45 1 -1
BITMAP
02001000
07003800
0F807800
0FE3FC00
07FFF800
03FFF000
01FFC000
003F0000
00000000
FE000FC0
FE000FC0
7E000F80
7F000F80
3F001F80
1F001F00
1F801F00
0F803F00
0FC03E00
07C03E00
07E07E00
03E07C00
03F07C00
01F0F800
01F8F800
00F8F800
00FDF000
007DF000
007FE000
003FE000
003FE000
001FC000
001FC000
000FC000
000F8000
000F8000
001F0000
001F0000
103F0000
183E0000
387E0000
3FFC0000
7FFC0000
7FF80000
3FF00000
0FC00000
ENDCHAR
STARTCHAR afii10145
ENCODING 1039
SWIDTH 598 0
DWIDTH 29 0
BBX 25 43 2 -8
BITMAP
FC001F80
FC001F80
FC001F80
FC001F80
FC001F80
FC001F80
FC001F80
FC001F80
FC001F80
FC001F80
FC001F80
FC001F80
FC001F80
FC001F80
FC001F80
FC001F80
FC001F80
FC001F80
FC001F80
FC001F80
FC001F80
FC001F80
FC001F80
FC001F80
FC001F80
FC001F80
FC001F80
FC001F80
FC001F80
FC001F80
FFFFFF80
FFFFFF80
FFFFFF80
FFFFFF80
FFFFFF80
003E0000
003E0000
003E0000
003E0000
003E0000
003E0000
003E0000
003E0000
ENDCHAR
STARTCHAR afii10017
ENCODING 1040
SWIDTH 585 0
DWIDTH 28 0
BBX 28 35 0 0
BITMAP
00060000
000E0000
000F0000
000F0000
001F0000
001F8000
001F8000
003FC000
003FC000
007FC000
007FE000
007FE000
00FBF000
00F9F000
00F1F000
01F0F800
01F0F800
01E0FC00
03E07C00
03E07C00
07C07E00
07FFFE00
07FFFF00
0FFFFF00
0FFFFF00
0F801F80
1F801F80
1F000F80
1F000FC0
3F0007C0
3E0007E0
3E0007E0
7E0003E0
7C0003F0
FC0001F0
ENDCHAR
STARTCHAR afii10018
ENCODING 1041
SWIDTH 598 0
DWIDTH 29 0
BBX 25 35 2 0
BITMAP
FFFFFE00
FFFFFE00
FFFFFE00
FFFFFE00
FFFFFE00
FC000000
FC000000
FC000000
FC000000
FC000000
FC000000
FC000000
FC000000
FC000000
FFFF0000
FFFFE000
FFFFF000
FFFFFC00
FFFFFE00
FC00FE00
FC007F00
FC003F00
FC001F00
FC001F00
FC001F80
FC001F80
FC001F00
FC003F00
FC007F00
FC00FE00
FFFFFE00
FFFFFC00
FFFFF800
FFFFE000
FFFF8000
ENDCHAR
STARTCHAR afii10019
ENCODING 1042
SWIDTH 585 0
DWIDTH 28 0
BBX 25 35 2 0
BITMAP
FFFF0000
FFFFE000
FFFFF000
FFFFF800
FFFFFC00
FC01FC00
FC007E00
FC007E00
FC003E00
FC003E00
FC003E00
FC007E00
FC00FE00
FC01FC00
FFFFF800
FFFFF000
FFFFE000
FFFFF800
FFFFFC00
FC00FE00
FC007E00
FC003F00
FC001F00
FC001F00
FC001F80
FC001F80
FC001F00
FC003F00
FC007F00
FC00FE00
FFFFFE00
FFFFFC00
FFFFF800
FFFFE000
FFFF8000
ENDCHAR
STARTCHAR afii10020
ENCODING 1043
SWIDTH 585 0
DWIDTH 28 0
BBX 23 35 3 0
BITMAP
FFFFFE
FFFFFE
FFFFFE
FFFFFE
FFFFFE
F80000
F80000
F80000
F80000
F80000
F80000
F80000
F80000
F80000
F80000
F80000
F80000
F80000
F80000
F80000
F80000
F80000
F80000
F80000
F80000
F80000
F80000
F80000
F80000
F80000
F80000
F80000
F80000
F80000
F80000
ENDCHAR
STARTCHAR afii10021
ENCODING 1044
SWIDTH 598 0
DWIDTH 29 0
BBX 27 43 2 -8
BITMAP
03FFFF00
03FFFF00
03FFFF00
03FFFF00
03FFFF00
03E01F00
03E01F00
03E01F00
03E01F00
03E01F00
03E01F00
03E01F00
07E01F00
07E01F00
07E01F00
07C01F00
07C01F00
07C01F00
07C01F00
07C01F00
07C01F00
07C01F00
0FC01F00
0FC01F00
0F801F00
0F801F00
0F801F00
0F801F00
1F801F00
1F801F00
FFFFFFE0
FFFFFFE0
FFFFFFE0
FFFFFFE0
FFFFFFE0
F80007E0
F80007E0
F80007E0
F80007E0
F80007E0
F80007E0
F80007E0
F80007E0
ENDCHAR
STARTCHAR afii10022
ENCODING 1045
SWIDTH 585 0
DWIDTH 28 0
BBX 23 35 3 0
BITMAP
FFFFFE
FFFFFE
FFFFFE
FFFFFE
FFFFFE
F80000
F80000
F80000
F80000
F80000
F80000
F80000
F80000
F80000
FFFFF0
FFFFF0
FFFFF0
FFFFF0
FFFFF0
F80000
F80000
F80000
F80000
F80000
F80000
F80000
F80000
F80000
F80000
F80000
FFFFFE
FFFFFE
FFFFFE
FFFFFE
FFFFFE
ENDCHAR
STARTCHAR afii10024
ENCODING 1046
SWIDTH 598 0
DWIDTH 29 0
BBX 29 35 0 0
BITMAP
7E0007F0
7F0F87E0
3F0F87E0
3F0F8FC0
1F8F8FC0
1F8F9F80
0FCF9F80
07CFBF00
07EFBF00
03EFBE00
03FFFE00
01FFFC00
01FFFC00
00FFF800
00FFF800
007FF000
007FF000
003FE000
007FF000
007FF000
00FFF800
01FFFC00
01FFFC00
03FFFE00
03FFFE00
07EFBF00
07EFBF00
0FCF9F80
1FCF9F80
1F8F8FC0
3F8F8FE0
3F0F87E0
7F0F87F0
7E0F83F0
FE0F83F8
ENDCHAR
STARTCHAR afii10025
ENCODING 1047
SWIDTH 598 0
DWIDTH 29 0
BBX 26 37 1 -1
BITMAP
007F8000
03FFE000
07FFF800
1FFFFC00
3FFFFE00
3FC0FF00
3F003F00
1E001F00
08001F80
00001F80
00001F80
00001F00
00001F00
00003F00
0000FE00
0007FE00
00FFFC00
00FFF000
00FFFC00
00FFFE00
0001FF00
00003F00
00001F80
00000F80
00000F80
00000FC0
08000FC0
1C000FC0
7C000F80
FE001F80
FF003F80
7F80FF00
3FFFFE00
1FFFFE00
07FFF800
03FFF000
007F8000
ENDCHAR
STARTCHAR afii10026
ENCODING 1048
SWIDTH 598 0
DWIDTH 29 0
BBX 23 35 3 0
BITMAP
F8003E
F8007E
F8007E
F800FE
F800FE
F801FE
F803FE
F803FE
F807FE
F807FE
F80FBE
F80FBE
F81F3E
F81F3E
F83E3E
F87E3E
F87C3E
F8F83E
F8F83E
F9F03E
F9F03E
FBE03E
FFE03E
FFC03E
FFC03E
FF803E
FF003E
FF003E
FE003E
FE003E
FC003E
FC003E
F8003E
F8003E
F0003E
ENDCHAR
STARTCHAR afii10027
ENCODING 1049
SWIDTH 598 0
DWIDTH 29 0
BBX 23 44 3 0
BITMAP
080040
1C00E0
3E01E0
3F8FF0
1FFFE0
0FFFC0
07FF00
00FC00
000000
F8003E
F8007E
F8007E
F800FE
F800FE
F801FE
F803FE
F803FE
F807FE
F807FE
F80FBE
F80FBE
F81F3E
F81F3E
F83E3E
F87E3E
F87C3E
F8F83E
F8F83E
F9F03E
F9F03E
FBE03E
FFE03E
FFC03E
FFC03E
FF803E
FF003E
FF003E
FE003E
FE003E
FC003E
FC003E
F8003E
F8003E
F0003E
ENDCHAR
STARTCHAR afii10028
ENCODING 1050
SWIDTH 585 0
DWIDTH 28 0
BBX 26 35 2 0
BITMAP
FC003F80
FC003F00
FC007E00
FC00FC00
FC01F800
FC03F000
FC07F000
FC0FE000
FC1FC000
FC1F8000
FC3F0000
FC7E0000
FCFC0000
FDF80000
FFF00000
FFF00000
FFF80000
FFF80000
FEFC0000
FC7E0000
FC7E0000
FC3F0000
FC1F8000
FC1FC000
FC0FC000
FC07E000
FC07F000
FC03F800
FC01F800
FC01FC00
FC00FE00
FC007E00
FC007F00
FC003F80
FC001FC0
ENDCHAR
STARTCHAR afii10029
ENCODING 1051
SWIDTH 598 0
DWIDTH 29 0
BBX 26 35 0 0
BITMAP
00FFFFC0
00FFFFC0
00FFFFC0
00FFFFC0
00FFFFC0
00F807C0
00F807C0
00F807C0
00F807C0
00F807C0
00F807C0
00F807C0
00F807C0
01F807C0
01F807C0
01F007C0
01F007C0
01F007C0
01F007C0
01F007C0
01F007C0
01F007C0
03F007C0
03F007C0
03E007C0
03E007C0
03E007C0
03E007C0
27E007C0
67E007C0
77C007C0
7FC007C0
FFC007C0
7F8007C0
3F0007C0
ENDCHAR
STARTCHAR afii10030
ENCODING 1052
SWIDTH 585 0
DWIDTH 28 0
BBX 25 35 2 0
BITMAP
F8000F80
F8000F80
FC001F80
FC001F80
FE003F80
FE003F80
FF007F80
FF007F80
FF80FF80
FF80FF80
FFC1FF80
FFC1EF80
FBE3EF80
FBE3CF80
F9F7CF80
F9F78F80
F8FF8F80
F8FF0F80
F87F0F80
F87E0F80
F83C0F80
F83C0F80
F8180F80
F8000F80
F8000F80
F8000F80
F8000F80
F8000F80
F8000F80
F8000F80
F8000F80
F8000F80
F8000F80
F8000F80
F8000F80
ENDCHAR
STARTCHAR afii10031
ENCODING 1053
SWIDTH 585 0
DWIDTH 28 0
BBX 23 35 3 0
BITMAP
FC007E
FC007E
F8007E
F8007E
F8007E
F8007E
F8007E
F8007E
F8007E
F8007E
F8007E
F8007E
F8007E
F8007E
FFFFFE
FFFFFE
FFFFFE
FFFFFE
FFFFFE
F8007E
F8007E
F8007E
F8007E
F8007E
F8007E
F8007E
F8007E
F8007E
F8007E
F8007E
F8007E
F8007E
F8007E
F8007E
F8007E
ENDCHAR
STARTCHAR afii10032
ENCODING 1054
SWIDTH 585 0
DWIDTH 28 0
BBX 26 37 1 -1
BITMAP
003F8000
00FFE000
03FFF800
07FFFC00
0FFFFE00
0FE0FF00
1FC07F00
3F803F80
3F001F80
3E001F80
7E000FC0
7C000FC0
7C000FC0
7C0007C0
7C0007C0
FC0007C0
FC0007C0
FC0007C0
FC0007C0
FC0007C0
FC0007C0
7C0007C0
7C0007C0
7C0007C0
7C0007C0
7E000FC0
7E000FC0
3E000F80
3F001F80
1F803F80
1FC07F00
0FF1FE00
0FFFFE00
07FFFC00
03FFF800
00FFE000
003F8000
ENDCHAR
STARTCHAR afii10033
ENCODING 1055
SWIDTH 585 0
DWIDTH 28 0
BBX 23 35 3 0
BITMAP
FFFFFE
FFFFFE
FFFFFE
FFFFFE
FFFFFE
F8003E
F8003E
F8003E
F8003E
F8003E
F8003E
F8003E
F8003E
F8003E
F8003E
F8003E
F8003E
F8003E
F8003E
F8003E
F8003E
F8003E
F8003E
F8003E
F8003E
F8003E
F8003E
F8003E
F8003E
F8003E
F8003E
F8003E
F8003E
F8003E
F8003E
ENDCHAR
STARTCHAR afii10034
ENCODING 1056
SWIDTH 585 0
DWIDTH 28 0
BBX 24 35 3 0
BITMAP
FFFF00
FFFFE0
FFFFF0
FFFFF8
FFFFFC
F801FC
F800FE
F8007E
F8003E
F8003F
F8003F
F8003E
F8003E
F8007E
F800FE
FFFFFC
FFFFF8
FFFFF0
FFFFE0
FFFF80
F80000
F80000
F80000
F80000
F80000
F80000
F80000
F80000
F80000
F80000
F80000
F80000
F80000
F80000
F80000
ENDCHAR
STARTCHAR afii10035
ENCODING 1057
SWIDTH 585 0
DWIDTH 28 0
BBX 25 37 2 -1
BITMAP
003F8000
00FFF000
03FFF800
07FFFC00
0FFFFE00
1FE07F00
1F803F80
3F001F80
3F000F80
7E000E00
7E000000
7C000000
7C000000
FC000000
FC000000
F8000000
F8000000
F8000000
F8000000
F8000000
F8000000
F8000000
FC000000
FC000000
7C000000
7C000000
7E000000
7E000000
3F000C00
3F800F00
1FC03F80
1FE07F00
0FFFFF00
07FFFE00
03FFF800
00FFF000
003F8000
ENDCHAR
STARTCHAR afii10036
ENCODING 1058
SWIDTH 585 0
DWIDTH 28 0
BBX 26 35 1 0
BITMAP
FFFFFFC0
FFFFFFC0
FFFFFFC0
FFFFFFC0
FFFFFFC0
003F0000
003F0000
003F0000
003F0000
003F0000
003F0000
003F0000
003F0000
003F0000
003F0000
003F0000
003F0000
003F0000
003F0000
003F0000
003F0000
003F0000
003F0000
003F0000
003F0000
003F0000
003F0000
003F0000
003F0000
003F0000
003F0000
003F0000
003F0000
003F0000
003F0000
ENDCHAR
STARTCHAR afii10037
ENCODING 1059
SWIDTH 598 0
DWIDTH 29 0
BBX 26 36 1 -1
BITMAP
FE000FC0
FE000FC0
7E000F80
7F000F80
3F001F80
1F001F00
1F801F00
0F803F00
0FC03E00
07C03E00
07E07E00
03E07C00
03F07C00
01F0F800
01F8F800
00F8F800
00FDF000
007DF000
007FE000
003FE000
003FE000
001FC000
001FC000
000FC000
000F8000
000F8000
001F0000
001F0000
103F0000
183E0000
387E0000
3FFC0000
7FFC0000
7FF80000
3FF00000
0FC00000
ENDCHAR
STARTCHAR afii10038
ENCODING 1060
SWIDTH 598 0
DWIDTH 29 0
BBX 29 38 0 0
BITMAP
000F8000
000F8000
000F8000
000F8000
007FF000
01FFF800
03FFFE00
07FFFF00
0FEFBF80
1F8F9FC0
3F0F8FE0
3F0F87E0
7E0F83F0
7C0F81F0
FC0F81F0
F80F81F8
F80F80F8
F80F80F8
F80F80F8
F80F80F8
F80F80F8
F80F80F8
F80F81F8
FC0F81F8
7C0F81F0
7E0F83F0
3F0F87E0
3F8F8FE0
1FCF9FC0
0FFFFF80
07FFFF00
03FFFE00
00FFF800
003FE000
000F8000
000F8000
000F8000
000F8000
ENDCHAR
STARTCHAR afii10039
ENCODING 1061
SWIDTH 585 0
DWIDTH 28 0
BBX 25 35 2 0
BITMAP
FC001F00
7C003F00
7E003E00
3E007E00
3F007C00
1F80FC00
1F80F800
0FC1F800
0FC1F000
07E3F000
03E7E000
03F7C000
01FFC000
01FF8000
00FF8000
00FF0000
007F0000
007F0000
007F0000
00FF8000
00FF8000
01FFC000
03F7E000
03F7E000
07E3F000
07E3F000
0FC1F800
0F80F800
1F80FC00
1F007E00
3F007E00
7E003F00
7E003F00
FC001F80
FC001F80
ENDCHAR
STARTCHAR afii10040
ENCODING 1062
SWIDTH 598 0
DWIDTH 29 0
BBX 27 43 2 -8
BITMAP
FC007E00
FC007E00
F8007E00
F8007E00
F8007E00
F8007E00
F8007E00
F8007E00
F8007E00
F8007E00
F8007E00
F8007E00
F8007E00
F8007E00
F8007E00
F8007E00
F8007E00
F8007E00
F8007E00
F8007E00
F8007E00
F8007E00
F8007E00
F8007E00
F8007E00
F8007E00
F8007E00
F8007E00
F8007E00
F8007E00
FFFFFE00
FFFFFFE0
FFFFFFE0
FFFFFFE0
FFFFFFE0
000007E0
000007E0
000007E0
000007E0
000007E0
000007E0
000007E0
000007E0
ENDCHAR
STARTCHAR afii10041
ENCODING 1063
SWIDTH 598 0
DWIDTH 29 0
BBX 23 35 3 0
BITMAP
F8003E
F8003E
F8003E
F8003E
F8003E
F8003E
F8003E
F8003E
F8003E
F8003E
F8003E
F8003E
F8003E
F8003E
F8003E
FC003E
FC007E
7E00FE
7F01FE
3FFFFE
3FFFFE
0FFFFE
07FFFE
00FE3E
00003E
00003E
00003E
00003E
00003E
00003E
00003E
00003E
00003E
00003E
00003E
ENDCHAR
STARTCHAR afii10042
ENCODING 1064
SWIDTH 598 0
DWIDTH 29 0
BBX 27 35 1 0
BITMAP
FC1F87E0
FC1F87E0
FC1F07E0
FC1F07E0
FC1F07E0
FC1F07E0
FC1F07E0
FC1F07E0
FC1F07E0
FC1F07E0
FC1F07E0
FC1F07E0
FC1F07E0
FC1F07E0
FC1F07E0
FC1F07E0
FC1F07E0
FC1F07E0
FC1F07E0
FC1F07E0
FC1F07E0
FC1F07E0
FC1F07E0
FC1F07E0
FC1F07E0
FC1F07E0
FC1F07E0
FC1F07E0
FC1F07E0
FC1F07E0
FFFFFFE0
FFFFFFE0
FFFFFFE0
FFFFFFE0
FFFFFFE0
ENDCHAR
STARTCHAR afii10043
ENCODING 1065
SWIDTH 598 0
DWIDTH 29 0
BBX 29 43 0 -8
BITMAP
FC1F07E0
FC1F07E0
FC1F07C0
FC1F07C0
FC1F07C0
FC1F07C0
FC1F07C0
FC1F07C0
FC1F07C0
FC1F07C0
FC1F07C0
FC1F07C0
FC1F07C0
FC1F07C0
FC1F07C0
FC1F07C0
FC1F07C0
FC1F07C0
FC1F07C0
FC1F07C0
FC1F07C0
FC1F07C0
FC1F07C0
FC1F07C0
FC1F07C0
FC1F07C0
FC1F07C0
FC1F07C0
FC1F07C0
FC1F07C0
FFFFFFF8
FFFFFFF8
FFFFFFF8
FFFFFFF8
FFFFFFF8
000001F8
000001F8
000001F8
000001F8
000001F8
000001F8
000001F8
000001F8
ENDCHAR
STARTCHAR afii10044
ENCODING 1066
SWIDTH 598 0
DWIDTH 29 0
BBX 26 35 1 0
BITMAP
FFE00000
FFE00000
FFE00000
FFE00000
FFE00000
03E00000
03E00000
03E00000
03E00000
03E00000
03E00000
03E00000
03E00000
03E00000
03FFC000
03FFF800
03FFFC00
03FFFE00
03FFFF00
03E07F80
03E01F80
03E00FC0
03E00FC0
03E007C0
03E007C0
03E007C0
03E00FC0
03E00FC0
03E01FC0
03E03F80
03FFFF80
03FFFF00
03FFFE00
03FFF800
03FFC000
ENDCHAR
STARTCHAR afii10045
ENCODING 1067
SWIDTH 598 0
DWIDTH 29 0
BBX 25 35 2 0
BITMAP
FC001F80
FC001F80
F8001F80
F8001F80
F8001F80
F8001F80
F8001F80
F8001F80
F8001F80
F8001F80
F8001F80
F8001F80
F8001F80
F8001F80
FFE01F80
FFF81F80
FFFC1F80
FFFE1F80
FFFF1F80
F83F9F80
F81F9F80
F81F9F80
F80FDF80
F80FDF80
F80FDF80
F80FDF80
F80FDF80
F80F9F80
F81F9F80
F83F9F80
FFFF1F80
FFFE1F80
FFFE1F80
FFF81F80
FFE01F80
ENDCHAR
STARTCHAR afii10046
ENCODING 1068
SWIDTH 598 0
DWIDTH 29 0
BBX 25 35 2 0
BITMAP
FC000000
FC000000
FC000000
FC000000
FC000000
FC000000
FC000000
FC000000
FC000000
FC000000
FC000000
FC000000
FC000000
FC000000
FFFF0000
FFFFE000
FFFFF000
FFFFFC00
FFFFFE00
FC00FE00
FC007F00
FC003F00
FC001F00
FC001F00
FC001F80
FC001F80
FC001F00
FC003F00
FC007F00
FC00FE00
FFFFFE00
FFFFFC00
FFFFF800
FFFFE000
FFFF8000
ENDCHAR
STARTCHAR afii10047
ENCODING 1069
SWIDTH 598 0
DWIDTH 29 0
BBX 25 37 2 -1
BITMAP
00FE0000
07FF8000
0FFFE000
1FFFF000
3FFFF800
7F03FC00
FE01FE00
7C007E00
38007E00
08003F00
00003F00
00001F80
00001F80
00001F80
00000F80
03FFFF80
03FFFF80
03FFFF80
03FFFF80
03FFFF80
00000F80
00000F80
00000F80
00000F80
00001F80
00001F00
08001F00
38003F00
F8003E00
FC007E00
FE00FC00
7F01FC00
3FFFF800
1FFFF000
0FFFE000
07FF8000
00FE0000
ENDCHAR
STARTCHAR afii10048
ENCODING 1070
SWIDTH 598 0
DWIDTH 29 0
BBX 27 37 1 -1
BITMAP
0001F000
F807FC00
F80FFE00
F81FFF00
F83FFF80
F83F1F80
F87E0FC0
F87C0FC0
F87C07C0
F8FC07E0
F8F807E0
F8F803E0
F8F803E0
F8F803E0
F8F803E0
FFF803E0
FFF803E0
FFF803E0
FFF803E0
FFF803E0
F9F803E0
F9F803E0
F8F803E0
F8F803E0
F8F803E0
F8F803E0
F8FC07E0
F8FC07C0
F87C07C0
F87E0FC0
F87E0FC0
F83F3F80
F83FFF80
F81FFF00
F80FFE00
F807FC00
0001F000
ENDCHAR
STARTCHAR afii10049
ENCODING 1071
SWIDTH 598 0
DWIDTH 29 0
BBX 24 35 2 0
BITMAP
00FFFF
07FFFF
0FFFFF
1FFFFF
3FFFFF
3FC01F
7F001F
7E001F
7C001F
7C001F
7C001F
7C001F
7E001F
7E001F
3F801F
3FFFFF
1FFFFF
0FFFFF
03FFFF
01FFFF
01F81F
03F01F
03F01F
07E01F
07E01F
0FC01F
0FC01F
1F801F
1F801F
3F001F
3F001F
7E001F
7E001F
FC001F
FC001F
ENDCHAR
STARTCHAR afii10065
ENCODING 1072
SWIDTH 585 0
DWIDTH 28 0
BBX 23 27 2 -1
BITMAP
007F00
03FFE0
0FFFF0
1FFFF8
1FFFFC
0F80FE
0E007E
04003E
00003E
00003E
00007E
01FFFE
07FFFE
1FFFFE
3FFFFE
3F803E
7E003E
7C003E
7C003E
FC007E
7C00FE
7E03FE
7FFFFE
3FFFFE
1FFFFE
0FFF3E
03FC00
ENDCHAR
STARTCHAR afii10066
ENCODING 1073
SWIDTH 598 0
DWIDTH 29 0
BBX 25 39 2 -1
BITMAP
00006000
0000E000
003FF000
00FFF800
03FFF800
07FFE000
0FFF8000
0FE00000
1F800000
1F000000
3F000000
3E000000
7E7F0000
7FFFC000
7FFFF000
7FFFF800
FFFFFC00
FFC1FE00
FF007E00
FE003F00
FE003F00
FC001F00
FC001F80
FC001F80
FC001F80
FC001F80
FC001F80
FC001F80
7C001F80
7C001F00
7E003F00
7E003F00
3F007E00
3FC1FE00
1FFFFC00
0FFFF800
07FFF000
03FFE000
007F0000
ENDCHAR
STARTCHAR afii10067
ENCODING 1074
SWIDTH 598 0
DWIDTH 29 0
BBX 22 25 4 0
BITMAP
FFFE00
FFFF80
FFFFE0
FFFFF0
FFFFF0
F803F0
F801F8
F801F0
F803F0
FFFFF0
FFFFE0
FFFFC0
FFFFE0
FFFFF0
F801F8
F800FC
F800FC
F800FC
F800FC
F801FC
FFFFF8
FFFFF8
FFFFF0
FFFFC0
FFFE00
ENDCHAR
STARTCHAR afii10068
ENCODING 1075
SWIDTH 598 0
DWIDTH 29 0
BBX 21 26 4 0
BITMAP
FFFFF8
FFFFF8
FFFFF8
FFFFF8
FFFFF8
F80000
F80000
F80000
F80000
F80000
F80000
F80000
F80000
F80000
F80000
F80000
F80000
F80000
F80000
F80000
F80000
F80000
F80000
F80000
F80000
F80000
ENDCHAR
STARTCHAR afii10069
ENCODING 1076
SWIDTH 598 0
DWIDTH 29 0
BBX 27 33 2 -8
BITMAP
07FFFF00
03FFFF00
03FFFF00
03FFFF00
03FFFF00
03E03F00
07E03F00
07E03F00
07E03F00
07C03F00
07C03F00
07C03F00
07C03F00
07C03F00
0FC03F00
0FC03F00
0F803F00
0F803F00
1F803F00
1F803F00
FFFFFFE0
FFFFFFE0
FFFFFFE0
FFFFFFE0
FFFFFFE0
F80007E0
F80007E0
F80007E0
F80007E0
F80007E0
F80007E0
F80007E0
F80007E0
ENDCHAR
STARTCHAR afii10070
ENCODING 1077
SWIDTH 585 0
DWIDTH 28 0
BBX 24 27 2 -1
BITMAP
007F00
01FFE0
07FFF0
0FFFF8
1FFFFC
1F80FC
3F007E
3E003E
7E003E
7C003F
7FFFFF
7FFFFF
FFFFFF
FFFFFF
FFFFFF
FC0000
7C0000
7C0000
7E0000
7E0008
3F001C
3FC07E
1FFFFE
0FFFFC
07FFF8
01FFF0
003F80
ENDCHAR
STARTCHAR afii10072
ENCODING 1078
SWIDTH 598 0
DWIDTH 29 0
BBX 29 26 0 0
BITMAP
7E0F87E0
7F0F87E0
3F0F8FC0
1F8F9F80
0FCF9F80
0FCFBF00
07EFBE00
03EFFE00
03FFFC00
01FFFC00
00FFF800
00FFF000
007FF000
00FFF800
01FFF800
01FFFC00
03FFFE00
07EFFE00
07EFBF00
0FCFBF80
1FCF9F80
1F8F8FC0
3F0F8FE0
7F0F87E0
7E0F87F0
FE0F83F8
ENDCHAR
STARTCHAR afii10073
ENCODING 1079
SWIDTH 598 0
DWIDTH 29 0
BBX 21 26 4 0
BITMAP
01FE00
0FFF80
3FFFC0
7FFFF0
FFFFF0
7F07F8
7801F8
3000F8
0000F8
0003F8
01FFF8
01FFF0
01FFE0
01FFF0
01FFF8
0003F8
0000F8
0000F8
6000F8
F801F8
FE07F8
FFFFF8
7FFFF0
3FFFE0
0FFF80
03FC00
ENDCHAR
STARTCHAR afii10074
ENCODING 1080
SWIDTH 598 0
DWIDTH 29 0
BBX 22 25 3 0
BITMAP
FC007C
FC00FC
FC00FC
FC01FC
FC03FC
FC03FC
FC07FC
FC0FFC
FC1F7C
FC1E7C
FC3E7C
FC7C7C
FC787C
FCF87C
FDF07C
FFE07C
FFC07C
FFC07C
FF807C
FF007C
FF007C
FE007C
FC007C
FC007C
F8007C
ENDCHAR
STARTCHAR afii10075
ENCODING 1081
SWIDTH 598 0
DWIDTH 29 0
BBX 22 37 3 0
BITMAP
040020
0E0060
0F00F0
1F83F8
1FFFF0
0FFFE0
03FFC0
00FF00
000000
000000
000000
000000
FC007C
FC00FC
FC00FC
FC01FC
FC03FC
FC03FC
FC07FC
FC0FFC
FC1F7C
FC1E7C
FC3E7C
FC7C7C
FC787C
FCF87C
FDF07C
FFE07C
FFC07C
FFC07C
FF807C
FF007C
FF007C
FE007C
FC007C
FC007C
F8007C
ENDCHAR
STARTCHAR afii10076
ENCODING 1082
SWIDTH 585 0
DWIDTH 28 0
BBX 25 25 3 0
BITMAP
FC007F00
FC00FE00
FC01F800
FC03F000
FC07E000
FC1FC000
FC3F8000
FC7F0000
FCFE0000
FDFC0000
FFF80000
FFFC0000
FFFE0000
FF7E0000
FE3F0000
FC1F8000
FC1FC000
FC0FE000
FC07F000
FC03F800
FC01FC00
FC00FE00
FC00FE00
FC007F00
FC003F80
ENDCHAR
STARTCHAR afii10077
ENCODING 1083
SWIDTH 598 0
DWIDTH 29 0
BBX 26 25 0 0
BITMAP
01FFFFC0
01FFFFC0
00FFFFC0
00FFFFC0
01FFFFC0
01F80FC0
01F80FC0
01F00FC0
01F00FC0
01F00FC0
01F00FC0
01F00FC0
01F00FC0
03F00FC0
03F00FC0
03E00FC0
03E00FC0
03E00FC0
07E00FC0
67E00FC0
77C00FC0
7FC00FC0
FFC00FC0
7F800FC0
3F000FC0
ENDCHAR
STARTCHAR afii10078
ENCODING 1084
SWIDTH 598 0
DWIDTH 29 0
BBX 25 25 2 0
BITMAP
F8000F80
F8000F80
FC001F80
FE003F80
FE007F80
FF007F80
FF80FF80
FFC1FF80
FFC3EF80
FBE3EF80
F9F7CF80
F9FF8F80
F8FF0F80
F87F0F80
F87E0F80
F83C0F80
F81C0F80
F8000F80
F8000F80
F8000F80
F8000F80
F8000F80
F8000F80
F8000F80
F8000F80
ENDCHAR
STARTCHAR afii10079
ENCODING 1085
SWIDTH 598 0
DWIDTH 29 0
BBX 23 25 3 0
BITMAP
FC007E
FC007E
FC007E
FC007E
FC007E
FC007E
FC007E
FC007E
FC007E
FC007E
FFFFFE
FFFFFE
FFFFFE
FFFFFE
FFFFFE
FC007E
FC007E
FC007E
FC007E
FC007E
FC007E
FC007E
FC007E
FC007E
FC007E
ENDCHAR
STARTCHAR afii10080
ENCODING 1086
SWIDTH 585 0
DWIDTH 28 0
BBX 25 27 2 -1
BITMAP
007F0000
01FFC000
07FFF000
0FFFF800
1FFFFC00
3FC1FE00
3F007E00
7E003F00
7E003F00
7C001F00
FC001F80
FC001F80
FC001F80
FC001F80
FC001F80
FC001F80
FC001F80
FC001F00
7E003F00
7F003F00
3F807E00
3FC1FE00
1FFFFC00
0FFFF800
07FFF000
01FFE000
007F0000
ENDCHAR
STARTCHAR afii10081
ENCODING 1087
SWIDTH 598 0
DWIDTH 29 0
BBX 23 25 3 0
BITMAP
FFFFFE
FFFFFE
FFFFFE
FFFFFE
FFFFFE
FC007E
FC007E
FC007E
FC007E
FC007E
FC007E
FC007E
FC007E
FC007E
FC007E
FC007E
FC007E
FC007E
FC007E
FC007E
FC007E
FC007E
FC007E
FC007E
FC007E
ENDCHAR
STARTCHAR afii10082
ENCODING 1088
SWIDTH 585 0
DWIDTH 28 0
BBX 24 35 3 -9
BITMAP
003F00
FDFFC0
FFFFF0
FFFFF8
FFFFFC
FF83FC
FE00FE
FE007E
FC007E
FC003F
FC003F
FC003F
FC003F
FC003F
FC003F
FC003F
FC003F
FC003E
FC007E
FC007E
FE00FC
FF83FC
FFFFF8
FFFFF0
FFFFE0
FDFFC0
FC7F00
FC0000
FC0000
FC0000
FC0000
FC0000
FC0000
FC0000
FC0000
ENDCHAR
STARTCHAR afii10083
ENCODING 1089
SWIDTH 585 0
DWIDTH 28 0
BBX 24 27 3 -1
BITMAP
007F80
01FFE0
07FFF8
0FFFFC
1FFFFE
3FC0FF
3F003E
7E001C
7E0018
FC0000
FC0000
FC0000
F80000
F80000
FC0000
FC0000
FC0000
FC0000
7E0000
7F0018
3F803C
3FE0FE
1FFFFE
0FFFFC
07FFF8
01FFE0
007F80
ENDCHAR
STARTCHAR afii10084
ENCODING 1090
SWIDTH 598 0
DWIDTH 29 0
BBX 22 25 3 0
BITMAP
FFFFFC
FFFFFC
FFFFFC
FFFFFC
FFFFFC
00FC00
00FC00
00FC00
00FC00
00FC00
00FC00
00FC00
00FC00
00FC00
00FC00
00FC00
00FC00
00FC00
00FC00
00FC00
00FC00
00FC00
00FC00
00FC00
00FC00
ENDCHAR
STARTCHAR afii10085
ENCODING 1091
SWIDTH 585 0
DWIDTH 28 0
BBX 26 35 1 -10
BITMAP
7F000FC0
3F000FC0
3F000F80
3F000F80
1F801F80
1F801F00
0F801F00
0FC03F00
07C03E00
07E03E00
07E07C00
03E07C00
03F07C00
01F0F800
01F0F800
00F8F000
00F9F000
00FDF000
007FE000
007FE000
003FC000
003FC000
001FC000
001F8000
001F8000
001F0000
001F0000
003F0000
303E0000
707E0000
7FFC0000
FFFC0000
FFF80000
7FE00000
1F800000
ENDCHAR
STARTCHAR afii10086
ENCODING 1092
SWIDTH 598 0
DWIDTH 29 0
BBX 25 42 2 -9
BITMAP
003E0000
003E0000
003E0000
003E0000
003E0000
003E0000
003E0000
00FF8000
03FFE000
07FFF000
0FFFF800
1FBFFC00
3F3E7E00
3E3E7E00
7E3E3F00
7C3E1F00
FC3E1F00
FC3E1F80
FC3E1F80
F83E1F80
F83E1F80
FC3E1F80
FC3E1F80
FC3E1F00
7C3E1F00
7E3E3F00
7E3E3E00
3F3E7E00
1FBEFC00
1FFFF800
0FFFF000
03FFE000
00FF8000
003E0000
003E0000
003E0000
003E0000
003E0000
003E0000
003E0000
003E0000
003E0000
ENDCHAR
STARTCHAR afii10087
ENCODING 1093
SWIDTH 585 0
DWIDTH 28 0
BBX 25 25 2 0
BITMAP
FC003F00
7E007E00
3F007C00
3F80FC00
1F81F800
0FC3F000
07E3E000
07E7E000
03FFC000
01FF8000
00FF8000
007F0000
007F0000
00FF0000
00FF8000
01FFC000
03F7E000
07E7E000
07C3F000
0FC1F800
1F80FC00
3F00FE00
3F007E00
7E003F00
FC001F80
ENDCHAR
STARTCHAR afii10088
ENCODING 1094
SWIDTH 598 0
DWIDTH 29 0
BBX 25 33 3 -8
BITMAP
FC007C00
FC007C00
FC007C00
FC007C00
FC007C00
FC007C00
FC007C00
FC007C00
FC007C00
FC007C00
FC007C00
FC007C00
FC007C00
FC007C00
FC007C00
FC007C00
FC007C00
FC007C00
FC007C00
FC007C00
FFFFFF80
FFFFFF80
FFFFFF80
FFFFFF80
FFFFFF80
00000F80
00000F80
00000F80
00000F80
00000F80
00000F80
00000F80
00000F80
ENDCHAR
STARTCHAR afii10089
ENCODING 1095
SWIDTH 598 0
DWIDTH 29 0
BBX 22 25 3 0
BITMAP
FC007C
FC007C
FC007C
FC007C
FC007C
FC007C
FC007C
FC007C
FC007C
FC00FC
7C00FC
7E01FC
7F03FC
3FFFFC
3FFFFC
1FFF7C
07FE7C
01F87C
00007C
00007C
00007C
00007C
00007C
00007C
00007C
ENDCHAR
STARTCHAR afii10090
ENCODING 1096
SWIDTH 598 0
DWIDTH 29 0
BBX 27 25 1 0
BITMAP
FC1F07E0
FC1F07E0
FC1F07E0
FC1F07E0
FC1F07E0
FC1F07E0
FC1F07E0
FC1F07E0
FC1F07E0
FC1F07E0
FC1F07E0
FC1F07E0
FC1F07E0
FC1F07E0
FC1F07E0
FC1F07E0
FC1F07E0
FC1F07E0
FC1F07E0
FC1F07E0
FFFFFFE0
FFFFFFE0
FFFFFFE0
FFFFFFE0
FFFFFFE0
ENDCHAR
STARTCHAR afii10091
ENCODING 1097
SWIDTH 598 0
DWIDTH 29 0
BBX 29 33 0 -8
BITMAP
FC1F07C0
FC1F07C0
FC1F07C0
FC1F07C0
FC1F07C0
FC1F07C0
FC1F07C0
FC1F07C0
FC1F07C0
FC1F07C0
FC1F07C0
FC1F07C0
FC1F07C0
FC1F07C0
FC1F07C0
FC1F07C0
FC1F07C0
FC1F07C0
FC1F07C0
FC1F07C0
FFFFFFF8
FFFFFFF8
FFFFFFF8
FFFFFFF8
FFFFFFF8
000001F8
000001F8
000001F8
000001F8
000001F8
000001F8
000001F8
000001F8
ENDCHAR
STARTCHAR afii10092
ENCODING 1098
SWIDTH 598 0
DWIDTH 29 0
BBX 25 25 1 0
BITMAP
FFE00000
FFE00000
FFE00000
FFE00000
FFE00000
03E00000
03E00000
03E00000
03E00000
03FC0000
03FFF000
03FFFC00
03FFFE00
03FFFF00
03E07F00
03E01F80
03E01F80
03E01F80
03E01F80
03E03F80
03FFFF00
03FFFF00
03FFFC00
03FFF800
03FFC000
ENDCHAR
STARTCHAR afii10093
ENCODING 1099
SWIDTH 598 0
DWIDTH 29 0
BBX 25 25 2 0
BITMAP
FC001F80
FC001F80
F8001F80
F8001F80
F8001F80
F8001F80
F8001F80
F8001F80
F8001F80
FF001F80
FFF81F80
FFFE1F80
FFFF1F80
FFFF9F80
F83F9F80
F80FDF80
F80FDF80
F80FDF80
F80FDF80
F81FDF80
FFFF9F80
FFFF1F80
FFFE1F80
FFFC1F80
FFE01F80
ENDCHAR
STARTCHAR afii10094
ENCODING 1100
SWIDTH 598 0
DWIDTH 29 0
BBX 21 25 4 0
BITMAP
FC0000
FC0000
FC0000
FC0000
FC0000
FC0000
FC0000
FC0000
FC0000
FFFE00
FFFF80
FFFFC0
FFFFE0
FFFFF0
FC03F0
FC01F8
FC01F8
FC01F8
FC01F8
FC03F0
FFFFF0
FFFFE0
FFFFC0
FFFF80
FFFC00
ENDCHAR
STARTCHAR afii10095
ENCODING 1101
SWIDTH 598 0
DWIDTH 29 0
BBX 24 27 3 -1
BITMAP
01FC00
0FFF80
3FFFC0
7FFFF0
FFFFF0
7F07F8
3C01FC
3000FC
00007E
00007E
03FFFE
03FFFE
03FFFF
03FFFF
03FFFF
00003E
00003E
10007E
30007E
7800FC
FC01FC
FE07F8
FFFFF0
7FFFE0
3FFFC0
0FFF80
03FC00
ENDCHAR
STARTCHAR afii10096
ENCODING 1102
SWIDTH 598 0
DWIDTH 29 0
BBX 25 29 2 -2
BITMAP
00008000
FC07F000
FC0FF800
FC1FFC00
FC3FFE00
FC3FFE00
FC7E7F00
FC7E3F00
FC7C3F00
FCFC1F00
FCFC1F80
FFFC1F80
FFFC1F80
FFFC1F80
FFFC1F80
FFFC1F80
FCFC1F80
FCFC1F80
FCFC1F80
FCFC1F00
FC7C3F00
FC7E3F00
FC7F7E00
FC3FFE00
FC3FFE00
FC1FFC00
FC0FF800
FC07F000
0001C000
ENDCHAR
STARTCHAR afii10097
ENCODING 1103
SWIDTH 598 0
DWIDTH 29 0
BBX 22 25 3 0
BITMAP
00FFFC
07FFFC
0FFFFC
1FFFFC
3FFFFC
3F007C
7E007C
7E007C
7E007C
3E007C
3F007C
3FFFFC
1FFFFC
0FFFFC
07FFFC
01FFFC
03F07C
07F07C
07E07C
0FC07C
1F807C
3F007C
3F007C
7E007C
FC007C
ENDCHAR
STARTCHAR uni0450
ENCODING 1104
SWIDTH 585 0
DWIDTH 28 0
BBX 24 40 2 -1
BITMAP
001800
003800
00FC00
00FC00
00FE00
007F00
003F00
001F80
001F80
000FC0
000700
000000
000000
007F00
01FFE0
07FFF0
0FFFF8
1FFFFC
1F80FC
3F007E
3E003E
7E003E
7C003F
7FFFFF
7FFFFF
FFFFFF
FFFFFF
FFFFFF
FC0000
7C0000
7C0000
7E0000
7E0008
3F001C
3FC07E
1FFFFE
0FFFFC
07FFF8
01FFF0
003F80
ENDCHAR
STARTCHAR afii10071
ENCODING 1105
SWIDTH 585 0
DWIDTH 28 0
BBX 24 38 2 -1
BITMAP
0780F0
0FC1F8
0FC3F8
1FE3F8
0FE3F8
0FC1F8
0780F0
000000
000000
000000
000000
007F00
01FFE0
07FFF0
0FFFF8
1FFFFC
1F80FC
3F007E
3E003E
7E003E
7C003F
7FFFFF
7FFFFF
FFFFFF
FFFFFF
FFFFFF
FC0000
7C0000
7C0000
7E0000
7E0008
3F001C
3FC07E
1FFFFE
0FFFFC
07FFF8
01FFF0
003F80
ENDCHAR
STARTCHAR afii10099
ENCODING 1106
SWIDTH 598 0
DWIDTH 29 0
BBX 26 47 1 -10
BITMAP
0FC00000
0FC00000
0F800000
0F800000
FFFF0000
FFFF0000
FFFF0000
FFFF0000
0F800000
0F800000
0F800000
0F83F000
0F8FFC00
0F9FFE00
0FBFFF00
0FFFFF00
0FFC3F80
0FF01F80
0FE00F80
0FC00FC0
0FC00FC0
0FC00FC0
0F800FC0
0F800FC0
0F800FC0
0F800FC0
0F800FC0
0F800FC0
0F800FC0
0F800FC0
0F800FC0
0F800FC0
0F800FC0
0F800FC0
0F800FC0
0F800FC0
0F800FC0
00000F80
00400F80
00E01F80
00E01F80
01F87F00
03FFFF00
01FFFE00
00FFFC00
007FF800
001FC000
ENDCHAR
STARTCHAR afii10100
ENCODING 1107
SWIDTH 598 0
DWIDTH 29 0
BBX 21 40 4 0
BITMAP
000800
000C00
001F00
003F80
003F00
007F00
007E00
00FC00
01F800
01F800
00F000
002000
000000
000000
FFFFF8
FFFFF8
FFFFF8
FFFFF8
FFFFF8
F80000
F80000
F80000
F80000
F80000
F80000
F80000
F80000
F80000
F80000
F80000
F80000
F80000
F80000
F80000
F80000
F80000
F80000
F80000
F80000
F80000
ENDCHAR
STARTCHAR afii10101
ENCODING 1108
SWIDTH 598 0
DWIDTH 29 0
BBX 24 27 3 -1
BITMAP
007F80
01FFE0
07FFF8
0FFFFC
1FFFFE
3FC0FF
3F003E
7E001C
7C0018
FC0000
FFFF80
FFFF80
FFFF80
FFFF80
FFFF80
FC0000
FC0000
FC0000
7E0000
7F0018
3F803C
3FE0FE
1FFFFE
0FFFFC
07FFF8
01FFE0
007F80
ENDCHAR
STARTCHAR afii10102
ENCODING 1109
SWIDTH 585 0
DWIDTH 28 0
BBX 23 27 3 -1
BITMAP
00FF00
07FFC0
0FFFF0
1FFFF8
3FE7FC
3F00FC
3E0078
3E0038
3F0030
3F8000
3FF000
1FFF00
0FFFC0
03FFF0
007FF8
000FFC
0001FC
0000FE
30007E
70007E
7C00FC
FF01FC
FFFFFC
7FFFF8
3FFFF0
0FFFC0
01FF00
ENDCHAR
STARTCHAR afii10103
ENCODING 1110
SWIDTH 585 0
DWIDTH 28 0
BBX 18 37 5 0
BITMAP
00E000
01F800
03F800
03F800
03F800
01F800
00F000
000000
000000
000000
000000
000000
7FF000
7FF000
7FF000
7FF000
7FF000
01F000
01F000
01F000
01F000
01F000
01F000
01F000
01F000
01F000
01F000
01F000
01F000
01F000
01F000
01F000
FFFFC0
FFFFC0
FFFFC0
FFFFC0
FFFFC0
ENDCHAR
STARTCHAR afii10104
ENCODING 1111
SWIDTH 585 0
DWIDTH 28 0
BBX 18 37 5 0
BITMAP
3C0780
7E0FC0
FE1FC0
FE1FC0
FE1FC0
7E0FC0
3C0780
000000
000000
000000
000000
000000
7FF000
7FF000
7FF000
7FF000
7FF000
01F000
01F000
01F000
01F000
01F000
01F000
01F000
01F000
01F000
01F000
01F000
01F000
01F000
01F000
01F000
FFFFC0
FFFFC0
FFFFC0
FFFFC0
FFFFC0
ENDCHAR
STARTCHAR afii10105
ENCODING 1112
SWIDTH 585 0
DWIDTH 28 0
BBX 21 47 2 -10
BITMAP
0001E0
0003F0
0003F0
0007F8
0003F0
0003F0
0001E0
000000
000000
000000
000000
000000
07FFF0
07FFF0
07FFF0
07FFF0
07FFF0
0003F0
0003F0
0003F0
0003F0
0003F0
0003F0
0003F0
0003F0
0003F0
0003F0
0003F0
0003F0
0003F0
0003F0
0003F0
0003F0
0003F0
0003F0
0003F0
0003F0
0003F0
1003F0
1803E0
3807E0
7E0FE0
FFFFC0
7FFF80
3FFF00
1FFE00
07F000
ENDCHAR
STARTCHAR afii10106
ENCODING 1113
SWIDTH 598 0
DWIDTH 29 0
BBX 29 25 0 0
BITMAP
0FFFE000
0FFFE000
0FFFC000
0FFFC000
0FFFC000
0F87C000
0F87C000
0F87C000
0F87C000
0F87FE00
0F87FF80
0F87FFC0
0F87FFE0
0F87C3F0
0F87C1F0
0F87C1F0
0F87C1F8
0F87C1F8
4F87C1F8
7F87C3F0
7F87FFF0
7F07FFE0
FF07FFE0
7E07FF80
3E07FE00
ENDCHAR
STARTCHAR afii10107
ENCODING 1114
SWIDTH 598 0
DWIDTH 29 0
BBX 28 25 1 0
BITMAP
F80F8000
F80F8000
F80F8000
F80F8000
F80F8000
F80F8000
F80F8000
F80F8000
F80F8000
FFFFFC00
FFFFFF80
FFFFFFC0
FFFFFFC0
FFFF87E0
F80F83E0
F80F83E0
F80F83F0
F80F83F0
F80F83F0
F80F87E0
F80FFFE0
F80FFFC0
F80FFFC0
F80FFF00
F80FFC00
ENDCHAR
STARTCHAR afii10108
ENCODING 1115
SWIDTH 598 0
DWIDTH 29 0
BBX 26 37 1 0
BITMAP
0FC00000
0FC00000
0F800000
0F800000
FFFF0000
FFFF0000
FFFF0000
FFFF0000
0F800000
0F800000
0F800000
0F83F000
0F8FFC00
0F9FFE00
0FBFFF00
0FFFFF80
0FFC3F80
0FF01F80
0FE00F80
0FC00FC0
0FC00FC0
0FC00FC0
0F800FC0
0F800FC0
0F800FC0
0F800FC0
0F800FC0
0F800FC0
0F800FC0
0F800FC0
0F800FC0
0F800FC0
0F800FC0
0F800FC0
0F800FC0
0F800FC0
0F800FC0
ENDCHAR
STARTCHAR afii10109
ENCODING 1116
SWIDTH 585 0
DWIDTH 28 0
BBX 25 39 3 0
BITMAP
00040000
00060000
000F8000
001FC000
001F8000
003F8000
003F0000
007E0000
00FC0000
00FC0000
00780000
00100000
00000000
00000000
FC007F00
FC00FE00
FC01F800
FC03F000
FC07E000
FC1FC000
FC3F8000
FC7F0000
FCFE0000
FDFC0000
FFF80000
FFFC0000
FFFE0000
FF7E0000
FE3F0000
FC1F8000
FC1FC000
FC0FE000
FC07F000
FC03F800
FC01FC00
FC00FE00
FC00FE00
FC007F00
FC003F80
ENDCHAR
STARTCHAR uni045D
ENCODING 1117
SWIDTH 598 0
DWIDTH 29 0
BBX 22 38 3 0
BITMAP
007000
00F800
01F800
01FC00
00FC00
007E00
003F00
003F00
001F80
000E00
000400
000000
000000
FC007C
FC00FC
FC00FC
FC01FC
FC03FC
FC03FC
FC07FC
FC0FFC
FC1F7C
FC1E7C
FC3E7C
FC7C7C
FC787C
FCF87C
FDF07C
FFE07C
FFC07C
FFC07C
FF807C
FF007C
FF007C
FE007C
FC007C
FC007C
F8007C
ENDCHAR
STARTCHAR afii10110
ENCODING 1118
SWIDTH 585 0
DWIDTH 28 0
BBX 26 47 1 -10
BITMAP
01000800
03801800
03C03C00
07E0FE00
07FFFC00
03FFF800
00FFF000
003FC000
00000000
00000000
00000000
00000000
7F000FC0
3F000FC0
3F000F80
3F000F80
1F801F80
1F801F00
0F801F00
0FC03F00
07C03E00
07E03E00
07E07C00
03E07C00
03F07C00
01F0F800
01F0F800
00F8F000
00F9F000
00FDF000
007FE000
007FE000
003FC000
003FC000
001FC000
001F8000
001F8000
001F0000
001F0000
003F0000
303E0000
707E0000
7FFC0000
FFFC0000
FFF80000
7FE00000
1F800000
ENDCHAR
STARTCHAR afii10193
ENCODING 1119
SWIDTH 598 0
DWIDTH 29 0
BBX 23 33 3 -8
BITMAP
F8003E
F8003E
F8003E
F8003E
F8003E
F8003E
F8003E
F8003E
F8003E
F8003E
F8003E
F8003E
F8003E
F8003E
F8003E
F8003E
F8003E
F8003E
F8003E
F8003E
FFFFFE
FFFFFE
FFFFFE
FFFFFE
FFFFFE
007C00
007C00
007C00
007C00
007C00
007C00
007C00
007C00
ENDCHAR
STARTCHAR afii10146
ENCODING 1122
SWIDTH 598 0
DWIDTH 29 0
BBX 26 35 1 0
BITMAP
03F00000
03E00000
03E00000
03E00000
03E00000
03E00000
FFFFF800
FFFFF800
FFFFF800
FFFFF800
03E00000
03E00000
03E00000
03E00000
03FFC000
03FFF800
03FFFC00
03FFFE00
03FFFF00
03E07F80
03E01F80
03E00FC0
03E00FC0
03E007C0
03E007C0
03E007C0
03E00FC0
03E00FC0
03E01FC0
03E03F80
03FFFF80
03FFFF00
03FFFE00
03FFF800
03FFC000
ENDCHAR
STARTCHAR afii10194
ENCODING 1123
SWIDTH 598 0
DWIDTH 29 0
BBX 25 32 1 0
BITMAP
03F00000
03E00000
03E00000
03E00000
03E00000
03E00000
03E00000
FFFFE000
FFFFE000
FFFFE000
FFFFE000
FFFFE000
03E00000
03E00000
03E00000
03E00000
03E00000
03FFF000
03FFF800
03FFFE00
03FFFF00
03E07F00
03E01F80
03E01F80
03E01F80
03E01F80
03E03F80
03FFFF00
03FFFF00
03FFFE00
03FFF800
03FFC000
ENDCHAR
STARTCHAR afii10147
ENCODING 1138
SWIDTH 585 0
DWIDTH 28 0
BBX 26 35 1 0
BITMAP
007FC000
01FFF000
07FFF800
0FFFFC00
0FFFFE00
1FC0FF00
3F803F00
3F001F80
3E000F80
7E000F80
7C000FC0
7C0007C0
7C0007C0
7C0007C0
FC0007C0
FDFFF7C0
FDFFF7C0
FDFFF7C0
FDFFF7C0
FDFFF7C0
7C0007C0
7C0007C0
7C0007C0
7C000FC0
7E000FC0
7E000FC0
3F001F80
3F001F80
1F803F00
1FE0FF00
0FFFFE00
07FFFC00
03FFF800
01FFF000
003FC000
ENDCHAR
STARTCHAR afii10195
ENCODING 1139
SWIDTH 598 0
DWIDTH 29 0
BBX 25 27 2 -1
BITMAP
007F0000
01FFC000
07FFF000
0FFFF800
1FFFFC00
3FC1FE00
3F007E00
7E003F00
7E003F00
7C001F00
FCFF9F80
FCFF9F80
FCFF9F80
FCFF9F80
FCFF9F80
FC001F80
FC001F80
7C001F00
7E003F00
7F003F00
3F807E00
3FC1FE00
1FFFFC00
0FFFF800
07FFF000
01FFE000
007F0000
ENDCHAR
STARTCHAR afii10148
ENCODING 1140
SWIDTH 585 0
DWIDTH 28 0
BBX 27 36 1 -1
BITMAP
FC0003E0
FC0007E0
7C0007C0
7E0007C0
7E000FC0
3E000F80
3F000F80
3F001F80
1F001F00
1F801F00
1F803F00
0F803E00
0FC03E00
0FC03E00
07C07C00
07C07C00
03E07C00
03E0F800
03E0F800
01F0F800
01F1F000
01F1F000
00F9F000
00F9E000
00FBE000
007FE000
007FC000
007FC000
003FC000
003F8000
003F8000
001F8000
001F0000
001F0000
000E0000
000E0000
ENDCHAR
STARTCHAR afii10196
ENCODING 1141
SWIDTH 585 0
DWIDTH 28 0
BBX 25 26 2 -1
BITMAP
FC000F80
FC001F00
7C001F00
7E001F00
7E001F00
3E003E00
3F003E00
1F003E00
1F807C00
0F807C00
0F80F800
0FC0F800
07C0F000
07E1F000
03E1E000
03E3E000
03F3E000
01F7C000
01FFC000
00FF8000
00FF8000
00FF0000
007F0000
007E0000
003E0000
003E0000
ENDCHAR
STARTCHAR afii10050
ENCODING 1168
SWIDTH 598 0
DWIDTH 29 0
BBX 23 44 3 0
BITMAP
00007E
00007E
00007E
00007E
00007E
00007E
00007E
00007E
00007E
FFFFFE
FFFFFE
FFFFFE
FFFFFE
FFFFFE
F80000
F80000
F80000
F80000
F80000
F80000
F80000
F80000
F80000
F80000
F80000
F80000
F80000
F80000
F80000
F80000
F80000
F80000
F80000
F80000
F80000
F80000
F80000
F80000
F80000
F80000
F80000
F80000
F80000
F80000
ENDCHAR
STARTCHAR afii10098
ENCODING 1169
SWIDTH 598 0
DWIDTH 29 0
BBX 21 33 4 0
BITMAP
0001F8
0001F8
0001F8
0001F8
0001F8
0001F8
0001F8
FFFFF8
FFFFF8
FFFFF8
FFFFF8
F80078
F80000
F80000
F80000
F80000
F80000
F80000
F80000
F80000
F80000
F80000
F80000
F80000
F80000
F80000
F80000
F80000
F80000
F80000
F80000
F80000
F80000
ENDCHAR
STARTCHAR Wgrave
ENCODING 7808
SWIDTH 585 0
DWIDTH 28 0
BBX 27 46 1 -1
BITMAP
00400000
00F00000
00FC0000
01FF8000
01FFE000
003FE000
0007C000
00008000
00000000
00000000
F80001E0
F80001E0
F80003E0
F80603E0
F80F03E0
FC0F03E0
7C0F03C0
7C0F03C0
7C1F83C0
7C1F87C0
7C1F87C0
7C3F87C0
3E3FC780
3E3FC780
3E3FC780
3E7BC780
3E7BE780
3E7BEF80
1F79EF80
1FF1FF00
1FF1FF00
1FF1FF00
1FF0FF00
1FE0FF00
0FE0FF00
0FE0FE00
0FE07E00
0FC07E00
0FC07E00
0FC07E00
0FC03E00
07803C00
07803C00
07803C00
07801C00
07001C00
ENDCHAR
STARTCHAR wgrave
ENCODING 7809
SWIDTH 585 0
DWIDTH 28 0
BBX 27 39 1 0
BITMAP
000C0000
001C0000
007E0000
007E0000
007F0000
003F8000
001F8000
000FC000
000FC000
0007E000
00038000
00000000
00000000
00000000
F80003E0
F80003E0
F80E03E0
F80F03E0
F81F03C0
7C1F03C0
7C1F87C0
7C1F87C0
7C3F87C0
3C3FC7C0
3E3FC780
3E3BC780
3E7BC780
3E7BE780
1E79EF80
1F71EF80
1FF1FF00
1FF0FF00
1FE0FF00
0FE0FF00
0FE0FF00
0FE07E00
0FC07E00
07C07E00
07C03E00
ENDCHAR
STARTCHAR Wacute
ENCODING 7810
SWIDTH 585 0
DWIDTH 28 0
BBX 27 46 1 -1
BITMAP
00004000
0001E000
0007F000
001FF000
00FFF000
007F8000
007C0000
00200000
00000000
00000000
F80001E0
F80001E0
F80003E0
F80603E0
F80F03E0
FC0F03E0
7C0F03C0
7C0F03C0
7C1F83C0
7C1F87C0
7C1F87C0
7C3F87C0
3E3FC780
3E3FC780
3E3FC780
3E7BC780
3E7BE780
3E7BEF80
1F79EF80
1FF1FF00
1FF1FF00
1FF1FF00
1FF0FF00
1FE0FF00
0FE0FF00
0FE0FE00
0FE07E00
0FC07E00
0FC07E00
0FC07E00
0FC03E00
07803C00
07803C00
07803C00
07801C00
07001C00
ENDCHAR
STARTCHAR wacute
ENCODING 7811
SWIDTH 585 0
DWIDTH 28 0
BBX 27 39 1 0
BITMAP
00010000
0001C000
0003E000
0007F000
0007E000
000FE000
000FC000
001F8000
003F0000
003F0000
000E0000
00040000
00000000
00000000
F80003E0
F80003E0
F80E03E0
F80F03E0
F81F03C0
7C1F03C0
7C1F87C0
7C1F87C0
7C3F87C0
3C3FC7C0
3E3FC780
3E3BC780
3E7BC780
3E7BE780
1E79EF80
1F71EF80
1FF1FF00
1FF0FF00
1FE0FF00
0FE0FF00
0FE0FF00
0FE07E00
0FC07E00
07C07E00
07C03E00
ENDCHAR
STARTCHAR Wdieresis
ENCODING 7812
SWIDTH 585 0
DWIDTH 28 0
BBX 27 45 1 -1
BITMAP
03807000
07E0F800
0FE1FC00
0FE1FC00
0FE1FC00
07E0FC00
03C07800
00000000
00000000
F80001E0
F80001E0
F80003E0
F80603E0
F80F03E0
FC0F03E0
7C0F03C0
7C0F03C0
7C1F83C0
7C1F87C0
7C1F87C0
7C3F87C0
3E3FC780
3E3FC780
3E3FC780
3E7BC780
3E7BE780
3E7BEF80
1F79EF80
1FF1FF00
1FF1FF00
1FF1FF00
1FF0FF00
1FE0FF00
0FE0FF00
0FE0FE00
0FE07E00
0FC07E00
0FC07E00
0FC07E00
0FC03E00
07803C00
07803C00
07803C00
07801C00
07001C00
ENDCHAR
STARTCHAR wdieresis
ENCODING 7813
SWIDTH 585 0
DWIDTH 28 0
BBX 27 37 1 0
BITMAP
03C07800
07E0FC00
07E1FC00
0FF1FC00
07F1FC00
07E0FC00
03C07800
00000000
00000000
00000000
00000000
F80003E0
F80003E0
F80E03E0
F80F03E0
F81F03C0
7C1F03C0
7C1F83C0
7C1F87C0
7C3F87C0
7C3F87C0
3E3FC780
3E3FC780
3E7BC780
3E7BE780
3E7BEF80
1F71EF80
1FF1EF00
1FF1FF00
1FF0FF00
0FE0FF00
0FE0FF00
0FE0FF00
0FE07E00
0FC07E00
07C07E00
07C03E00
ENDCHAR
STARTCHAR Ygrave
ENCODING 7922
SWIDTH 585 0
DWIDTH 28 0
BBX 27 45 1 0
BITMAP
00400000
00F00000
00FC0000
01FF8000
01FFE000
003FE000
0007C000
00008000
00000000
00000000
FC0007E0
7E0007C0
7E000FC0
3F000F80
3F001F80
1F801F00
1F803F00
0FC03E00
0FC07E00
07E07C00
07E0FC00
03F0F800
03F0F800
01F9F000
01F9F000
00FFE000
007FE000
007FC000
003FC000
003FC000
001F8000
001F8000
001F8000
001F8000
001F8000
001F8000
001F8000
001F8000
001F8000
001F8000
001F8000
001F8000
001F8000
001F8000
001F8000
ENDCHAR
STARTCHAR ygrave
ENCODING 7923
SWIDTH 585 0
DWIDTH 28 0
BBX 26 48 1 -10
BITMAP
001C0000
003E0000
007E0000
007F0000
003F0000
001F8000
000FC000
000FC000
0007E000
00038000
00010000
00000000
00000000
7F000FC0
3F000FC0
3F000F80
3F000F80
1F801F80
1F801F00
0F801F00
0FC03F00
07C03E00
07E03E00
07E07C00
03E07C00
03F07C00
01F0F800
01F0F800
00F8F000
00F9F000
00FDF000
007FE000
007FE000
003FC000
003FC000
001FC000
001F8000
001F8000
001F0000
001F0000
003F0000
303E0000
707E0000
7FFC0000
FFFC0000
FFF80000
7FE00000
1F800000
ENDCHAR
STARTCHAR endash
ENCODING 8211
SWIDTH 598 0
DWIDTH 29 0
BBX 19 5 5 16
BITMAP
FFFFE0
FFFFE0
FFFFE0
FFFFE0
FFFFE0
ENDCHAR
STARTCHAR emdash
ENCODING 8212
SWIDTH 598 0
DWIDTH 29 0
BBX 25 5 2 16
BITMAP
FFFFFF80
FFFFFF80
FFFFFF80
FFFFFF80
FFFFFF80
ENDCHAR
STARTCHAR afii00208
ENCODING 8213
SWIDTH 598 0
DWIDTH 29 0
BBX 31 5 -1 16
BITMAP
FFFFFFFE
FFFFFFFE
FFFFFFFE
FFFFFFFE
FFFFFFFE
ENDCHAR
STARTCHAR underscoredbl
ENCODING 8215
SWIDTH 585 0
DWIDTH 28 0
BBX 25 12 2 -6
BITMAP
FFFFFF80
FFFFFF80
FFFFFF80
FFFFFF80
FFFFFF80
00000000
00000000
FFFFFF80
FFFFFF80
FFFFFF80
FFFFFF80
FFFFFF80
ENDCHAR
STARTCHAR quoteleft
ENCODING 8216
SWIDTH 598 0
DWIDTH 29 0
BBX 9 15 9 21
BITMAP
0200
0780
0F80
1F00
3E00
7C00
7C00
FC00
FE00
FF00
FF00
FF00
FF00
7F00
3E00
ENDCHAR
ENDFONT
